{
copyright = "Copyright (c) 2015, Cadson Demak (info@cadsondemak.com)";
customParameters = (
{
name = vendorID;
value = CDK;
},
{
name = description;
value = "Copyright (c) 2015, Cadson Demak (info@cadsondemak.com)";
},
{
name = license;

glyphs = (
{
glyphname = A;
lastChange = "2015-10-28 08:12:39 +0000";
layers = (
{
layerId = "EA8340D9-3B60-45BA-AE27-149F2EF80A01";
name = "Light Italic";
paths = (
{
closed = 1;
nodes = (
"93 0 LINE",
"206 187 LINE",
"528 187 LINE",
"564 0 LINE",
"641 0 LINE",
"510 699 LINE",
"437 699 LINE",
"10 0 LINE"
);
},
{
closed = 1;
nodes = (
"457 609 LINE",
"520 253 LINE",
"243 253 LINE"
);
}
);
width = 731;
}
);
leftKerningGroup = A;
note = A;
rightKerningGroup = A;
unicode = 0041;
},
{
glyphname = Aacute;
lastChange = "2015-10-28 08:12:41 +0000";
layers = (
{
layerId = "EA8340D9-3B60-45BA-AE27-149F2EF80A01";
name = "Light Italic";
paths = (
{
closed = 1;
nodes = (
"93 0 LINE",
"206 187 LINE",
"528 187 LINE",
"564 0 LINE",
"641 0 LINE",
"510 699 LINE",
"437 699 LINE",
"10 0 LINE"
);
},
{
closed = 1;
nodes = (
"457 609 LINE",
"520 253 LINE",
"243 253 LINE"
);
},
{
closed = 1;
nodes = (
"523 742 LINE",
"639 912 LINE",
"558 912 LINE",
"454 742 LINE"
);
}
);
width = 731;
}
);
leftKerningGroup = A;
note = Aacute;
rightKerningGroup = A;
unicode = 00C1;
},
{
glyphname = Abreve;
lastChange = "2015-10-28 08:12:40 +0000";
layers = (
{
layerId = "EA8340D9-3B60-45BA-AE27-149F2EF80A01";
name = "Light Italic";
paths = (
{
closed = 1;
nodes = (
"93 0 LINE",
"206 187 LINE",
"528 187 LINE",
"564 0 LINE",
"641 0 LINE",
"510 699 LINE",
"437 699 LINE",
"10 0 LINE"
);
},
{
closed = 1;
nodes = (
"457 609 LINE",
"520 253 LINE",
"243 253 LINE"
);
},
{
closed = 1;
nodes = (
"568 742 OFFCURVE",
"633 797 OFFCURVE",
"649 872 CURVE",
"587 872 LINE",
"578 826 OFFCURVE",
"541 796 OFFCURVE",
"491 796 CURVE SMOOTH",
"441 796 OFFCURVE",
"418 826 OFFCURVE",
"427 872 CURVE",
"370 872 LINE",
"355 797 OFFCURVE",
"397 742 OFFCURVE",
"483 742 CURVE SMOOTH"
);
}
);
width = 731;
}
);
leftKerningGroup = A;
note = Abreve;
rightKerningGroup = A;
unicode = 0102;
},
{
glyphname = Abreveacute;
lastChange = "2015-10-28 08:12:41 +0000";
layers = (
{
layerId = "EA8340D9-3B60-45BA-AE27-149F2EF80A01";
name = "Light Italic";
paths = (
{
closed = 1;
nodes = (
"93 0 LINE",
"206 187 LINE",
"528 187 LINE",
"564 0 LINE",
"641 0 LINE",
"510 699 LINE",
"437 699 LINE",
"10 0 LINE"
);
},
{
closed = 1;
nodes = (
"457 609 LINE",
"520 253 LINE",
"243 253 LINE"
);
},
{
closed = 1;
nodes = (
"566 742 OFFCURVE",
"631 796 OFFCURVE",
"646 870 CURVE",
"589 870 LINE",
"579 824 OFFCURVE",
"544 795 OFFCURVE",
"494 795 CURVE SMOOTH",
"445 795 OFFCURVE",
"421 824 OFFCURVE",
"431 870 CURVE",
"373 870 LINE",
"357 796 OFFCURVE",
"398 742 OFFCURVE",
"482 742 CURVE SMOOTH"
);
},
{
closed = 1;
nodes = (
"526 855 LINE",
"615 978 LINE",
"551 978 LINE",
"472 855 LINE"
);
}
);
width = 731;
}
);
leftKerningGroup = A;
note = Abreveacute;
rightKerningGroup = A;
unicode = 1EAE;
},
{
glyphname = Abrevedotbelow;
lastChange = "2015-10-28 08:12:41 +0000";
layers = (
{
layerId = "EA8340D9-3B60-45BA-AE27-149F2EF80A01";
name = "Light Italic";
paths = (
{
closed = 1;
nodes = (
"93 0 LINE",
"206 187 LINE",
"528 187 LINE",
"564 0 LINE",
"641 0 LINE",
"510 699 LINE",
"437 699 LINE",
"10 0 LINE"
);
},
{
closed = 1;
nodes = (
"320 -152 OFFCURVE",
"347 -130 OFFCURVE",
"353 -103 CURVE",
"358 -76 OFFCURVE",
"340 -54 OFFCURVE",
"315 -54 CURVE SMOOTH",
"288 -54 OFFCURVE",
"260 -76 OFFCURVE",
"255 -103 CURVE",
"249 -130 OFFCURVE",
"267 -152 OFFCURVE",
"294 -152 CURVE SMOOTH"
);
},
{
closed = 1;
nodes = (
"457 609 LINE",
"520 253 LINE",
"243 253 LINE"
);
},
{
closed = 1;
nodes = (
"568 742 OFFCURVE",
"633 797 OFFCURVE",
"649 872 CURVE",
"587 872 LINE",
"578 826 OFFCURVE",
"541 796 OFFCURVE",
"491 796 CURVE SMOOTH",
"441 796 OFFCURVE",
"418 826 OFFCURVE",
"427 872 CURVE",
"370 872 LINE",
"355 797 OFFCURVE",
"397 742 OFFCURVE",
"483 742 CURVE SMOOTH"
);
}
);
width = 731;
}
);
leftKerningGroup = A;
note = Abrevedotbelow;
rightKerningGroup = A;
unicode = 1EB6;
},
{
glyphname = Abrevegrave;
lastChange = "2015-10-28 08:12:41 +0000";
layers = (
{
layerId = "EA8340D9-3B60-45BA-AE27-149F2EF80A01";
name = "Light Italic";
paths = (
{
closed = 1;
nodes = (
"93 0 LINE",
"206 187 LINE",
"528 187 LINE",
"564 0 LINE",
"641 0 LINE",
"510 699 LINE",
"437 699 LINE",
"10 0 LINE"
);
},
{
closed = 1;
nodes = (
"457 609 LINE",
"520 253 LINE",
"243 253 LINE"
);
},
{
closed = 1;
nodes = (
"566 742 OFFCURVE",
"631 796 OFFCURVE",
"646 870 CURVE",
"589 870 LINE",
"579 824 OFFCURVE",
"544 795 OFFCURVE",
"494 795 CURVE SMOOTH",
"445 795 OFFCURVE",
"421 824 OFFCURVE",
"431 870 CURVE",
"373 870 LINE",
"357 796 OFFCURVE",
"398 742 OFFCURVE",
"482 742 CURVE SMOOTH"
);
},
{
closed = 1;
nodes = (
"543 855 LINE",
"516 978 LINE",
"451 978 LINE",
"489 855 LINE"
);
}
);
width = 731;
}
);
leftKerningGroup = A;
note = Abrevegrave;
rightKerningGroup = A;
unicode = 1EB0;
},
{
glyphname = Abrevehookabove;
lastChange = "2015-10-28 08:12:39 +0000";
layers = (
{
layerId = "EA8340D9-3B60-45BA-AE27-149F2EF80A01";
name = "Light Italic";
paths = (
{
closed = 1;
nodes = (
"93 0 LINE",
"206 187 LINE",
"528 187 LINE",
"564 0 LINE",
"641 0 LINE",
"510 699 LINE",
"437 699 LINE",
"10 0 LINE"
);
},
{
closed = 1;
nodes = (
"457 609 LINE",
"520 253 LINE",
"243 253 LINE"
);
},
{
closed = 1;
nodes = (
"566 742 OFFCURVE",
"631 796 OFFCURVE",
"646 870 CURVE",
"590 870 LINE",
"580 824 OFFCURVE",
"544 794 OFFCURVE",
"494 794 CURVE SMOOTH",
"444 794 OFFCURVE",
"420 824 OFFCURVE",
"430 870 CURVE",
"373 870 LINE",
"357 796 OFFCURVE",
"398 742 OFFCURVE",
"482 742 CURVE SMOOTH"
);
},
{
closed = 1;
nodes = (
"526 842 LINE",
"531 867 LINE",
"575 873 OFFCURVE",
"605 900 OFFCURVE",
"612 932 CURVE SMOOTH",
"620 972 OFFCURVE",
"597 998 OFFCURVE",
"542 998 CURVE SMOOTH",
"521 998 OFFCURVE",
"495 994 OFFCURVE",
"480 989 CURVE",
"472 953 LINE",
"483 958 OFFCURVE",
"503 961 OFFCURVE",
"519 961 CURVE SMOOTH",
"548 961 OFFCURVE",
"561 950 OFFCURVE",
"556 928 CURVE SMOOTH",
"551 904 OFFCURVE",
"529 892 OFFCURVE",
"486 892 CURVE",
"476 842 LINE"
);
}
);
width = 731;
}
);
leftKerningGroup = A;
note = Abrevehookabove;
rightKerningGroup = A;
unicode = 1EB2;
},
{
glyphname = Abrevetilde;
lastChange = "2015-10-28 08:12:41 +0000";
layers = (
{
layerId = "EA8340D9-3B60-45BA-AE27-149F2EF80A01";
name = "Light Italic";
paths = (
{
closed = 1;
nodes = (
"93 0 LINE",
"206 187 LINE",
"528 187 LINE",
"564 0 LINE",
"641 0 LINE",
"510 699 LINE",
"437 699 LINE",
"10 0 LINE"
);
},
{
closed = 1;
nodes = (
"457 609 LINE",
"520 253 LINE",
"243 253 LINE"
);
},
{
closed = 1;
nodes = (
"572 742 OFFCURVE",
"637 796 OFFCURVE",
"652 870 CURVE",
"596 870 LINE",
"586 824 OFFCURVE",
"550 794 OFFCURVE",
"500 794 CURVE SMOOTH",
"450 794 OFFCURVE",
"426 824 OFFCURVE",
"436 870 CURVE",
"379 870 LINE",
"363 796 OFFCURVE",
"404 742 OFFCURVE",
"488 742 CURVE SMOOTH"
);
},
{
closed = 1;
nodes = (
"385 922 OFFCURVE",
"414 932 OFFCURVE",
"444 932 CURVE SMOOTH",
"500 932 OFFCURVE",
"530 889 OFFCURVE",
"594 889 CURVE SMOOTH",
"629 889 OFFCURVE",
"659 897 OFFCURVE",
"683 925 CURVE",
"696 986 LINE",
"665 951 OFFCURVE",
"636 940 OFFCURVE",
"605 940 CURVE SMOOTH",
"548 940 OFFCURVE",
"515 984 OFFCURVE",
"455 984 CURVE SMOOTH",
"421 984 OFFCURVE",
"389 975 OFFCURVE",
"364 947 CURVE",
"351 886 LINE"
);
}
);
width = 731;
}
);
leftKerningGroup = A;
note = Abrevetilde;
rightKerningGroup = A;
unicode = 1EB4;
},
{
glyphname = Acaron;
lastChange = "2015-10-28 08:12:41 +0000";
layers = (
{
layerId = "EA8340D9-3B60-45BA-AE27-149F2EF80A01";
name = "Light Italic";
paths = (
{
closed = 1;
nodes = (
"93 0 LINE",
"206 187 LINE",
"528 187 LINE",
"564 0 LINE",
"641 0 LINE",
"510 699 LINE",
"437 699 LINE",
"10 0 LINE"
);
},
{
closed = 1;
nodes = (
"457 609 LINE",
"520 253 LINE",
"243 253 LINE"
);
},
{
closed = 1;
nodes = (
"515 742 LINE",
"687 903 LINE",
"606 903 LINE",
"489 789 LINE",
"422 903 LINE",
"347 903 LINE",
"448 742 LINE"
);
}
);
width = 731;
}
);
leftKerningGroup = A;
note = Acaron;
rightKerningGroup = A;
unicode = 01CD;
},
{
glyphname = Acircumflex;
lastChange = "2015-10-28 08:12:41 +0000";
layers = (
{
layerId = "EA8340D9-3B60-45BA-AE27-149F2EF80A01";
name = "Light Italic";
paths = (
{
closed = 1;
nodes = (
"93 0 LINE",
"206 187 LINE",
"528 187 LINE",
"564 0 LINE",
"641 0 LINE",
"510 699 LINE",
"437 699 LINE",
"10 0 LINE"
);
},
{
closed = 1;
nodes = (
"457 609 LINE",
"520 253 LINE",
"243 253 LINE"
);
},
{
closed = 1;
nodes = (
"394 742 LINE",
"510 856 LINE",
"578 742 LINE",
"653 742 LINE",
"550 903 LINE",
"483 903 LINE",
"313 742 LINE"
);
}
);
width = 731;
}
);
leftKerningGroup = A;
note = Acircumflex;
rightKerningGroup = A;
unicode = 00C2;
},
{
glyphname = Acircumflexacute;
lastChange = "2015-10-28 08:12:39 +0000";
layers = (
{
layerId = "EA8340D9-3B60-45BA-AE27-149F2EF80A01";
name = "Light Italic";
paths = (
{
closed = 1;
nodes = (
"93 0 LINE",
"206 187 LINE",
"528 187 LINE",
"564 0 LINE",
"641 0 LINE",
"510 699 LINE",
"437 699 LINE",
"10 0 LINE"
);
},
{
closed = 1;
nodes = (
"457 609 LINE",
"520 253 LINE",
"243 253 LINE"
);
},
{
closed = 1;
nodes = (
"386 742 LINE",
"499 837 LINE",
"570 742 LINE",
"647 742 LINE",
"541 880 LINE",
"474 880 LINE",
"307 742 LINE"
);
},
{
closed = 1;
nodes = (
"640 845 LINE",
"746 965 LINE",
"682 965 LINE",
"586 845 LINE"
);
}
);
width = 731;
}
);
leftKerningGroup = A;
note = Acircumflexacute;
rightKerningGroup = A;
unicode = 1EA4;
},
{
glyphname = Acircumflexdotbelow;
lastChange = "2015-10-28 08:12:39 +0000";
layers = (
{
layerId = "EA8340D9-3B60-45BA-AE27-149F2EF80A01";
name = "Light Italic";
paths = (
{
closed = 1;
nodes = (
"93 0 LINE",
"206 187 LINE",
"528 187 LINE",
"564 0 LINE",
"641 0 LINE",
"510 699 LINE",
"437 699 LINE",
"10 0 LINE"
);
},
{
closed = 1;
nodes = (
"320 -152 OFFCURVE",
"347 -130 OFFCURVE",
"353 -103 CURVE",
"358 -76 OFFCURVE",
"340 -54 OFFCURVE",
"315 -54 CURVE SMOOTH",
"288 -54 OFFCURVE",
"260 -76 OFFCURVE",
"255 -103 CURVE",
"249 -130 OFFCURVE",
"267 -152 OFFCURVE",
"294 -152 CURVE SMOOTH"
);
},
{
closed = 1;
nodes = (
"457 609 LINE",
"520 253 LINE",
"243 253 LINE"
);
},
{
closed = 1;
nodes = (
"394 742 LINE",
"510 856 LINE",
"578 742 LINE",
"653 742 LINE",
"550 903 LINE",
"483 903 LINE",
"313 742 LINE"
);
}
);
width = 731;
}
);
leftKerningGroup = A;
note = Acircumflexdotbelow;
rightKerningGroup = A;
unicode = 1EAC;
},
{
glyphname = Acircumflexgrave;
lastChange = "2015-10-28 08:12:41 +0000";
layers = (
{
layerId = "EA8340D9-3B60-45BA-AE27-149F2EF80A01";
name = "Light Italic";
paths = (
{
closed = 1;
nodes = (
"93 0 LINE",
"206 187 LINE",
"528 187 LINE",
"564 0 LINE",
"641 0 LINE",
"510 699 LINE",
"437 699 LINE",
"10 0 LINE"
);
},
{
closed = 1;
nodes = (
"457 609 LINE",
"520 253 LINE",
"243 253 LINE"
);
},
{
closed = 1;
nodes = (
"417 845 LINE",
"372 965 LINE",
"308 965 LINE",
"363 845 LINE"
);
},
{
closed = 1;
nodes = (
"389 742 LINE",
"502 837 LINE",
"573 742 LINE",
"651 742 LINE",
"545 880 LINE",
"478 880 LINE",
"311 742 LINE"
);
}
);
width = 731;
}
);
leftKerningGroup = A;
note = Acircumflexgrave;
rightKerningGroup = A;
unicode = 1EA6;
},
{
glyphname = Acircumflexhookabove;
lastChange = "2015-10-28 08:12:40 +0000";
layers = (
{
layerId = "EA8340D9-3B60-45BA-AE27-149F2EF80A01";
name = "Light Italic";
paths = (
{
closed = 1;
nodes = (
"93 0 LINE",
"206 187 LINE",
"528 187 LINE",
"564 0 LINE",
"641 0 LINE",
"510 699 LINE",
"437 699 LINE",
"10 0 LINE"
);
},
{
closed = 1;
nodes = (
"457 609 LINE",
"520 253 LINE",
"243 253 LINE"
);
},
{
closed = 1;
nodes = (
"391 742 LINE",
"504 837 LINE",
"575 742 LINE",
"653 742 LINE",
"547 880 LINE",
"480 880 LINE",
"313 742 LINE"
);
},
{
closed = 1;
nodes = (
"645 838 LINE",
"650 863 LINE",
"694 869 OFFCURVE",
"724 896 OFFCURVE",
"731 928 CURVE SMOOTH",
"739 968 OFFCURVE",
"716 994 OFFCURVE",
"661 994 CURVE SMOOTH",
"640 994 OFFCURVE",
"614 990 OFFCURVE",
"600 985 CURVE",
"592 949 LINE",
"603 954 OFFCURVE",
"622 957 OFFCURVE",
"638 957 CURVE SMOOTH",
"667 957 OFFCURVE",
"680 946 OFFCURVE",
"675 924 CURVE SMOOTH",
"670 900 OFFCURVE",
"648 888 OFFCURVE",
"606 888 CURVE",
"596 838 LINE"
);
}
);
width = 731;
}
);
leftKerningGroup = A;
note = Acircumflexhookabove;
rightKerningGroup = A;
unicode = 1EA8;
},
{
glyphname = Acircumflextilde;
lastChange = "2015-10-28 08:12:40 +0000";
layers = (
{
layerId = "EA8340D9-3B60-45BA-AE27-149F2EF80A01";
name = "Light Italic";
paths = (
{
closed = 1;
nodes = (
"93 0 LINE",
"206 187 LINE",
"528 187 LINE",
"564 0 LINE",
"641 0 LINE",
"510 699 LINE",
"437 699 LINE",
"10 0 LINE"
);
},
{
closed = 1;
nodes = (
"457 609 LINE",
"520 253 LINE",
"243 253 LINE"
);
},
{
closed = 1;
nodes = (
"390 742 LINE",
"503 837 LINE",
"574 742 LINE",
"652 742 LINE",
"546 880 LINE",
"479 880 LINE",
"312 742 LINE"
);
},
{
closed = 1;
nodes = (
"389 918 OFFCURVE",
"418 928 OFFCURVE",
"448 928 CURVE SMOOTH",
"504 928 OFFCURVE",
"534 885 OFFCURVE",
"598 885 CURVE SMOOTH",
"632 885 OFFCURVE",
"663 893 OFFCURVE",
"687 921 CURVE",
"700 982 LINE",
"669 947 OFFCURVE",
"639 936 OFFCURVE",
"609 936 CURVE SMOOTH",
"552 936 OFFCURVE",
"519 980 OFFCURVE",
"459 980 CURVE SMOOTH",
"425 980 OFFCURVE",
"393 971 OFFCURVE",
"368 943 CURVE",
"355 882 LINE"
);
}
);
width = 731;
}
);
leftKerningGroup = A;
note = Acircumflextilde;
rightKerningGroup = A;
unicode = 1EAA;
},
{
glyphname = Adieresis;
lastChange = "2015-10-28 08:12:39 +0000";
layers = (
{
layerId = "EA8340D9-3B60-45BA-AE27-149F2EF80A01";
name = "Light Italic";
paths = (
{
closed = 1;
nodes = (
"93 0 LINE",
"206 187 LINE",
"528 187 LINE",
"564 0 LINE",
"641 0 LINE",
"510 699 LINE",
"437 699 LINE",
"10 0 LINE"
);
},
{
closed = 1;
nodes = (
"457 609 LINE",
"520 253 LINE",
"243 253 LINE"
);
},
{
closed = 1;
nodes = (
"400 742 OFFCURVE",
"427 764 OFFCURVE",
"433 791 CURVE SMOOTH",
"439 818 OFFCURVE",
"420 840 OFFCURVE",
"394 840 CURVE SMOOTH",
"367 840 OFFCURVE",
"341 818 OFFCURVE",
"335 791 CURVE SMOOTH",
"329 764 OFFCURVE",
"348 742 OFFCURVE",
"374 742 CURVE SMOOTH"
);
},
{
closed = 1;
nodes = (
"617 742 OFFCURVE",
"644 764 OFFCURVE",
"650 791 CURVE SMOOTH",
"656 818 OFFCURVE",
"637 840 OFFCURVE",
"611 840 CURVE SMOOTH",
"584 840 OFFCURVE",
"557 818 OFFCURVE",
"551 791 CURVE SMOOTH",
"545 764 OFFCURVE",
"564 742 OFFCURVE",
"591 742 CURVE SMOOTH"
);
}
);
width = 731;
}
);
leftKerningGroup = A;
note = Adieresis;
rightKerningGroup = A;
unicode = 00C4;
},
{
glyphname = Adotbelow;
lastChange = "2015-10-28 08:12:40 +0000";
layers = (
{
layerId = "EA8340D9-3B60-45BA-AE27-149F2EF80A01";
name = "Light Italic";
paths = (
{
closed = 1;
nodes = (
"93 0 LINE",
"206 187 LINE",
"528 187 LINE",
"564 0 LINE",
"641 0 LINE",
"510 699 LINE",
"437 699 LINE",
"10 0 LINE"
);
},
{
closed = 1;
nodes = (
"320 -152 OFFCURVE",
"347 -130 OFFCURVE",
"353 -103 CURVE",
"358 -76 OFFCURVE",
"340 -54 OFFCURVE",
"315 -54 CURVE SMOOTH",
"288 -54 OFFCURVE",
"260 -76 OFFCURVE",
"255 -103 CURVE",
"249 -130 OFFCURVE",
"267 -152 OFFCURVE",
"294 -152 CURVE SMOOTH"
);
},
{
closed = 1;
nodes = (
"457 609 LINE",
"520 253 LINE",
"243 253 LINE"
);
}
);
width = 731;
}
);
leftKerningGroup = A;
note = Adotbelow;
rightKerningGroup = A;
unicode = 1EA0;
},
{
glyphname = Agrave;
lastChange = "2015-10-28 08:12:40 +0000";
layers = (
{
layerId = "EA8340D9-3B60-45BA-AE27-149F2EF80A01";
name = "Light Italic";
paths = (
{
closed = 1;
nodes = (
"93 0 LINE",
"206 187 LINE",
"528 187 LINE",
"564 0 LINE",
"641 0 LINE",
"510 699 LINE",
"437 699 LINE",
"10 0 LINE"
);
},
{
closed = 1;
nodes = (
"457 609 LINE",
"520 253 LINE",
"243 253 LINE"
);
},
{
closed = 1;
nodes = (
"514 742 LINE",
"482 912 LINE",
"401 912 LINE",
"445 742 LINE"
);
}
);
width = 731;
}
);
leftKerningGroup = A;
note = Agrave;
rightKerningGroup = A;
unicode = 00C0;
},
{
glyphname = Ahookabove;
lastChange = "2015-10-28 08:12:41 +0000";
layers = (
{
layerId = "EA8340D9-3B60-45BA-AE27-149F2EF80A01";
name = "Light Italic";
paths = (
{
closed = 1;
nodes = (
"93 0 LINE",
"206 187 LINE",
"528 187 LINE",
"564 0 LINE",
"641 0 LINE",
"510 699 LINE",
"437 699 LINE",
"10 0 LINE"
);
},
{
closed = 1;
nodes = (
"457 609 LINE",
"520 253 LINE",
"243 253 LINE"
);
},
{
closed = 1;
nodes = (
"516 742 LINE",
"523 777 LINE",
"587 783 OFFCURVE",
"627 823 OFFCURVE",
"637 871 CURVE SMOOTH",
"649 926 OFFCURVE",
"609 964 OFFCURVE",
"535 964 CURVE SMOOTH",
"507 964 OFFCURVE",
"475 959 OFFCURVE",
"457 953 CURVE",
"447 908 LINE",
"460 914 OFFCURVE",
"492 918 OFFCURVE",
"509 918 CURVE SMOOTH",
"556 918 OFFCURVE",
"576 903 OFFCURVE",
"569 868 CURVE SMOOTH",
"560 827 OFFCURVE",
"527 810 OFFCURVE",
"463 810 CURVE",
"449 742 LINE"
);
}
);
width = 731;
}
);
leftKerningGroup = A;
note = Ahookabove;
rightKerningGroup = A;
unicode = 1EA2;
},
{
glyphname = Amacron;
lastChange = "2015-10-28 08:12:39 +0000";
layers = (
{
layerId = "EA8340D9-3B60-45BA-AE27-149F2EF80A01";
name = "Light Italic";
paths = (
{
closed = 1;
nodes = (
"93 0 LINE",
"206 187 LINE",
"528 187 LINE",
"564 0 LINE",
"641 0 LINE",
"510 699 LINE",
"437 699 LINE",
"10 0 LINE"
);
},
{
closed = 1;
nodes = (
"457 609 LINE",
"520 253 LINE",
"243 253 LINE"
);
},
{
closed = 1;
nodes = (
"637 762 LINE",
"648 816 LINE",
"348 816 LINE",
"337 762 LINE"
);
}
);
width = 731;
}
);
leftKerningGroup = A;
note = Amacron;
rightKerningGroup = A;
unicode = 0100;
},
{
glyphname = Aogonek;
lastChange = "2015-10-28 08:12:41 +0000";
layers = (
{
layerId = "EA8340D9-3B60-45BA-AE27-149F2EF80A01";
name = "Light Italic";
paths = (
{
closed = 1;
nodes = (
"572 -210 OFFCURVE",
"597 -206 OFFCURVE",
"614 -199 CURVE",
"625 -149 LINE",
"611 -155 OFFCURVE",
"594 -159 OFFCURVE",
"576 -159 CURVE SMOOTH",
"544 -159 OFFCURVE",
"532 -145 OFFCURVE",
"539 -112 CURVE SMOOTH",
"548 -69 OFFCURVE",
"583 -34 OFFCURVE",
"641 0 CURVE",
"510 699 LINE",
"437 699 LINE",
"10 0 LINE",
"93 0 LINE",
"206 187 LINE",
"528 187 LINE",
"564 0 LINE",
"522 -27 OFFCURVE",
"479 -71 OFFCURVE",
"468 -123 CURVE SMOOTH",
"456 -182 OFFCURVE",
"494 -210 OFFCURVE",
"547 -210 CURVE SMOOTH"
);
},
{
closed = 1;
nodes = (
"457 609 LINE",
"520 253 LINE",
"243 253 LINE"
);
}
);
width = 731;
}
);
leftKerningGroup = A;
note = Aogonek;
rightKerningGroup = A;
unicode = 0104;
},
{
glyphname = Aring;
lastChange = "2015-10-28 08:12:40 +0000";
layers = (
{
layerId = "EA8340D9-3B60-45BA-AE27-149F2EF80A01";
name = "Light Italic";
paths = (
{
closed = 1;
nodes = (
"93 0 LINE",
"206 187 LINE",
"528 187 LINE",
"564 0 LINE",
"641 0 LINE",
"516 663 LINE",
"555 681 OFFCURVE",
"585 717 OFFCURVE",
"594 760 CURVE SMOOTH",
"606 819 OFFCURVE",
"568 868 OFFCURVE",
"509 868 CURVE SMOOTH",
"444 868 OFFCURVE",
"390 819 OFFCURVE",
"378 760 CURVE SMOOTH",
"369 718 OFFCURVE",
"385 682 OFFCURVE",
"416 664 CURVE",
"10 0 LINE"
);
},
{
closed = 1;
nodes = (
"457 609 LINE",
"520 253 LINE",
"243 253 LINE"
);
},
{
closed = 1;
nodes = (
"434 702 OFFCURVE",
"422 729 OFFCURVE",
"429 760 CURVE SMOOTH",
"435 791 OFFCURVE",
"466 817 OFFCURVE",
"498 817 CURVE SMOOTH",
"539 817 OFFCURVE",
"549 791 OFFCURVE",
"543 760 CURVE SMOOTH",
"536 729 OFFCURVE",
"505 702 OFFCURVE",
"474 702 CURVE SMOOTH"
);
}
);
width = 731;
}
);
leftKerningGroup = A;
note = Aring;
rightKerningGroup = A;
unicode = 00C5;
},
{
glyphname = Aringacute;
lastChange = "2015-10-28 08:12:40 +0000";
layers = (
{
layerId = "EA8340D9-3B60-45BA-AE27-149F2EF80A01";
name = "Light Italic";
paths = (
{
closed = 1;
nodes = (
"93 0 LINE",
"206 187 LINE",
"528 187 LINE",
"564 0 LINE",
"641 0 LINE",
"516 663 LINE",
"555 681 OFFCURVE",
"585 717 OFFCURVE",
"594 760 CURVE SMOOTH",
"606 819 OFFCURVE",
"568 868 OFFCURVE",
"509 868 CURVE SMOOTH",
"444 868 OFFCURVE",
"390 819 OFFCURVE",
"378 760 CURVE SMOOTH",
"369 718 OFFCURVE",
"385 682 OFFCURVE",
"416 664 CURVE",
"10 0 LINE"
);
},
{
closed = 1;
nodes = (
"457 609 LINE",
"520 253 LINE",
"243 253 LINE"
);
},
{
closed = 1;
nodes = (
"434 702 OFFCURVE",
"422 729 OFFCURVE",
"429 760 CURVE SMOOTH",
"435 791 OFFCURVE",
"466 817 OFFCURVE",
"498 817 CURVE SMOOTH",
"539 817 OFFCURVE",
"549 791 OFFCURVE",
"543 760 CURVE SMOOTH",
"536 729 OFFCURVE",
"505 702 OFFCURVE",
"474 702 CURVE SMOOTH"
);
},
{
closed = 1;
nodes = (
"576 906 LINE",
"692 1042 LINE",
"611 1042 LINE",
"507 906 LINE"
);
}
);
width = 731;
}
);
leftKerningGroup = A;
note = Aringacute;
rightKerningGroup = A;
unicode = 01FA;
},
{
glyphname = Atilde;
lastChange = "2015-10-28 08:12:39 +0000";
layers = (
{
layerId = "EA8340D9-3B60-45BA-AE27-149F2EF80A01";
name = "Light Italic";
paths = (
{
closed = 1;
nodes = (
"93 0 LINE",
"206 187 LINE",
"528 187 LINE",
"564 0 LINE",
"641 0 LINE",
"510 699 LINE",
"437 699 LINE",
"10 0 LINE"
);
},
{
closed = 1;
nodes = (
"457 609 LINE",
"520 253 LINE",
"243 253 LINE"
);
},
{
closed = 1;
nodes = (
"335 783 OFFCURVE",
"369 795 OFFCURVE",
"404 795 CURVE SMOOTH",
"468 795 OFFCURVE",
"501 745 OFFCURVE",
"574 745 CURVE SMOOTH",
"614 745 OFFCURVE",
"650 755 OFFCURVE",
"677 787 CURVE",
"692 856 LINE",
"657 816 OFFCURVE",
"622 804 OFFCURVE",
"586 804 CURVE SMOOTH",
"521 804 OFFCURVE",
"484 854 OFFCURVE",
"416 854 CURVE SMOOTH",
"377 854 OFFCURVE",
"340 843 OFFCURVE",
"312 811 CURVE",
"297 742 LINE"
);
}
);
width = 731;
}
);
leftKerningGroup = A;
note = Atilde;
rightKerningGroup = A;
unicode = 00C3;
},
{
glyphname = AE;
lastChange = "2015-10-28 08:12:41 +0000";
layers = (
{
layerId = "EA8340D9-3B60-45BA-AE27-149F2EF80A01";
name = "Light Italic";
paths = (
{
closed = 1;
nodes = (
"90 0 LINE",
"224 187 LINE",
"463 187 LINE",
"424 0 LINE",
"830 0 LINE",
"844 66 LINE",
"516 66 LINE",
"569 317 LINE",
"805 317 LINE",
"819 383 LINE",
"583 383 LINE",
"636 633 LINE",
"964 633 LINE",
"978 699 LINE",
"514 699 LINE",
"10 0 LINE"
);
},
{
closed = 1;
nodes = (
"545 633 LINE",
"558 633 LINE",
"477 253 LINE",
"272 253 LINE"
);
}
);
width = 920;
}
);
leftKerningGroup = A;
note = AE;
rightKerningGroup = E;
unicode = 00C6;
},
{
glyphname = AEacute;
lastChange = "2015-10-28 08:12:40 +0000";
layers = (
{
layerId = "EA8340D9-3B60-45BA-AE27-149F2EF80A01";
name = "Light Italic";
paths = (
{
closed = 1;
nodes = (
"90 0 LINE",
"224 187 LINE",
"463 187 LINE",
"424 0 LINE",
"830 0 LINE",
"844 66 LINE",
"516 66 LINE",
"569 317 LINE",
"805 317 LINE",
"819 383 LINE",
"583 383 LINE",
"636 633 LINE",
"964 633 LINE",
"978 699 LINE",
"514 699 LINE",
"10 0 LINE"
);
},
{
closed = 1;
nodes = (
"545 633 LINE",
"558 633 LINE",
"477 253 LINE",
"272 253 LINE"
);
},
{
closed = 1;
nodes = (
"718 742 LINE",
"834 912 LINE",
"753 912 LINE",
"649 742 LINE"
);
}
);
width = 920;
}
);
leftKerningGroup = A;
note = AEacute;
rightKerningGroup = E;
unicode = 01FC;
},
{
glyphname = B;
lastChange = "2015-10-28 08:12:40 +0000";
layers = (
{
layerId = "EA8340D9-3B60-45BA-AE27-149F2EF80A01";
name = "Light Italic";
paths = (
{
closed = 1;
nodes = (
"357 0 LINE SMOOTH",
"476 0 OFFCURVE",
"567 73 OFFCURVE",
"592 195 CURVE SMOOTH",
"610 284 OFFCURVE",
"580 337 OFFCURVE",
"512 356 CURVE",
"570 380 OFFCURVE",
"619 437 OFFCURVE",
"635 512 CURVE SMOOTH",
"661 635 OFFCURVE",
"601 699 OFFCURVE",
"488 699 CURVE SMOOTH",
"178 699 LINE",
"30 0 LINE"
);
},
{
closed = 1;
nodes = (
"177 325 LINE",
"398 325 LINE SMOOTH",
"494 325 OFFCURVE",
"535 292 OFFCURVE",
"514 197 CURVE SMOOTH",
"494 99 OFFCURVE",
"426 66 OFFCURVE",
"350 66 CURVE SMOOTH",
"122 66 LINE"
);
},
{
closed = 1;
nodes = (
"242 633 LINE",
"460 633 LINE SMOOTH",
"550 633 OFFCURVE",
"576 599 OFFCURVE",
"557 510 CURVE SMOOTH",
"540 432 OFFCURVE",
"491 391 OFFCURVE",
"417 391 CURVE SMOOTH",
"191 391 LINE"
);
}
);
width = 641;
}
);
note = B;
unicode = 0042;
},
{
glyphname = C;
lastChange = "2015-10-28 08:12:40 +0000";
layers = (
{
layerId = "EA8340D9-3B60-45BA-AE27-149F2EF80A01";
name = "Light Italic";
paths = (
{
closed = 1;
nodes = (
"473 -15 OFFCURVE",
"563 7 OFFCURVE",
"639 64 CURVE",
"655 141 LINE",
"574 78 OFFCURVE",
"491 55 OFFCURVE",
"394 55 CURVE SMOOTH",
"212 55 OFFCURVE",
"122 160 OFFCURVE",
"162 349 CURVE SMOOTH",
"200 530 OFFCURVE",
"340 643 OFFCURVE",
"519 643 CURVE SMOOTH",
"616 643 OFFCURVE",
"686 618 OFFCURVE",
"736 562 CURVE",
"752 638 LINE",
"699 689 OFFCURVE",
"624 714 OFFCURVE",
"528 714 CURVE SMOOTH",
"309 714 OFFCURVE",
"132 575 OFFCURVE",
"84 349 CURVE SMOOTH",
"37 128 OFFCURVE",
"173 -15 OFFCURVE",
"373 -15 CURVE SMOOTH"
);
}
);
width = 716;
}
);
leftKerningGroup = C;
note = C;
rightKerningGroup = C;
unicode = 0043;
},
{
glyphname = Cacute;
lastChange = "2015-10-28 08:12:41 +0000";
layers = (
{
layerId = "EA8340D9-3B60-45BA-AE27-149F2EF80A01";
name = "Light Italic";
paths = (
{
closed = 1;
nodes = (
"473 -15 OFFCURVE",
"563 7 OFFCURVE",
"639 64 CURVE",
"655 141 LINE",
"574 78 OFFCURVE",
"491 55 OFFCURVE",
"394 55 CURVE SMOOTH",
"212 55 OFFCURVE",
"122 160 OFFCURVE",
"162 349 CURVE SMOOTH",
"200 530 OFFCURVE",
"340 643 OFFCURVE",
"519 643 CURVE SMOOTH",
"616 643 OFFCURVE",
"686 618 OFFCURVE",
"736 562 CURVE",
"752 638 LINE",
"699 689 OFFCURVE",
"624 714 OFFCURVE",
"528 714 CURVE SMOOTH",
"309 714 OFFCURVE",
"132 575 OFFCURVE",
"84 349 CURVE SMOOTH",
"37 128 OFFCURVE",
"173 -15 OFFCURVE",
"373 -15 CURVE SMOOTH"
);
},
{
closed = 1;
nodes = (
"564 742 LINE",
"680 912 LINE",
"599 912 LINE",
"495 742 LINE"
);
}
);
width = 716;
}
);
leftKerningGroup = C;
note = Cacute;
rightKerningGroup = C;
unicode = 0106;
},
{
glyphname = Ccaron;
lastChange = "2015-10-28 08:12:39 +0000";
layers = (
{
layerId = "EA8340D9-3B60-45BA-AE27-149F2EF80A01";
name = "Light Italic";
paths = (
{
closed = 1;
nodes = (
"473 -15 OFFCURVE",
"563 7 OFFCURVE",
"639 64 CURVE",
"655 141 LINE",
"574 78 OFFCURVE",
"491 55 OFFCURVE",
"394 55 CURVE SMOOTH",
"212 55 OFFCURVE",
"122 160 OFFCURVE",
"162 349 CURVE SMOOTH",
"200 530 OFFCURVE",
"340 643 OFFCURVE",
"519 643 CURVE SMOOTH",
"616 643 OFFCURVE",
"686 618 OFFCURVE",
"736 562 CURVE",
"752 638 LINE",
"699 689 OFFCURVE",
"624 714 OFFCURVE",
"528 714 CURVE SMOOTH",
"309 714 OFFCURVE",
"132 575 OFFCURVE",
"84 349 CURVE SMOOTH",
"37 128 OFFCURVE",
"173 -15 OFFCURVE",
"373 -15 CURVE SMOOTH"
);
},
{
closed = 1;
nodes = (
"567 742 LINE",
"739 903 LINE",
"658 903 LINE",
"541 789 LINE",
"474 903 LINE",
"399 903 LINE",
"500 742 LINE"
);
}
);
width = 716;
}
);
leftKerningGroup = C;
note = Ccaron;
rightKerningGroup = C;
unicode = 010C;
},
{
glyphname = Ccedilla;
lastChange = "2015-10-28 08:12:41 +0000";
layers = (
{
layerId = "EA8340D9-3B60-45BA-AE27-149F2EF80A01";
name = "Light Italic";
paths = (
{
closed = 1;
nodes = (
"404 -248 OFFCURVE",
"450 -206 OFFCURVE",
"461 -152 CURVE SMOOTH",
"470 -106 OFFCURVE",
"450 -68 OFFCURVE",
"389 -60 CURVE",
"417 -13 LINE",
"499 -7 OFFCURVE",
"574 15 OFFCURVE",
"639 64 CURVE",
"655 141 LINE",
"574 78 OFFCURVE",
"491 55 OFFCURVE",
"394 55 CURVE SMOOTH",
"212 55 OFFCURVE",
"122 160 OFFCURVE",
"162 349 CURVE SMOOTH",
"200 530 OFFCURVE",
"340 643 OFFCURVE",
"519 643 CURVE SMOOTH",
"616 643 OFFCURVE",
"686 618 OFFCURVE",
"736 562 CURVE",
"752 638 LINE",
"699 689 OFFCURVE",
"624 714 OFFCURVE",
"528 714 CURVE SMOOTH",
"309 714 OFFCURVE",
"132 575 OFFCURVE",
"84 349 CURVE SMOOTH",
"39 138 OFFCURVE",
"161 -1 OFFCURVE",
"346 -14 CURVE",
"300 -93 LINE",
"377 -93 OFFCURVE",
"397 -113 OFFCURVE",
"390 -150 CURVE SMOOTH",
"383 -186 OFFCURVE",
"355 -200 OFFCURVE",
"312 -200 CURVE SMOOTH",
"293 -200 OFFCURVE",
"269 -196 OFFCURVE",
"257 -190 CURVE",
"247 -238 LINE",
"261 -244 OFFCURVE",
"290 -248 OFFCURVE",
"318 -248 CURVE SMOOTH"
);
}
);
width = 716;
}
);
leftKerningGroup = C;
note = Ccedilla;
rightKerningGroup = C;
unicode = 00C7;
},
{
glyphname = Ccircumflex;
lastChange = "2015-10-28 08:12:40 +0000";
layers = (
{
layerId = "EA8340D9-3B60-45BA-AE27-149F2EF80A01";
name = "Light Italic";
paths = (
{
closed = 1;
nodes = (
"473 -15 OFFCURVE",
"563 7 OFFCURVE",
"639 64 CURVE",
"655 141 LINE",
"574 78 OFFCURVE",
"491 55 OFFCURVE",
"394 55 CURVE SMOOTH",
"212 55 OFFCURVE",
"122 160 OFFCURVE",
"162 349 CURVE SMOOTH",
"200 530 OFFCURVE",
"340 643 OFFCURVE",
"519 643 CURVE SMOOTH",
"616 643 OFFCURVE",
"686 618 OFFCURVE",
"736 562 CURVE",
"752 638 LINE",
"699 689 OFFCURVE",
"624 714 OFFCURVE",
"528 714 CURVE SMOOTH",
"309 714 OFFCURVE",
"132 575 OFFCURVE",
"84 349 CURVE SMOOTH",
"37 128 OFFCURVE",
"173 -15 OFFCURVE",
"373 -15 CURVE SMOOTH"
);
},
{
closed = 1;
nodes = (
"437 742 LINE",
"553 856 LINE",
"621 742 LINE",
"696 742 LINE",
"593 903 LINE",
"526 903 LINE",
"356 742 LINE"
);
}
);
width = 716;
}
);
leftKerningGroup = C;
note = Ccircumflex;
rightKerningGroup = C;
unicode = 0108;
},
{
glyphname = Cdotaccent;
lastChange = "2015-10-28 08:12:40 +0000";
layers = (
{
layerId = "EA8340D9-3B60-45BA-AE27-149F2EF80A01";
name = "Light Italic";
paths = (
{
closed = 1;
nodes = (
"473 -15 OFFCURVE",
"563 7 OFFCURVE",
"639 64 CURVE",
"655 141 LINE",
"574 78 OFFCURVE",
"491 55 OFFCURVE",
"394 55 CURVE SMOOTH",
"212 55 OFFCURVE",
"122 160 OFFCURVE",
"162 349 CURVE SMOOTH",
"200 530 OFFCURVE",
"340 643 OFFCURVE",
"519 643 CURVE SMOOTH",
"616 643 OFFCURVE",
"686 618 OFFCURVE",
"736 562 CURVE",
"752 638 LINE",
"699 689 OFFCURVE",
"624 714 OFFCURVE",
"528 714 CURVE SMOOTH",
"309 714 OFFCURVE",
"132 575 OFFCURVE",
"84 349 CURVE SMOOTH",
"37 128 OFFCURVE",
"173 -15 OFFCURVE",
"373 -15 CURVE SMOOTH"
);
},
{
closed = 1;
nodes = (
"556 742 OFFCURVE",
"583 764 OFFCURVE",
"589 791 CURVE SMOOTH",
"595 818 OFFCURVE",
"576 840 OFFCURVE",
"550 840 CURVE SMOOTH",
"523 840 OFFCURVE",
"496 818 OFFCURVE",
"490 791 CURVE SMOOTH",
"484 764 OFFCURVE",
"503 742 OFFCURVE",
"530 742 CURVE SMOOTH"
);
}
);
width = 716;
}
);
leftKerningGroup = C;
note = Cdotaccent;
rightKerningGroup = C;
unicode = 010A;
},
{
glyphname = D;
lastChange = "2015-10-28 08:12:39 +0000";
layers = (
{
layerId = "EA8340D9-3B60-45BA-AE27-149F2EF80A01";
name = "Light Italic";
paths = (
{
closed = 1;
nodes = (
"230 0 LINE SMOOTH",
"478 0 OFFCURVE",
"635 116 OFFCURVE",
"686 353 CURVE SMOOTH",
"731 566 OFFCURVE",
"621 699 OFFCURVE",
"394 699 CURVE SMOOTH",
"178 699 LINE",
"30 0 LINE"
);
},
{
closed = 1;
nodes = (
"242 633 LINE",
"379 633 LINE SMOOTH",
"584 633 OFFCURVE",
"644 525 OFFCURVE",
"608 353 CURVE SMOOTH",
"568 168 OFFCURVE",
"454 66 OFFCURVE",
"239 66 CURVE SMOOTH",
"122 66 LINE"
);
}
);
width = 701;
}
);
note = D;
rightKerningGroup = D;
unicode = 0044;
},
{
glyphname = Eth;
lastChange = "2015-10-28 08:12:40 +0000";
layers = (
{
layerId = "EA8340D9-3B60-45BA-AE27-149F2EF80A01";
name = "Light Italic";
paths = (
{
closed = 1;
nodes = (
"259 0 LINE SMOOTH",
"517 0 OFFCURVE",
"664 116 OFFCURVE",
"715 353 CURVE SMOOTH",
"760 566 OFFCURVE",
"643 699 OFFCURVE",
"424 699 CURVE SMOOTH",
"207 699 LINE",
"139 379 LINE",
"70 379 LINE",
"57 319 LINE",
"126 319 LINE",
"59 0 LINE"
);
},
{
closed = 1;
nodes = (
"205 319 LINE",
"402 319 LINE",
"415 379 LINE",
"218 379 LINE",
"271 628 LINE",
"407 628 LINE SMOOTH",
"602 628 OFFCURVE",
"673 525 OFFCURVE",
"637 353 CURVE SMOOTH",
"597 168 OFFCURVE",
"475 71 OFFCURVE",
"270 71 CURVE SMOOTH",
"153 71 LINE"
);
}
);
width = 730;
}
);
note = Eth;
rightKerningGroup = D;
unicode = 00D0;
},
{
glyphname = Dcaron;
lastChange = "2015-10-28 08:12:39 +0000";
layers = (
{
layerId = "EA8340D9-3B60-45BA-AE27-149F2EF80A01";
name = "Light Italic";
paths = (
{
closed = 1;
nodes = (
"230 0 LINE SMOOTH",
"478 0 OFFCURVE",
"635 116 OFFCURVE",
"686 353 CURVE SMOOTH",
"731 566 OFFCURVE",
"621 699 OFFCURVE",
"394 699 CURVE SMOOTH",
"178 699 LINE",
"30 0 LINE"
);
},
{
closed = 1;
nodes = (
"242 633 LINE",
"379 633 LINE SMOOTH",
"584 633 OFFCURVE",
"644 525 OFFCURVE",
"608 353 CURVE SMOOTH",
"568 168 OFFCURVE",
"454 66 OFFCURVE",
"239 66 CURVE SMOOTH",
"122 66 LINE"
);
},
{
closed = 1;
nodes = (
"456 742 LINE",
"628 903 LINE",
"547 903 LINE",
"430 789 LINE",
"363 903 LINE",
"288 903 LINE",
"389 742 LINE"
);
}
);
width = 701;
}
);
note = Dcaron;
rightKerningGroup = D;
unicode = 010E;
},
{
glyphname = Dcroat;
lastChange = "2015-10-28 08:12:39 +0000";
layers = (
{
layerId = "EA8340D9-3B60-45BA-AE27-149F2EF80A01";
name = "Light Italic";
paths = (
{
closed = 1;
nodes = (
"259 0 LINE SMOOTH",
"513 0 OFFCURVE",
"664 116 OFFCURVE",
"715 353 CURVE SMOOTH",
"760 566 OFFCURVE",
"650 699 OFFCURVE",
"424 699 CURVE SMOOTH",
"207 699 LINE",
"139 379 LINE",
"70 379 LINE",
"57 319 LINE",
"126 319 LINE",
"59 0 LINE"
);
},
{
closed = 1;
nodes = (
"205 319 LINE",
"402 319 LINE",
"415 379 LINE",
"218 379 LINE",
"271 628 LINE",
"407 628 LINE SMOOTH",
"604 628 OFFCURVE",
"673 525 OFFCURVE",
"637 353 CURVE SMOOTH",
"597 168 OFFCURVE",
"475 71 OFFCURVE",
"270 71 CURVE SMOOTH",
"153 71 LINE"
);
}
);
width = 730;
}
);
note = Dcroat;
rightKerningGroup = D;
unicode = 0110;
},
{
glyphname = Ddotbelow;
lastChange = "2015-10-28 08:12:39 +0000";
layers = (
{
layerId = "EA8340D9-3B60-45BA-AE27-149F2EF80A01";
name = "Light Italic";
paths = (
{
closed = 1;
nodes = (
"230 0 LINE SMOOTH",
"478 0 OFFCURVE",
"635 116 OFFCURVE",
"686 353 CURVE SMOOTH",
"731 566 OFFCURVE",
"621 699 OFFCURVE",
"394 699 CURVE SMOOTH",
"178 699 LINE",
"30 0 LINE"
);
},
{
closed = 1;
nodes = (
"229 -152 OFFCURVE",
"256 -130 OFFCURVE",
"262 -103 CURVE",
"267 -76 OFFCURVE",
"249 -54 OFFCURVE",
"224 -54 CURVE SMOOTH",
"197 -54 OFFCURVE",
"169 -76 OFFCURVE",
"164 -103 CURVE",
"158 -130 OFFCURVE",
"176 -152 OFFCURVE",
"203 -152 CURVE SMOOTH"
);
},
{
closed = 1;
nodes = (
"242 633 LINE",
"379 633 LINE SMOOTH",
"584 633 OFFCURVE",
"644 525 OFFCURVE",
"608 353 CURVE SMOOTH",
"568 168 OFFCURVE",
"454 66 OFFCURVE",
"239 66 CURVE SMOOTH",
"122 66 LINE"
);
}
);
width = 701;
}
);
note = Ddotbelow;
rightKerningGroup = D;
unicode = 1E0C;
},
{
glyphname = Dlinebelow;
lastChange = "2015-10-28 08:12:41 +0000";
layers = (
{
layerId = "EA8340D9-3B60-45BA-AE27-149F2EF80A01";
name = "Light Italic";
paths = (
{
closed = 1;
nodes = (
"230 0 LINE SMOOTH",
"478 0 OFFCURVE",
"635 116 OFFCURVE",
"686 353 CURVE SMOOTH",
"731 566 OFFCURVE",
"621 699 OFFCURVE",
"394 699 CURVE SMOOTH",
"178 699 LINE",
"30 0 LINE"
);
},
{
closed = 1;
nodes = (
"358 -131 LINE",
"370 -74 LINE",
"66 -74 LINE",
"54 -131 LINE"
);
},
{
closed = 1;
nodes = (
"242 633 LINE",
"379 633 LINE SMOOTH",
"584 633 OFFCURVE",
"644 525 OFFCURVE",
"608 353 CURVE SMOOTH",
"568 168 OFFCURVE",
"454 66 OFFCURVE",
"239 66 CURVE SMOOTH",
"122 66 LINE"
);
}
);
width = 701;
}
);
note = Dlinebelow;
rightKerningGroup = D;
unicode = 1E0E;
},
{
glyphname = E;
lastChange = "2015-10-28 08:12:40 +0000";
layers = (
{
layerId = "EA8340D9-3B60-45BA-AE27-149F2EF80A01";
name = "Light Italic";
paths = (
{
closed = 1;
nodes = (
"480 0 LINE",
"494 66 LINE",
"122 66 LINE",
"175 317 LINE",
"454 317 LINE",
"468 383 LINE",
"189 383 LINE",
"242 633 LINE",
"614 633 LINE",
"628 699 LINE",
"178 699 LINE",
"30 0 LINE"
);
}
);
width = 570;
}
);
leftKerningGroup = E;
note = E;
rightKerningGroup = E;
unicode = 0045;
},
{
glyphname = Eacute;
lastChange = "2015-10-28 08:12:39 +0000";
layers = (
{
layerId = "EA8340D9-3B60-45BA-AE27-149F2EF80A01";
name = "Light Italic";
paths = (
{
closed = 1;
nodes = (
"480 0 LINE",
"494 66 LINE",
"122 66 LINE",
"175 317 LINE",
"454 317 LINE",
"468 383 LINE",
"189 383 LINE",
"242 633 LINE",
"614 633 LINE",
"628 699 LINE",
"178 699 LINE",
"30 0 LINE"
);
},
{
closed = 1;
nodes = (
"436 742 LINE",
"552 912 LINE",
"471 912 LINE",
"367 742 LINE"
);
}
);
width = 570;
}
);
leftKerningGroup = E;
note = Eacute;
rightKerningGroup = E;
unicode = 00C9;
},
{
glyphname = Ebreve;
lastChange = "2015-10-28 08:12:40 +0000";
layers = (
{
layerId = "EA8340D9-3B60-45BA-AE27-149F2EF80A01";
name = "Light Italic";
paths = (
{
closed = 1;
nodes = (
"480 0 LINE",
"494 66 LINE",
"122 66 LINE",
"175 317 LINE",
"454 317 LINE",
"468 383 LINE",
"189 383 LINE",
"242 633 LINE",
"614 633 LINE",
"628 699 LINE",
"178 699 LINE",
"30 0 LINE"
);
},
{
closed = 1;
nodes = (
"498 742 OFFCURVE",
"563 797 OFFCURVE",
"579 872 CURVE",
"517 872 LINE",
"508 826 OFFCURVE",
"471 796 OFFCURVE",
"421 796 CURVE SMOOTH",
"371 796 OFFCURVE",
"348 826 OFFCURVE",
"357 872 CURVE",
"300 872 LINE",
"285 797 OFFCURVE",
"327 742 OFFCURVE",
"413 742 CURVE SMOOTH"
);
}
);
width = 570;
}
);
leftKerningGroup = E;
note = Ebreve;
rightKerningGroup = E;
unicode = 0114;
},
{
glyphname = Ecaron;
lastChange = "2015-10-28 08:12:40 +0000";
layers = (
{
layerId = "EA8340D9-3B60-45BA-AE27-149F2EF80A01";
name = "Light Italic";
paths = (
{
closed = 1;
nodes = (
"480 0 LINE",
"494 66 LINE",
"122 66 LINE",
"175 317 LINE",
"454 317 LINE",
"468 383 LINE",
"189 383 LINE",
"242 633 LINE",
"614 633 LINE",
"628 699 LINE",
"178 699 LINE",
"30 0 LINE"
);
},
{
closed = 1;
nodes = (
"443 742 LINE",
"615 903 LINE",
"534 903 LINE",
"417 789 LINE",
"350 903 LINE",
"275 903 LINE",
"376 742 LINE"
);
}
);
width = 570;
}
);
leftKerningGroup = E;
note = Ecaron;
rightKerningGroup = E;
unicode = 011A;
},
{
glyphname = Ecircumflex;
lastChange = "2015-10-28 08:12:39 +0000";
layers = (
{
layerId = "EA8340D9-3B60-45BA-AE27-149F2EF80A01";
name = "Light Italic";
paths = (
{
closed = 1;
nodes = (
"480 0 LINE",
"494 66 LINE",
"122 66 LINE",
"175 317 LINE",
"454 317 LINE",
"468 383 LINE",
"189 383 LINE",
"242 633 LINE",
"614 633 LINE",
"628 699 LINE",
"178 699 LINE",
"30 0 LINE"
);
},
{
closed = 1;
nodes = (
"319 743 LINE",
"435 857 LINE",
"503 743 LINE",
"578 743 LINE",
"475 904 LINE",
"408 904 LINE",
"238 743 LINE"
);
}
);
width = 570;
}
);
leftKerningGroup = E;
note = Ecircumflex;
rightKerningGroup = E;
unicode = 00CA;
},
{
glyphname = Ecircumflexacute;
lastChange = "2015-10-28 08:12:39 +0000";
layers = (
{
layerId = "EA8340D9-3B60-45BA-AE27-149F2EF80A01";
name = "Light Italic";
paths = (
{
closed = 1;
nodes = (
"480 0 LINE",
"494 66 LINE",
"122 66 LINE",
"175 317 LINE",
"454 317 LINE",
"468 383 LINE",
"189 383 LINE",
"242 633 LINE",
"614 633 LINE",
"628 699 LINE",
"178 699 LINE",
"30 0 LINE"
);
},
{
closed = 1;
nodes = (
"299 742 LINE",
"412 837 LINE",
"483 742 LINE",
"560 742 LINE",
"454 880 LINE",
"387 880 LINE",
"220 742 LINE"
);
},
{
closed = 1;
nodes = (
"553 845 LINE",
"659 965 LINE",
"595 965 LINE",
"499 845 LINE"
);
}
);
width = 570;
}
);
leftKerningGroup = E;
note = Ecircumflexacute;
rightKerningGroup = E;
unicode = 1EBE;
},
{
glyphname = Ecircumflexdotbelow;
lastChange = "2015-10-28 08:12:39 +0000";
layers = (
{
layerId = "EA8340D9-3B60-45BA-AE27-149F2EF80A01";
name = "Light Italic";
paths = (
{
closed = 1;
nodes = (
"480 0 LINE",
"494 66 LINE",
"122 66 LINE",
"175 317 LINE",
"454 317 LINE",
"468 383 LINE",
"189 383 LINE",
"242 633 LINE",
"614 633 LINE",
"628 699 LINE",
"178 699 LINE",
"30 0 LINE"
);
},
{
closed = 1;
nodes = (
"231 -152 OFFCURVE",
"258 -130 OFFCURVE",
"264 -103 CURVE",
"269 -76 OFFCURVE",
"251 -54 OFFCURVE",
"226 -54 CURVE SMOOTH",
"199 -54 OFFCURVE",
"171 -76 OFFCURVE",
"166 -103 CURVE",
"160 -130 OFFCURVE",
"178 -152 OFFCURVE",
"205 -152 CURVE SMOOTH"
);
},
{
closed = 1;
nodes = (
"310 764 LINE",
"426 878 LINE",
"494 764 LINE",
"569 764 LINE",
"466 925 LINE",
"399 925 LINE",
"229 764 LINE"
);
}
);
width = 570;
}
);
leftKerningGroup = E;
note = Ecircumflexdotbelow;
rightKerningGroup = E;
unicode = 1EC6;
},
{
glyphname = Ecircumflexgrave;
lastChange = "2015-10-28 08:12:41 +0000";
layers = (
{
layerId = "EA8340D9-3B60-45BA-AE27-149F2EF80A01";
name = "Light Italic";
paths = (
{
closed = 1;
nodes = (
"519 0 LINE",
"533 66 LINE",
"161 66 LINE",
"214 317 LINE",
"493 317 LINE",
"507 383 LINE",
"228 383 LINE",
"281 633 LINE",
"653 633 LINE",
"667 699 LINE",
"217 699 LINE",
"69 0 LINE"
);
},
{
closed = 1;
nodes = (
"344 845 LINE",
"299 965 LINE",
"235 965 LINE",
"290 845 LINE"
);
},
{
closed = 1;
nodes = (
"316 742 LINE",
"429 837 LINE",
"500 742 LINE",
"578 742 LINE",
"472 880 LINE",
"405 880 LINE",
"238 742 LINE"
);
}
);
width = 609;
}
);
leftKerningGroup = E;
note = Ecircumflexgrave;
rightKerningGroup = E;
unicode = 1EC0;
},
{
glyphname = Ecircumflexhookabove;
lastChange = "2015-10-28 08:12:40 +0000";
layers = (
{
layerId = "EA8340D9-3B60-45BA-AE27-149F2EF80A01";
name = "Light Italic";
paths = (
{
closed = 1;
nodes = (
"480 0 LINE",
"494 66 LINE",
"122 66 LINE",
"175 317 LINE",
"454 317 LINE",
"468 383 LINE",
"189 383 LINE",
"242 633 LINE",
"614 633 LINE",
"628 699 LINE",
"178 699 LINE",
"30 0 LINE"
);
},
{
closed = 1;
nodes = (
"338 742 LINE",
"451 837 LINE",
"522 742 LINE",
"600 742 LINE",
"494 880 LINE",
"427 880 LINE",
"260 742 LINE"
);
},
{
closed = 1;
nodes = (
"592 838 LINE",
"597 863 LINE",
"641 869 OFFCURVE",
"671 896 OFFCURVE",
"678 928 CURVE SMOOTH",
"686 968 OFFCURVE",
"663 994 OFFCURVE",
"608 994 CURVE SMOOTH",
"587 994 OFFCURVE",
"561 990 OFFCURVE",
"547 985 CURVE",
"539 949 LINE",
"550 954 OFFCURVE",
"569 957 OFFCURVE",
"585 957 CURVE SMOOTH",
"614 957 OFFCURVE",
"627 946 OFFCURVE",
"622 924 CURVE SMOOTH",
"617 900 OFFCURVE",
"595 888 OFFCURVE",
"553 888 CURVE",
"543 838 LINE"
);
}
);
width = 572;
}
);
leftKerningGroup = E;
note = Ecircumflexhookabove;
rightKerningGroup = E;
unicode = 1EC2;
},
{
glyphname = Ecircumflextilde;
lastChange = "2015-10-28 08:12:39 +0000";
layers = (
{
layerId = "EA8340D9-3B60-45BA-AE27-149F2EF80A01";
name = "Light Italic";
paths = (
{
closed = 1;
nodes = (
"480 0 LINE",
"494 66 LINE",
"122 66 LINE",
"175 317 LINE",
"454 317 LINE",
"468 383 LINE",
"189 383 LINE",
"242 633 LINE",
"614 633 LINE",
"628 699 LINE",
"178 699 LINE",
"30 0 LINE"
);
},
{
closed = 1;
nodes = (
"340 742 LINE",
"453 837 LINE",
"524 742 LINE",
"602 742 LINE",
"496 880 LINE",
"429 880 LINE",
"262 742 LINE"
);
},
{
closed = 1;
nodes = (
"339 918 OFFCURVE",
"368 928 OFFCURVE",
"398 928 CURVE SMOOTH",
"454 928 OFFCURVE",
"484 885 OFFCURVE",
"548 885 CURVE SMOOTH",
"582 885 OFFCURVE",
"613 893 OFFCURVE",
"637 921 CURVE",
"650 982 LINE",
"619 947 OFFCURVE",
"589 936 OFFCURVE",
"559 936 CURVE SMOOTH",
"502 936 OFFCURVE",
"469 980 OFFCURVE",
"409 980 CURVE SMOOTH",
"375 980 OFFCURVE",
"343 971 OFFCURVE",
"318 943 CURVE",
"305 882 LINE"
);
}
);
width = 570;
}
);
leftKerningGroup = E;
note = Ecircumflextilde;
rightKerningGroup = E;
unicode = 1EC4;
},
{
glyphname = Edieresis;
lastChange = "2015-10-28 08:12:41 +0000";
layers = (
{
layerId = "EA8340D9-3B60-45BA-AE27-149F2EF80A01";
name = "Light Italic";
paths = (
{
closed = 1;
nodes = (
"480 0 LINE",
"494 66 LINE",
"122 66 LINE",
"175 317 LINE",
"454 317 LINE",
"468 383 LINE",
"189 383 LINE",
"242 633 LINE",
"614 633 LINE",
"628 699 LINE",
"178 699 LINE",
"30 0 LINE"
);
},
{
closed = 1;
nodes = (
"336 740 OFFCURVE",
"363 762 OFFCURVE",
"369 789 CURVE SMOOTH",
"375 816 OFFCURVE",
"356 838 OFFCURVE",
"330 838 CURVE SMOOTH",
"303 838 OFFCURVE",
"277 816 OFFCURVE",
"271 789 CURVE SMOOTH",
"265 762 OFFCURVE",
"284 740 OFFCURVE",
"310 740 CURVE SMOOTH"
);
},
{
closed = 1;
nodes = (
"553 740 OFFCURVE",
"580 762 OFFCURVE",
"586 789 CURVE SMOOTH",
"592 816 OFFCURVE",
"573 838 OFFCURVE",
"547 838 CURVE SMOOTH",
"520 838 OFFCURVE",
"493 816 OFFCURVE",
"487 789 CURVE SMOOTH",
"481 762 OFFCURVE",
"500 740 OFFCURVE",
"527 740 CURVE SMOOTH"
);
}
);
width = 570;
}
);
leftKerningGroup = E;
note = Edieresis;
rightKerningGroup = E;
unicode = 00CB;
},
{
glyphname = Edotaccent;
lastChange = "2015-10-28 08:12:39 +0000";
layers = (
{
layerId = "EA8340D9-3B60-45BA-AE27-149F2EF80A01";
name = "Light Italic";
paths = (
{
closed = 1;
nodes = (
"480 0 LINE",
"494 66 LINE",
"122 66 LINE",
"175 317 LINE",
"454 317 LINE",
"468 383 LINE",
"189 383 LINE",
"242 633 LINE",
"614 633 LINE",
"628 699 LINE",
"178 699 LINE",
"30 0 LINE"
);
},
{
closed = 1;
nodes = (
"433 740 OFFCURVE",
"460 762 OFFCURVE",
"466 789 CURVE SMOOTH",
"472 816 OFFCURVE",
"453 838 OFFCURVE",
"427 838 CURVE SMOOTH",
"400 838 OFFCURVE",
"373 816 OFFCURVE",
"367 789 CURVE SMOOTH",
"361 762 OFFCURVE",
"380 740 OFFCURVE",
"407 740 CURVE SMOOTH"
);
}
);
width = 570;
}
);
leftKerningGroup = E;
note = Edotaccent;
rightKerningGroup = E;
unicode = 0116;
},
{
glyphname = Edotbelow;
lastChange = "2015-10-28 08:12:40 +0000";
layers = (
{
layerId = "EA8340D9-3B60-45BA-AE27-149F2EF80A01";
name = "Light Italic";
paths = (
{
closed = 1;
nodes = (
"480 0 LINE",
"494 66 LINE",
"122 66 LINE",
"175 317 LINE",
"454 317 LINE",
"468 383 LINE",
"189 383 LINE",
"242 633 LINE",
"614 633 LINE",
"628 699 LINE",
"178 699 LINE",
"30 0 LINE"
);
},
{
closed = 1;
nodes = (
"233 -152 OFFCURVE",
"260 -130 OFFCURVE",
"266 -103 CURVE",
"271 -76 OFFCURVE",
"253 -54 OFFCURVE",
"228 -54 CURVE SMOOTH",
"201 -54 OFFCURVE",
"173 -76 OFFCURVE",
"168 -103 CURVE",
"162 -130 OFFCURVE",
"180 -152 OFFCURVE",
"207 -152 CURVE SMOOTH"
);
}
);
width = 570;
}
);
leftKerningGroup = E;
note = Edotbelow;
rightKerningGroup = E;
unicode = 1EB8;
},
{
glyphname = Egrave;
lastChange = "2015-10-28 08:12:39 +0000";
layers = (
{
layerId = "EA8340D9-3B60-45BA-AE27-149F2EF80A01";
name = "Light Italic";
paths = (
{
closed = 1;
nodes = (
"480 0 LINE",
"494 66 LINE",
"122 66 LINE",
"175 317 LINE",
"454 317 LINE",
"468 383 LINE",
"189 383 LINE",
"242 633 LINE",
"614 633 LINE",
"628 699 LINE",
"178 699 LINE",
"30 0 LINE"
);
},
{
closed = 1;
nodes = (
"464 742 LINE",
"432 912 LINE",
"351 912 LINE",
"395 742 LINE"
);
}
);
width = 570;
}
);
leftKerningGroup = E;
note = Egrave;
rightKerningGroup = E;
unicode = 00C8;
},
{
glyphname = Ehookabove;
lastChange = "2015-10-28 08:12:41 +0000";
layers = (
{
layerId = "EA8340D9-3B60-45BA-AE27-149F2EF80A01";
name = "Light Italic";
paths = (
{
closed = 1;
nodes = (
"480 0 LINE",
"494 66 LINE",
"122 66 LINE",
"175 317 LINE",
"454 317 LINE",
"468 383 LINE",
"189 383 LINE",
"242 633 LINE",
"614 633 LINE",
"628 699 LINE",
"178 699 LINE",
"30 0 LINE"
);
},
{
closed = 1;
nodes = (
"428 743 LINE",
"435 778 LINE",
"499 784 OFFCURVE",
"539 824 OFFCURVE",
"549 872 CURVE SMOOTH",
"561 927 OFFCURVE",
"521 965 OFFCURVE",
"447 965 CURVE SMOOTH",
"419 965 OFFCURVE",
"387 960 OFFCURVE",
"369 954 CURVE",
"359 909 LINE",
"372 915 OFFCURVE",
"404 919 OFFCURVE",
"421 919 CURVE SMOOTH",
"468 919 OFFCURVE",
"488 904 OFFCURVE",
"481 869 CURVE SMOOTH",
"472 828 OFFCURVE",
"439 811 OFFCURVE",
"375 811 CURVE",
"361 743 LINE"
);
}
);
width = 570;
}
);
leftKerningGroup = E;
note = Ehookabove;
rightKerningGroup = E;
unicode = 1EBA;
},
{
glyphname = Emacron;
lastChange = "2015-10-28 08:12:41 +0000";
layers = (
{
layerId = "EA8340D9-3B60-45BA-AE27-149F2EF80A01";
name = "Light Italic";
paths = (
{
closed = 1;
nodes = (
"480 0 LINE",
"494 66 LINE",
"122 66 LINE",
"175 317 LINE",
"454 317 LINE",
"468 383 LINE",
"189 383 LINE",
"242 633 LINE",
"614 633 LINE",
"628 699 LINE",
"178 699 LINE",
"30 0 LINE"
);
},
{
closed = 1;
nodes = (
"567 762 LINE",
"578 816 LINE",
"278 816 LINE",
"267 762 LINE"
);
}
);
width = 570;
}
);
leftKerningGroup = E;
note = Emacron;
rightKerningGroup = E;
unicode = 0112;
},
{
glyphname = Eogonek;
lastChange = "2015-10-28 08:12:41 +0000";
layers = (
{
layerId = "EA8340D9-3B60-45BA-AE27-149F2EF80A01";
name = "Light Italic";
paths = (
{
closed = 1;
nodes = (
"383 -210 OFFCURVE",
"408 -206 OFFCURVE",
"425 -199 CURVE",
"436 -149 LINE",
"422 -155 OFFCURVE",
"405 -159 OFFCURVE",
"387 -159 CURVE SMOOTH",
"355 -159 OFFCURVE",
"343 -145 OFFCURVE",
"350 -112 CURVE SMOOTH",
"359 -69 OFFCURVE",
"394 -34 OFFCURVE",
"452 0 CURVE",
"480 0 LINE",
"494 66 LINE",
"122 66 LINE",
"175 317 LINE",
"454 317 LINE",
"468 383 LINE",
"189 383 LINE",
"242 633 LINE",
"614 633 LINE",
"628 699 LINE",
"178 699 LINE",
"30 0 LINE",
"380 0 LINE",
"333 -27 OFFCURVE",
"290 -71 OFFCURVE",
"279 -123 CURVE SMOOTH",
"267 -182 OFFCURVE",
"305 -210 OFFCURVE",
"358 -210 CURVE SMOOTH"
);
}
);
width = 570;
}
);
leftKerningGroup = E;
note = Eogonek;
rightKerningGroup = E;
unicode = 0118;
},
{
glyphname = Etilde;
lastChange = "2015-10-28 08:12:39 +0000";
layers = (
{
layerId = "EA8340D9-3B60-45BA-AE27-149F2EF80A01";
name = "Light Italic";
paths = (
{
closed = 1;
nodes = (
"480 0 LINE",
"494 66 LINE",
"122 66 LINE",
"175 317 LINE",
"454 317 LINE",
"468 383 LINE",
"189 383 LINE",
"242 633 LINE",
"614 633 LINE",
"628 699 LINE",
"178 699 LINE",
"30 0 LINE"
);
},
{
closed = 1;
nodes = (
"259 811 OFFCURVE",
"293 823 OFFCURVE",
"328 823 CURVE SMOOTH",
"392 823 OFFCURVE",
"425 773 OFFCURVE",
"498 773 CURVE SMOOTH",
"538 773 OFFCURVE",
"574 783 OFFCURVE",
"601 815 CURVE",
"616 884 LINE",
"581 844 OFFCURVE",
"546 832 OFFCURVE",
"510 832 CURVE SMOOTH",
"445 832 OFFCURVE",
"408 882 OFFCURVE",
"340 882 CURVE SMOOTH",
"301 882 OFFCURVE",
"264 871 OFFCURVE",
"236 839 CURVE",
"221 770 LINE"
);
}
);
width = 570;
}
);
leftKerningGroup = E;
note = Etilde;
rightKerningGroup = E;
unicode = 1EBC;
},
{
glyphname = F;
lastChange = "2015-10-28 08:12:39 +0000";
layers = (
{
layerId = "EA8340D9-3B60-45BA-AE27-149F2EF80A01";
name = "Light Italic";
paths = (
{
closed = 1;
nodes = (
"108 0 LINE",
"175 317 LINE",
"454 317 LINE",
"468 383 LINE",
"189 383 LINE",
"242 633 LINE",
"614 633 LINE",
"628 699 LINE",
"178 699 LINE",
"30 0 LINE"
);
}
);
width = 550;
}
);
note = F;
unicode = 0046;
},
{
glyphname = G;
lastChange = "2015-10-28 08:12:41 +0000";
layers = (
{
layerId = "EA8340D9-3B60-45BA-AE27-149F2EF80A01";
name = "Light Italic";
paths = (
{
closed = 1;
nodes = (
"476 -15 OFFCURVE",
"564 8 OFFCURVE",
"643 64 CURVE",
"710 378 LINE",
"485 378 LINE",
"471 312 LINE",
"618 312 LINE",
"572 97 LINE",
"528 72 OFFCURVE",
"458 55 OFFCURVE",
"392 55 CURVE SMOOTH",
"208 55 OFFCURVE",
"123 167 OFFCURVE",
"162 349 CURVE SMOOTH",
"200 530 OFFCURVE",
"348 643 OFFCURVE",
"519 643 CURVE SMOOTH",
"610 643 OFFCURVE",
"686 618 OFFCURVE",
"736 562 CURVE",
"752 638 LINE",
"699 689 OFFCURVE",
"624 714 OFFCURVE",
"528 714 CURVE SMOOTH",
"308 714 OFFCURVE",
"131 570 OFFCURVE",
"84 349 CURVE SMOOTH",
"37 128 OFFCURVE",
"167 -15 OFFCURVE",
"373 -15 CURVE SMOOTH"
);
}
);
width = 720;
}
);
leftKerningGroup = C;
note = G;
unicode = 0047;
},
{
glyphname = Gbreve;
lastChange = "2015-10-28 08:12:39 +0000";
layers = (
{
layerId = "EA8340D9-3B60-45BA-AE27-149F2EF80A01";
name = "Light Italic";
paths = (
{
closed = 1;
nodes = (
"476 -15 OFFCURVE",
"564 8 OFFCURVE",
"643 64 CURVE",
"710 378 LINE",
"485 378 LINE",
"471 312 LINE",
"618 312 LINE",
"572 97 LINE",
"528 72 OFFCURVE",
"458 55 OFFCURVE",
"392 55 CURVE SMOOTH",
"208 55 OFFCURVE",
"123 167 OFFCURVE",
"162 349 CURVE SMOOTH",
"200 530 OFFCURVE",
"348 643 OFFCURVE",
"519 643 CURVE SMOOTH",
"610 643 OFFCURVE",
"686 618 OFFCURVE",
"736 562 CURVE",
"752 638 LINE",
"699 689 OFFCURVE",
"624 714 OFFCURVE",
"528 714 CURVE SMOOTH",
"308 714 OFFCURVE",
"131 570 OFFCURVE",
"84 349 CURVE SMOOTH",
"37 128 OFFCURVE",
"167 -15 OFFCURVE",
"373 -15 CURVE SMOOTH"
);
},
{
closed = 1;
nodes = (
"623 742 OFFCURVE",
"688 797 OFFCURVE",
"704 872 CURVE",
"642 872 LINE",
"633 826 OFFCURVE",
"596 796 OFFCURVE",
"546 796 CURVE SMOOTH",
"496 796 OFFCURVE",
"473 826 OFFCURVE",
"482 872 CURVE",
"425 872 LINE",
"410 797 OFFCURVE",
"452 742 OFFCURVE",
"538 742 CURVE SMOOTH"
);
}
);
width = 720;
}
);
leftKerningGroup = C;
note = Gbreve;
unicode = 011E;
},
{
glyphname = Gcaron;
lastChange = "2015-10-28 08:12:39 +0000";
layers = (
{
layerId = "EA8340D9-3B60-45BA-AE27-149F2EF80A01";
name = "Light Italic";
paths = (
{
closed = 1;
nodes = (
"476 -15 OFFCURVE",
"564 8 OFFCURVE",
"643 64 CURVE",
"710 378 LINE",
"485 378 LINE",
"471 312 LINE",
"618 312 LINE",
"572 97 LINE",
"528 72 OFFCURVE",
"458 55 OFFCURVE",
"392 55 CURVE SMOOTH",
"208 55 OFFCURVE",
"123 167 OFFCURVE",
"162 349 CURVE SMOOTH",
"200 530 OFFCURVE",
"348 643 OFFCURVE",
"519 643 CURVE SMOOTH",
"610 643 OFFCURVE",
"686 618 OFFCURVE",
"736 562 CURVE",
"752 638 LINE",
"699 689 OFFCURVE",
"624 714 OFFCURVE",
"528 714 CURVE SMOOTH",
"308 714 OFFCURVE",
"131 570 OFFCURVE",
"84 349 CURVE SMOOTH",
"37 128 OFFCURVE",
"167 -15 OFFCURVE",
"373 -15 CURVE SMOOTH"
);
},
{
closed = 1;
nodes = (
"544 742 LINE",
"716 903 LINE",
"635 903 LINE",
"518 789 LINE",
"451 903 LINE",
"376 903 LINE",
"477 742 LINE"
);
}
);
width = 720;
}
);
leftKerningGroup = C;
note = Gcaron;
unicode = 01E6;
},
{
glyphname = Gcircumflex;
lastChange = "2015-10-28 08:12:39 +0000";
layers = (
{
layerId = "EA8340D9-3B60-45BA-AE27-149F2EF80A01";
name = "Light Italic";
paths = (
{
closed = 1;
nodes = (
"476 -15 OFFCURVE",
"564 8 OFFCURVE",
"643 64 CURVE",
"710 378 LINE",
"485 378 LINE",
"471 312 LINE",
"618 312 LINE",
"572 97 LINE",
"528 72 OFFCURVE",
"458 55 OFFCURVE",
"392 55 CURVE SMOOTH",
"208 55 OFFCURVE",
"123 167 OFFCURVE",
"162 349 CURVE SMOOTH",
"200 530 OFFCURVE",
"348 643 OFFCURVE",
"519 643 CURVE SMOOTH",
"610 643 OFFCURVE",
"686 618 OFFCURVE",
"736 562 CURVE",
"752 638 LINE",
"699 689 OFFCURVE",
"624 714 OFFCURVE",
"528 714 CURVE SMOOTH",
"308 714 OFFCURVE",
"131 570 OFFCURVE",
"84 349 CURVE SMOOTH",
"37 128 OFFCURVE",
"167 -15 OFFCURVE",
"373 -15 CURVE SMOOTH"
);
},
{
closed = 1;
nodes = (
"440 742 LINE",
"556 856 LINE",
"624 742 LINE",
"699 742 LINE",
"596 903 LINE",
"529 903 LINE",
"359 742 LINE"
);
}
);
width = 720;
}
);
leftKerningGroup = C;
note = Gcircumflex;
unicode = 011C;
},
{
glyphname = Gcommaaccent;
lastChange = "2015-10-28 08:12:41 +0000";
layers = (
{
layerId = "EA8340D9-3B60-45BA-AE27-149F2EF80A01";
name = "Light Italic";
paths = (
{
closed = 1;
nodes = (
"476 -15 OFFCURVE",
"564 8 OFFCURVE",
"643 64 CURVE",
"710 378 LINE",
"485 378 LINE",
"471 312 LINE",
"618 312 LINE",
"572 97 LINE",
"528 72 OFFCURVE",
"458 55 OFFCURVE",
"392 55 CURVE SMOOTH",
"208 55 OFFCURVE",
"123 167 OFFCURVE",
"162 349 CURVE SMOOTH",
"200 530 OFFCURVE",
"348 643 OFFCURVE",
"519 643 CURVE SMOOTH",
"610 643 OFFCURVE",
"686 618 OFFCURVE",
"736 562 CURVE",
"752 638 LINE",
"699 689 OFFCURVE",
"624 714 OFFCURVE",
"528 714 CURVE SMOOTH",
"308 714 OFFCURVE",
"131 570 OFFCURVE",
"84 349 CURVE SMOOTH",
"37 128 OFFCURVE",
"167 -15 OFFCURVE",
"373 -15 CURVE SMOOTH"
);
},
{
closed = 1;
nodes = (
"268 -260 LINE",
"401 -63 LINE",
"320 -63 LINE",
"199 -260 LINE"
);
}
);
width = 720;
}
);
leftKerningGroup = C;
note = Gcommaaccent;
unicode = 0122;
},
{
glyphname = Gdotaccent;
lastChange = "2015-10-28 08:12:41 +0000";
layers = (
{
layerId = "EA8340D9-3B60-45BA-AE27-149F2EF80A01";
name = "Light Italic";
paths = (
{
closed = 1;
nodes = (
"476 -15 OFFCURVE",
"564 8 OFFCURVE",
"643 64 CURVE",
"710 378 LINE",
"485 378 LINE",
"471 312 LINE",
"618 312 LINE",
"572 97 LINE",
"528 72 OFFCURVE",
"458 55 OFFCURVE",
"392 55 CURVE SMOOTH",
"208 55 OFFCURVE",
"123 167 OFFCURVE",
"162 349 CURVE SMOOTH",
"200 530 OFFCURVE",
"348 643 OFFCURVE",
"519 643 CURVE SMOOTH",
"610 643 OFFCURVE",
"686 618 OFFCURVE",
"736 562 CURVE",
"752 638 LINE",
"699 689 OFFCURVE",
"624 714 OFFCURVE",
"528 714 CURVE SMOOTH",
"308 714 OFFCURVE",
"131 570 OFFCURVE",
"84 349 CURVE SMOOTH",
"37 128 OFFCURVE",
"167 -15 OFFCURVE",
"373 -15 CURVE SMOOTH"
);
},
{
closed = 1;
nodes = (
"558 742 OFFCURVE",
"585 764 OFFCURVE",
"591 791 CURVE SMOOTH",
"597 818 OFFCURVE",
"578 840 OFFCURVE",
"552 840 CURVE SMOOTH",
"525 840 OFFCURVE",
"498 818 OFFCURVE",
"492 791 CURVE SMOOTH",
"486 764 OFFCURVE",
"505 742 OFFCURVE",
"532 742 CURVE SMOOTH"
);
}
);
width = 720;
}
);
leftKerningGroup = C;
note = Gdotaccent;
unicode = 0120;
},
{
glyphname = Gmacron;
lastChange = "2015-10-28 08:12:39 +0000";
layers = (
{
layerId = "EA8340D9-3B60-45BA-AE27-149F2EF80A01";
name = "Light Italic";
paths = (
{
closed = 1;
nodes = (
"476 -15 OFFCURVE",
"564 8 OFFCURVE",
"643 64 CURVE",
"710 378 LINE",
"485 378 LINE",
"471 312 LINE",
"618 312 LINE",
"572 97 LINE",
"528 72 OFFCURVE",
"458 55 OFFCURVE",
"392 55 CURVE SMOOTH",
"208 55 OFFCURVE",
"123 167 OFFCURVE",
"162 349 CURVE SMOOTH",
"200 530 OFFCURVE",
"348 643 OFFCURVE",
"519 643 CURVE SMOOTH",
"610 643 OFFCURVE",
"686 618 OFFCURVE",
"736 562 CURVE",
"752 638 LINE",
"699 689 OFFCURVE",
"624 714 OFFCURVE",
"528 714 CURVE SMOOTH",
"308 714 OFFCURVE",
"131 570 OFFCURVE",
"84 349 CURVE SMOOTH",
"37 128 OFFCURVE",
"167 -15 OFFCURVE",
"373 -15 CURVE SMOOTH"
);
},
{
closed = 1;
nodes = (
"693 762 LINE",
"704 816 LINE",
"404 816 LINE",
"393 762 LINE"
);
}
);
width = 720;
}
);
leftKerningGroup = C;
note = Gmacron;
unicode = 1E20;
},
{
glyphname = H;
lastChange = "2015-10-28 08:12:41 +0000";
layers = (
{
layerId = "EA8340D9-3B60-45BA-AE27-149F2EF80A01";
name = "Light Italic";
paths = (
{
closed = 1;
nodes = (
"108 0 LINE",
"176 323 LINE",
"570 323 LINE",
"502 0 LINE",
"580 0 LINE",
"728 699 LINE",
"650 699 LINE",
"584 389 LINE",
"190 389 LINE",
"256 699 LINE",
"178 699 LINE",
"30 0 LINE"
);
}
);
width = 690;
}
);
note = H;
unicode = 0048;
},
{
glyphname = Hbar;
lastChange = "2015-10-28 08:12:41 +0000";
layers = (
{
layerId = "EA8340D9-3B60-45BA-AE27-149F2EF80A01";
name = "Light Italic";
paths = (
{
closed = 1;
nodes = (
"115 0 LINE",
"183 321 LINE",
"577 321 LINE",
"509 0 LINE",
"587 0 LINE",
"695 512 LINE",
"753 512 LINE",
"766 573 LINE",
"708 573 LINE",
"735 699 LINE",
"657 699 LINE",
"630 573 LINE",
"236 573 LINE",
"263 699 LINE",
"185 699 LINE",
"158 573 LINE",
"111 573 LINE",
"98 512 LINE",
"145 512 LINE",
"37 0 LINE"
);
},
{
closed = 1;
nodes = (
"223 512 LINE",
"617 512 LINE",
"592 392 LINE",
"198 392 LINE"
);
}
);
width = 715;
}
);
note = Hbar;
unicode = 0126;
},
{
glyphname = Hbrevebelow;
lastChange = "2015-10-28 08:12:40 +0000";
layers = (
{
layerId = "EA8340D9-3B60-45BA-AE27-149F2EF80A01";
name = "Light Italic";
paths = (
{
closed = 1;
nodes = (
"108 0 LINE",
"176 323 LINE",
"570 323 LINE",
"502 0 LINE",
"580 0 LINE",
"728 699 LINE",
"650 699 LINE",
"584 389 LINE",
"190 389 LINE",
"256 699 LINE",
"178 699 LINE",
"30 0 LINE"
);
},
{
closed = 1;
nodes = (
"355 -193 OFFCURVE",
"415 -138 OFFCURVE",
"431 -63 CURVE",
"369 -63 LINE",
"359 -109 OFFCURVE",
"323 -139 OFFCURVE",
"274 -139 CURVE SMOOTH",
"224 -139 OFFCURVE",
"200 -109 OFFCURVE",
"210 -63 CURVE",
"153 -63 LINE",
"137 -138 OFFCURVE",
"179 -193 OFFCURVE",
"265 -193 CURVE SMOOTH"
);
}
);
width = 690;
}
);
note = Hbrevebelow;
unicode = 1E2A;
},
{
glyphname = Hcircumflex;
lastChange = "2015-10-28 08:12:41 +0000";
layers = (
{
layerId = "EA8340D9-3B60-45BA-AE27-149F2EF80A01";
name = "Light Italic";
paths = (
{
closed = 1;
nodes = (
"108 0 LINE",
"176 323 LINE",
"570 323 LINE",
"502 0 LINE",
"580 0 LINE",
"728 699 LINE",
"650 699 LINE",
"584 389 LINE",
"190 389 LINE",
"256 699 LINE",
"178 699 LINE",
"30 0 LINE"
);
},
{
closed = 1;
nodes = (
"374 742 LINE",
"490 856 LINE",
"558 742 LINE",
"633 742 LINE",
"530 903 LINE",
"463 903 LINE",
"293 742 LINE"
);
}
);
width = 690;
}
);
note = Hcircumflex;
unicode = 0124;
},
{
glyphname = Hdotbelow;
lastChange = "2015-10-28 08:12:39 +0000";
layers = (
{
layerId = "EA8340D9-3B60-45BA-AE27-149F2EF80A01";
name = "Light Italic";
paths = (
{
closed = 1;
nodes = (
"108 0 LINE",
"176 323 LINE",
"570 323 LINE",
"502 0 LINE",
"580 0 LINE",
"728 699 LINE",
"650 699 LINE",
"584 389 LINE",
"190 389 LINE",
"256 699 LINE",
"178 699 LINE",
"30 0 LINE"
);
},
{
closed = 1;
nodes = (
"300 -152 OFFCURVE",
"327 -130 OFFCURVE",
"333 -103 CURVE",
"338 -76 OFFCURVE",
"320 -54 OFFCURVE",
"295 -54 CURVE SMOOTH",
"268 -54 OFFCURVE",
"240 -76 OFFCURVE",
"235 -103 CURVE",
"229 -130 OFFCURVE",
"247 -152 OFFCURVE",
"274 -152 CURVE SMOOTH"
);
}
);
width = 690;
}
);
note = Hdotbelow;
unicode = 1E24;
},
{
glyphname = I;
lastChange = "2015-10-28 08:12:41 +0000";
layers = (
{
layerId = "EA8340D9-3B60-45BA-AE27-149F2EF80A01";
name = "Light Italic";
paths = (
{
closed = 1;
nodes = (
"109 0 LINE",
"257 699 LINE",
"179 699 LINE",
"31 0 LINE"
);
}
);
width = 220;
}
);
note = I;
unicode = 0049;
},
{
glyphname = IJ;
lastChange = "2015-10-28 08:12:40 +0000";
layers = (
{
layerId = "EA8340D9-3B60-45BA-AE27-149F2EF80A01";
name = "Light Italic";
paths = (
{
closed = 1;
nodes = (
"426 -15 OFFCURVE",
"497 44 OFFCURVE",
"520 155 CURVE SMOOTH",
"636 699 LINE",
"558 699 LINE",
"444 161 LINE SMOOTH",
"428 88 OFFCURVE",
"390 55 OFFCURVE",
"314 55 CURVE SMOOTH",
"289 55 OFFCURVE",
"250 60 OFFCURVE",
"231 68 CURVE",
"217 0 LINE",
"237 -9 OFFCURVE",
"278 -15 OFFCURVE",
"313 -15 CURVE SMOOTH"
);
},
{
closed = 1;
nodes = (
"109 0 LINE",
"257 699 LINE",
"179 699 LINE",
"31 0 LINE"
);
}
);
width = 593;
}
);
note = IJ;
rightKerningGroup = J;
unicode = 0132;
},
{
glyphname = Iacute;
lastChange = "2015-10-28 08:12:41 +0000";
layers = (
{
layerId = "EA8340D9-3B60-45BA-AE27-149F2EF80A01";
name = "Light Italic";
paths = (
{
closed = 1;
nodes = (
"109 0 LINE",
"257 699 LINE",
"179 699 LINE",
"31 0 LINE"
);
},
{
closed = 1;
nodes = (
"263 742 LINE",
"379 912 LINE",
"298 912 LINE",
"194 742 LINE"
);
}
);
width = 220;
}
);
note = Iacute;
unicode = 00CD;
},
{
glyphname = Ibreve;
lastChange = "2015-10-28 08:12:39 +0000";
layers = (
{
layerId = "EA8340D9-3B60-45BA-AE27-149F2EF80A01";
name = "Light Italic";
paths = (
{
closed = 1;
nodes = (
"109 0 LINE",
"257 699 LINE",
"179 699 LINE",
"31 0 LINE"
);
},
{
closed = 1;
nodes = (
"312 742 OFFCURVE",
"377 797 OFFCURVE",
"393 872 CURVE",
"331 872 LINE",
"322 826 OFFCURVE",
"285 796 OFFCURVE",
"235 796 CURVE SMOOTH",
"185 796 OFFCURVE",
"162 826 OFFCURVE",
"171 872 CURVE",
"114 872 LINE",
"99 797 OFFCURVE",
"141 742 OFFCURVE",
"227 742 CURVE SMOOTH"
);
}
);
width = 220;
}
);
note = Ibreve;
unicode = 012C;
},
{
glyphname = Icaron;
lastChange = "2015-10-28 08:12:41 +0000";
layers = (
{
layerId = "EA8340D9-3B60-45BA-AE27-149F2EF80A01";
name = "Light Italic";
paths = (
{
closed = 1;
nodes = (
"109 0 LINE",
"257 699 LINE",
"179 699 LINE",
"31 0 LINE"
);
},
{
closed = 1;
nodes = (
"260 742 LINE",
"432 903 LINE",
"351 903 LINE",
"234 789 LINE",
"167 903 LINE",
"92 903 LINE",
"193 742 LINE"
);
}
);
width = 220;
}
);
note = Icaron;
unicode = 01CF;
},
{
glyphname = Icircumflex;
lastChange = "2015-10-28 08:12:41 +0000";
layers = (
{
layerId = "EA8340D9-3B60-45BA-AE27-149F2EF80A01";
name = "Light Italic";
paths = (
{
closed = 1;
nodes = (
"109 0 LINE",
"257 699 LINE",
"179 699 LINE",
"31 0 LINE"
);
},
{
closed = 1;
nodes = (
"138 742 LINE",
"254 856 LINE",
"322 742 LINE",
"397 742 LINE",
"294 903 LINE",
"227 903 LINE",
"57 742 LINE"
);
}
);
width = 220;
}
);
note = Icircumflex;
unicode = 00CE;
},
{
glyphname = Idieresis;
lastChange = "2015-10-28 08:12:40 +0000";
layers = (
{
layerId = "EA8340D9-3B60-45BA-AE27-149F2EF80A01";
name = "Light Italic";
paths = (
{
closed = 1;
nodes = (
"109 0 LINE",
"257 699 LINE",
"179 699 LINE",
"31 0 LINE"
);
},
{
closed = 1;
nodes = (
"144 742 OFFCURVE",
"171 764 OFFCURVE",
"177 791 CURVE SMOOTH",
"183 818 OFFCURVE",
"164 840 OFFCURVE",
"138 840 CURVE SMOOTH",
"111 840 OFFCURVE",
"85 818 OFFCURVE",
"79 791 CURVE SMOOTH",
"73 764 OFFCURVE",
"92 742 OFFCURVE",
"118 742 CURVE SMOOTH"
);
},
{
closed = 1;
nodes = (
"361 742 OFFCURVE",
"388 764 OFFCURVE",
"394 791 CURVE SMOOTH",
"400 818 OFFCURVE",
"381 840 OFFCURVE",
"355 840 CURVE SMOOTH",
"328 840 OFFCURVE",
"301 818 OFFCURVE",
"295 791 CURVE SMOOTH",
"289 764 OFFCURVE",
"308 742 OFFCURVE",
"335 742 CURVE SMOOTH"
);
}
);
width = 220;
}
);
note = Idieresis;
unicode = 00CF;
},
{
glyphname = Idotaccent;
lastChange = "2015-10-28 08:12:40 +0000";
layers = (
{
layerId = "EA8340D9-3B60-45BA-AE27-149F2EF80A01";
name = "Light Italic";
paths = (
{
closed = 1;
nodes = (
"109 0 LINE",
"257 699 LINE",
"179 699 LINE",
"31 0 LINE"
);
},
{
closed = 1;
nodes = (
"254 742 OFFCURVE",
"281 764 OFFCURVE",
"287 791 CURVE SMOOTH",
"293 818 OFFCURVE",
"274 840 OFFCURVE",
"248 840 CURVE SMOOTH",
"221 840 OFFCURVE",
"194 818 OFFCURVE",
"188 791 CURVE SMOOTH",
"182 764 OFFCURVE",
"201 742 OFFCURVE",
"228 742 CURVE SMOOTH"
);
}
);
width = 220;
}
);
note = Idotaccent;
unicode = 0130;
},
{
glyphname = Idotbelow;
lastChange = "2015-10-28 08:12:40 +0000";
layers = (
{
layerId = "EA8340D9-3B60-45BA-AE27-149F2EF80A01";
name = "Light Italic";
paths = (
{
closed = 1;
nodes = (
"109 0 LINE",
"257 699 LINE",
"179 699 LINE",
"31 0 LINE"
);
},
{
closed = 1;
nodes = (
"65 -152 OFFCURVE",
"92 -130 OFFCURVE",
"98 -103 CURVE",
"103 -76 OFFCURVE",
"85 -54 OFFCURVE",
"60 -54 CURVE SMOOTH",
"33 -54 OFFCURVE",
"5 -76 OFFCURVE",
"0 -103 CURVE",
"-6 -130 OFFCURVE",
"12 -152 OFFCURVE",
"39 -152 CURVE SMOOTH"
);
}
);
width = 220;
}
);
note = Idotbelow;
unicode = 1ECA;
},
{
glyphname = Igrave;
lastChange = "2015-10-28 08:12:40 +0000";
layers = (
{
layerId = "EA8340D9-3B60-45BA-AE27-149F2EF80A01";
name = "Light Italic";
paths = (
{
closed = 1;
nodes = (
"109 0 LINE",
"257 699 LINE",
"179 699 LINE",
"31 0 LINE"
);
},
{
closed = 1;
nodes = (
"263 742 LINE",
"231 912 LINE",
"150 912 LINE",
"194 742 LINE"
);
}
);
width = 220;
}
);
note = Igrave;
unicode = 00CC;
},
{
glyphname = Ihookabove;
lastChange = "2015-10-28 08:12:40 +0000";
layers = (
{
layerId = "EA8340D9-3B60-45BA-AE27-149F2EF80A01";
name = "Light Italic";
paths = (
{
closed = 1;
nodes = (
"109 0 LINE",
"257 699 LINE",
"179 699 LINE",
"31 0 LINE"
);
},
{
closed = 1;
nodes = (
"261 742 LINE",
"268 777 LINE",
"332 783 OFFCURVE",
"372 823 OFFCURVE",
"382 871 CURVE SMOOTH",
"394 926 OFFCURVE",
"354 964 OFFCURVE",
"280 964 CURVE SMOOTH",
"252 964 OFFCURVE",
"220 959 OFFCURVE",
"202 953 CURVE",
"192 908 LINE",
"205 914 OFFCURVE",
"237 918 OFFCURVE",
"254 918 CURVE SMOOTH",
"301 918 OFFCURVE",
"321 903 OFFCURVE",
"314 868 CURVE SMOOTH",
"305 827 OFFCURVE",
"272 810 OFFCURVE",
"208 810 CURVE",
"194 742 LINE"
);
}
);
width = 220;
}
);
note = Ihookabove;
unicode = 1EC8;
},
{
glyphname = Imacron;
lastChange = "2015-10-28 08:12:40 +0000";
layers = (
{
layerId = "EA8340D9-3B60-45BA-AE27-149F2EF80A01";
name = "Light Italic";
paths = (
{
closed = 1;
nodes = (
"109 0 LINE",
"257 699 LINE",
"179 699 LINE",
"31 0 LINE"
);
},
{
closed = 1;
nodes = (
"384 762 LINE",
"396 819 LINE",
"91 819 LINE",
"79 762 LINE"
);
}
);
width = 220;
}
);
note = Imacron;
unicode = 012A;
},
{
glyphname = Iogonek;
lastChange = "2015-10-28 08:12:40 +0000";
layers = (
{
layerId = "EA8340D9-3B60-45BA-AE27-149F2EF80A01";
name = "Light Italic";
paths = (
{
closed = 1;
nodes = (
"109 0 LINE",
"257 699 LINE",
"179 699 LINE",
"31 0 LINE"
);
},
{
closed = 1;
nodes = (
"38 -210 OFFCURVE",
"63 -206 OFFCURVE",
"80 -199 CURVE",
"91 -149 LINE",
"77 -155 OFFCURVE",
"60 -159 OFFCURVE",
"42 -159 CURVE SMOOTH",
"10 -159 OFFCURVE",
"-2 -145 OFFCURVE",
"5 -112 CURVE SMOOTH",
"14 -69 OFFCURVE",
"49 -34 OFFCURVE",
"107 0 CURVE",
"35 0 LINE",
"-12 -27 OFFCURVE",
"-55 -71 OFFCURVE",
"-66 -123 CURVE SMOOTH",
"-78 -182 OFFCURVE",
"-40 -210 OFFCURVE",
"13 -210 CURVE SMOOTH"
);
}
);
width = 220;
}
);
note = Iogonek;
unicode = 012E;
},
{
glyphname = Itilde;
lastChange = "2015-10-28 08:12:41 +0000";
layers = (
{
layerId = "EA8340D9-3B60-45BA-AE27-149F2EF80A01";
name = "Light Italic";
paths = (
{
closed = 1;
nodes = (
"109 0 LINE",
"257 699 LINE",
"179 699 LINE",
"31 0 LINE"
);
},
{
closed = 1;
nodes = (
"79 783 OFFCURVE",
"113 795 OFFCURVE",
"148 795 CURVE SMOOTH",
"212 795 OFFCURVE",
"245 745 OFFCURVE",
"318 745 CURVE SMOOTH",
"358 745 OFFCURVE",
"394 755 OFFCURVE",
"421 787 CURVE",
"436 856 LINE",
"401 816 OFFCURVE",
"366 804 OFFCURVE",
"330 804 CURVE SMOOTH",
"265 804 OFFCURVE",
"228 854 OFFCURVE",
"160 854 CURVE SMOOTH",
"121 854 OFFCURVE",
"84 843 OFFCURVE",
"56 811 CURVE",
"41 742 LINE"
);
}
);
width = 220;
}
);
note = Itilde;
unicode = 0128;
},
{
glyphname = J;
lastChange = "2015-10-28 08:12:40 +0000";
layers = (
{
layerId = "EA8340D9-3B60-45BA-AE27-149F2EF80A01";
name = "Light Italic";
paths = (
{
closed = 1;
nodes = (
"199 -15 OFFCURVE",
"270 44 OFFCURVE",
"293 155 CURVE SMOOTH",
"409 699 LINE",
"331 699 LINE",
"217 161 LINE SMOOTH",
"201 88 OFFCURVE",
"163 55 OFFCURVE",
"87 55 CURVE SMOOTH",
"62 55 OFFCURVE",
"23 60 OFFCURVE",
"4 68 CURVE",
"-10 0 LINE",
"10 -9 OFFCURVE",
"51 -15 OFFCURVE",
"86 -15 CURVE SMOOTH"
);
}
);
width = 366;
}
);
note = J;
rightKerningGroup = J;
unicode = 004A;
},
{
glyphname = Jcircumflex;
lastChange = "2015-10-28 08:12:41 +0000";
layers = (
{
layerId = "EA8340D9-3B60-45BA-AE27-149F2EF80A01";
name = "Light Italic";
paths = (
{
closed = 1;
nodes = (
"199 -15 OFFCURVE",
"270 44 OFFCURVE",
"293 155 CURVE SMOOTH",
"409 699 LINE",
"331 699 LINE",
"217 161 LINE SMOOTH",
"201 88 OFFCURVE",
"163 55 OFFCURVE",
"87 55 CURVE SMOOTH",
"62 55 OFFCURVE",
"23 60 OFFCURVE",
"4 68 CURVE",
"-10 0 LINE",
"10 -9 OFFCURVE",
"51 -15 OFFCURVE",
"86 -15 CURVE SMOOTH"
);
},
{
closed = 1;
nodes = (
"289 742 LINE",
"405 856 LINE",
"473 742 LINE",
"548 742 LINE",
"445 903 LINE",
"378 903 LINE",
"208 742 LINE"
);
}
);
width = 366;
}
);
note = Jcircumflex;
rightKerningGroup = J;
unicode = 0134;
},
{
glyphname = K;
lastChange = "2015-10-28 08:12:39 +0000";
layers = (
{
layerId = "EA8340D9-3B60-45BA-AE27-149F2EF80A01";
name = "Light Italic";
paths = (
{
closed = 1;
nodes = (
"579 0 LINE",
"306 350 LINE",
"712 699 LINE",
"616 699 LINE",
"216 355 LINE",
"489 0 LINE"
);
},
{
closed = 1;
nodes = (
"108 0 LINE",
"256 699 LINE",
"178 699 LINE",
"30 0 LINE"
);
}
);
width = 655;
}
);
leftKerningGroup = K;
note = K;
rightKerningGroup = K;
unicode = 004B;
},
{
glyphname = Kcommaaccent;
lastChange = "2015-10-28 08:12:40 +0000";
layers = (
{
layerId = "EA8340D9-3B60-45BA-AE27-149F2EF80A01";
name = "Light Italic";
paths = (
{
closed = 1;
nodes = (
"579 0 LINE",
"306 350 LINE",
"712 699 LINE",
"616 699 LINE",
"216 355 LINE",
"489 0 LINE"
);
},
{
closed = 1;
nodes = (
"155 -260 LINE",
"288 -63 LINE",
"207 -63 LINE",
"86 -260 LINE"
);
},
{
closed = 1;
nodes = (
"108 0 LINE",
"256 699 LINE",
"178 699 LINE",
"30 0 LINE"
);
}
);
width = 655;
}
);
leftKerningGroup = K;
note = Kcommaaccent;
rightKerningGroup = K;
unicode = 0136;
},
{
glyphname = L;
lastChange = "2015-10-28 08:12:40 +0000";
layers = (
{
layerId = "EA8340D9-3B60-45BA-AE27-149F2EF80A01";
name = "Light Italic";
paths = (
{
closed = 1;
nodes = (
"480 0 LINE",
"494 66 LINE",
"122 66 LINE",
"256 699 LINE",
"178 699 LINE",
"30 0 LINE"
);
}
);
width = 545;
}
);
note = L;
rightKerningGroup = L;
unicode = 004C;
},
{
glyphname = Lacute;
lastChange = "2015-10-28 08:12:41 +0000";
layers = (
{
layerId = "EA8340D9-3B60-45BA-AE27-149F2EF80A01";
name = "Light Italic";
paths = (
{
closed = 1;
nodes = (
"480 0 LINE",
"494 66 LINE",
"122 66 LINE",
"256 699 LINE",
"178 699 LINE",
"30 0 LINE"
);
},
{
closed = 1;
nodes = (
"265 761 LINE",
"381 931 LINE",
"300 931 LINE",
"196 761 LINE"
);
}
);
width = 545;
}
);
note = Lacute;
rightKerningGroup = L;
unicode = 0139;
},
{
glyphname = Lcaron;
lastChange = "2015-10-28 08:12:40 +0000";
layers = (
{
layerId = "EA8340D9-3B60-45BA-AE27-149F2EF80A01";
name = "Light Italic";
paths = (
{
closed = 1;
nodes = (
"480 0 LINE",
"494 66 LINE",
"122 66 LINE",
"256 699 LINE",
"178 699 LINE",
"30 0 LINE"
);
},
{
closed = 1;
nodes = (
"396 502 LINE",
"529 699 LINE",
"448 699 LINE",
"327 502 LINE"
);
}
);
width = 545;
}
);
note = Lcaron;
rightKerningGroup = L;
unicode = 013D;
},
{
glyphname = Lcommaaccent;
lastChange = "2015-10-28 08:12:39 +0000";
layers = (
{
layerId = "EA8340D9-3B60-45BA-AE27-149F2EF80A01";
name = "Light Italic";
paths = (
{
closed = 1;
nodes = (
"480 0 LINE",
"494 66 LINE",
"122 66 LINE",
"256 699 LINE",
"178 699 LINE",
"30 0 LINE"
);
},
{
closed = 1;
nodes = (
"151 -260 LINE",
"284 -63 LINE",
"203 -63 LINE",
"82 -260 LINE"
);
}
);
width = 545;
}
);
note = Lcommaaccent;
rightKerningGroup = L;
unicode = 013B;
},
{
glyphname = Ldot;
lastChange = "2015-10-28 08:12:41 +0000";
layers = (
{
layerId = "EA8340D9-3B60-45BA-AE27-149F2EF80A01";
name = "Light Italic";
paths = (
{
closed = 1;
nodes = (
"480 0 LINE",
"494 66 LINE",
"122 66 LINE",
"256 699 LINE",
"178 699 LINE",
"30 0 LINE"
);
},
{
closed = 1;
nodes = (
"404 330 OFFCURVE",
"431 352 OFFCURVE",
"437 379 CURVE SMOOTH",
"443 406 OFFCURVE",
"424 428 OFFCURVE",
"398 428 CURVE SMOOTH",
"371 428 OFFCURVE",
"344 406 OFFCURVE",
"338 379 CURVE SMOOTH",
"332 352 OFFCURVE",
"351 330 OFFCURVE",
"378 330 CURVE SMOOTH"
);
}
);
width = 545;
}
);
note = Ldot;
rightKerningGroup = L;
unicode = 013F;
},
{
glyphname = Ldotbelow;
lastChange = "2015-10-28 08:12:41 +0000";
layers = (
{
layerId = "EA8340D9-3B60-45BA-AE27-149F2EF80A01";
name = "Light Italic";
paths = (
{
closed = 1;
nodes = (
"480 0 LINE",
"494 66 LINE",
"122 66 LINE",
"256 699 LINE",
"178 699 LINE",
"30 0 LINE"
);
},
{
closed = 1;
nodes = (
"239 -152 OFFCURVE",
"266 -130 OFFCURVE",
"272 -103 CURVE",
"277 -76 OFFCURVE",
"259 -54 OFFCURVE",
"234 -54 CURVE SMOOTH",
"207 -54 OFFCURVE",
"179 -76 OFFCURVE",
"174 -103 CURVE",
"168 -130 OFFCURVE",
"186 -152 OFFCURVE",
"213 -152 CURVE SMOOTH"
);
}
);
width = 545;
}
);
note = Ldotbelow;
rightKerningGroup = L;
unicode = 1E36;
},
{
glyphname = Ldotbelowmacron;
lastChange = "2015-10-28 08:12:40 +0000";
layers = (
{
layerId = "EA8340D9-3B60-45BA-AE27-149F2EF80A01";
name = "Light Italic";
paths = (
{
closed = 1;
nodes = (
"480 0 LINE",
"494 66 LINE",
"122 66 LINE",
"256 699 LINE",
"178 699 LINE",
"30 0 LINE"
);
},
{
closed = 1;
nodes = (
"243 -152 OFFCURVE",
"270 -130 OFFCURVE",
"276 -103 CURVE",
"281 -76 OFFCURVE",
"263 -54 OFFCURVE",
"238 -54 CURVE SMOOTH",
"211 -54 OFFCURVE",
"183 -76 OFFCURVE",
"178 -103 CURVE",
"172 -130 OFFCURVE",
"190 -152 OFFCURVE",
"217 -152 CURVE SMOOTH"
);
},
{
closed = 1;
nodes = (
"498 784 LINE",
"509 838 LINE",
"209 838 LINE",
"198 784 LINE"
);
}
);
width = 545;
}
);
note = Ldotbelowmacron;
rightKerningGroup = L;
unicode = 1E38;
},
{
glyphname = Llinebelow;
lastChange = "2015-10-28 08:12:41 +0000";
layers = (
{
layerId = "EA8340D9-3B60-45BA-AE27-149F2EF80A01";
name = "Light Italic";
paths = (
{
closed = 1;
nodes = (
"480 0 LINE",
"494 66 LINE",
"122 66 LINE",
"256 699 LINE",
"178 699 LINE",
"30 0 LINE"
);
},
{
closed = 1;
nodes = (
"378 -131 LINE",
"390 -74 LINE",
"86 -74 LINE",
"74 -131 LINE"
);
}
);
width = 545;
}
);
note = Llinebelow;
rightKerningGroup = L;
unicode = 1E3A;
},
{
glyphname = Lslash;
lastChange = "2015-10-28 08:12:41 +0000";
layers = (
{
layerId = "EA8340D9-3B60-45BA-AE27-149F2EF80A01";
name = "Light Italic";
paths = (
{
closed = 1;
nodes = (
"540 0 LINE",
"554 66 LINE",
"182 66 LINE",
"241 346 LINE",
"425 421 LINE",
"440 492 LINE",
"256 417 LINE",
"316 699 LINE",
"238 699 LINE",
"171 382 LINE",
"50 333 LINE",
"35 262 LINE",
"156 311 LINE",
"90 0 LINE"
);
}
);
width = 600;
}
);
note = Lslash;
rightKerningGroup = L;
unicode = 0141;
},
{
glyphname = M;
lastChange = "2015-10-28 08:12:41 +0000";
layers = (
{
layerId = "EA8340D9-3B60-45BA-AE27-149F2EF80A01";
name = "Light Italic";
paths = (
{
closed = 1;
nodes = (
"107 0 LINE",
"221 540 LINE",
"354 0 LINE",
"394 0 LINE",
"755 540 LINE",
"641 0 LINE",
"718 0 LINE",
"866 699 LINE",
"783 699 LINE",
"396 122 LINE",
"255 699 LINE",
"178 699 LINE",
"30 0 LINE"
);
}
);
width = 828;
}
);
note = M;
unicode = 004D;
},
{
glyphname = Mdotbelow;
lastChange = "2015-10-28 08:12:40 +0000";
layers = (
{
layerId = "EA8340D9-3B60-45BA-AE27-149F2EF80A01";
name = "Light Italic";
paths = (
{
closed = 1;
nodes = (
"107 0 LINE",
"221 540 LINE",
"354 0 LINE",
"394 0 LINE",
"755 540 LINE",
"641 0 LINE",
"718 0 LINE",
"866 699 LINE",
"783 699 LINE",
"396 122 LINE",
"255 699 LINE",
"178 699 LINE",
"30 0 LINE"
);
},
{
closed = 1;
nodes = (
"369 -152 OFFCURVE",
"396 -130 OFFCURVE",
"402 -103 CURVE",
"407 -76 OFFCURVE",
"389 -54 OFFCURVE",
"364 -54 CURVE SMOOTH",
"337 -54 OFFCURVE",
"309 -76 OFFCURVE",
"304 -103 CURVE",
"298 -130 OFFCURVE",
"316 -152 OFFCURVE",
"343 -152 CURVE SMOOTH"
);
}
);
width = 828;
}
);
note = Mdotbelow;
unicode = 1E42;
},
{
glyphname = N;
lastChange = "2015-10-28 08:12:39 +0000";
layers = (
{
layerId = "EA8340D9-3B60-45BA-AE27-149F2EF80A01";
name = "Light Italic";
paths = (
{
closed = 1;
nodes = (
"108 0 LINE",
"228 567 LINE",
"493 0 LINE",
"568 0 LINE",
"716 699 LINE",
"638 699 LINE",
"518 133 LINE",
"253 699 LINE",
"178 699 LINE",
"30 0 LINE"
);
}
);
width = 678;
}
);
note = N;
unicode = 004E;
},
{
glyphname = Nacute;
lastChange = "2015-10-28 08:12:39 +0000";
layers = (
{
layerId = "EA8340D9-3B60-45BA-AE27-149F2EF80A01";
name = "Light Italic";
paths = (
{
closed = 1;
nodes = (
"108 0 LINE",
"228 567 LINE",
"493 0 LINE",
"568 0 LINE",
"716 699 LINE",
"638 699 LINE",
"518 133 LINE",
"253 699 LINE",
"178 699 LINE",
"30 0 LINE"
);
},
{
closed = 1;
nodes = (
"490 742 LINE",
"606 912 LINE",
"525 912 LINE",
"421 742 LINE"
);
}
);
width = 678;
}
);
note = Nacute;
unicode = 0143;
},
{
glyphname = Ncaron;
lastChange = "2015-10-28 08:12:41 +0000";
layers = (
{
layerId = "EA8340D9-3B60-45BA-AE27-149F2EF80A01";
name = "Light Italic";
paths = (
{
closed = 1;
nodes = (
"108 0 LINE",
"228 567 LINE",
"493 0 LINE",
"568 0 LINE",
"716 699 LINE",
"638 699 LINE",
"518 133 LINE",
"253 699 LINE",
"178 699 LINE",
"30 0 LINE"
);
},
{
closed = 1;
nodes = (
"493 742 LINE",
"665 903 LINE",
"584 903 LINE",
"467 789 LINE",
"400 903 LINE",
"325 903 LINE",
"426 742 LINE"
);
}
);
width = 678;
}
);
note = Ncaron;
unicode = 0147;
},
{
glyphname = Ncommaaccent;
lastChange = "2015-10-28 08:12:41 +0000";
layers = (
{
layerId = "EA8340D9-3B60-45BA-AE27-149F2EF80A01";
name = "Light Italic";
paths = (
{
closed = 1;
nodes = (
"108 0 LINE",
"228 567 LINE",
"493 0 LINE",
"568 0 LINE",
"716 699 LINE",
"638 699 LINE",
"518 133 LINE",
"253 699 LINE",
"178 699 LINE",
"30 0 LINE"
);
},
{
closed = 1;
nodes = (
"211 -260 LINE",
"344 -63 LINE",
"263 -63 LINE",
"142 -260 LINE"
);
}
);
width = 678;
}
);
note = Ncommaaccent;
unicode = 0145;
},
{
glyphname = Ndotaccent;
lastChange = "2015-10-28 08:12:40 +0000";
layers = (
{
layerId = "EA8340D9-3B60-45BA-AE27-149F2EF80A01";
name = "Light Italic";
paths = (
{
closed = 1;
nodes = (
"108 0 LINE",
"228 567 LINE",
"493 0 LINE",
"568 0 LINE",
"716 699 LINE",
"638 699 LINE",
"518 133 LINE",
"253 699 LINE",
"178 699 LINE",
"30 0 LINE"
);
},
{
closed = 1;
nodes = (
"493 742 OFFCURVE",
"520 764 OFFCURVE",
"526 791 CURVE SMOOTH",
"532 818 OFFCURVE",
"513 840 OFFCURVE",
"487 840 CURVE SMOOTH",
"460 840 OFFCURVE",
"433 818 OFFCURVE",
"427 791 CURVE SMOOTH",
"421 764 OFFCURVE",
"440 742 OFFCURVE",
"467 742 CURVE SMOOTH"
);
}
);
width = 678;
}
);
note = Ndotaccent;
unicode = 1E44;
},
{
glyphname = Ndotbelow;
lastChange = "2015-10-28 08:12:40 +0000";
layers = (
{
layerId = "EA8340D9-3B60-45BA-AE27-149F2EF80A01";
name = "Light Italic";
paths = (
{
closed = 1;
nodes = (
"108 0 LINE",
"228 567 LINE",
"493 0 LINE",
"568 0 LINE",
"716 699 LINE",
"638 699 LINE",
"518 133 LINE",
"253 699 LINE",
"178 699 LINE",
"30 0 LINE"
);
},
{
closed = 1;
nodes = (
"299 -152 OFFCURVE",
"326 -130 OFFCURVE",
"332 -103 CURVE",
"337 -76 OFFCURVE",
"319 -54 OFFCURVE",
"294 -54 CURVE SMOOTH",
"267 -54 OFFCURVE",
"239 -76 OFFCURVE",
"234 -103 CURVE",
"228 -130 OFFCURVE",
"246 -152 OFFCURVE",
"273 -152 CURVE SMOOTH"
);
}
);
width = 678;
}
);
note = Ndotbelow;
unicode = 1E46;
},
{
glyphname = Eng;
lastChange = "2015-10-28 08:12:40 +0000";
layers = (
{
layerId = "EA8340D9-3B60-45BA-AE27-149F2EF80A01";
name = "Light Italic";
paths = (
{
closed = 1;
nodes = (
"470 -231 OFFCURVE",
"529 -181 OFFCURVE",
"552 -73 CURVE SMOOTH",
"716 699 LINE",
"638 699 LINE",
"518 133 LINE",
"253 699 LINE",
"178 699 LINE",
"30 0 LINE",
"108 0 LINE",
"228 567 LINE",
"491 3 LINE",
"475 -73 LINE SMOOTH",
"461 -140 OFFCURVE",
"431 -170 OFFCURVE",
"366 -170 CURVE SMOOTH",
"346 -170 OFFCURVE",
"325 -165 OFFCURVE",
"311 -157 CURVE",
"297 -222 LINE",
"314 -228 OFFCURVE",
"335 -231 OFFCURVE",
"364 -231 CURVE SMOOTH"
);
}
);
width = 678;
}
);
note = Eng;
unicode = 014A;
},
{
glyphname = Nlinebelow;
lastChange = "2015-10-28 08:12:40 +0000";
layers = (
{
layerId = "EA8340D9-3B60-45BA-AE27-149F2EF80A01";
name = "Light Italic";
paths = (
{
closed = 1;
nodes = (
"108 0 LINE",
"228 567 LINE",
"493 0 LINE",
"568 0 LINE",
"716 699 LINE",
"638 699 LINE",
"518 133 LINE",
"253 699 LINE",
"178 699 LINE",
"30 0 LINE"
);
},
{
closed = 1;
nodes = (
"436 -131 LINE",
"448 -74 LINE",
"144 -74 LINE",
"132 -131 LINE"
);
}
);
width = 678;
}
);
note = Nlinebelow;
unicode = 1E48;
},
{
glyphname = Ntilde;
lastChange = "2015-10-28 08:12:41 +0000";
layers = (
{
layerId = "EA8340D9-3B60-45BA-AE27-149F2EF80A01";
name = "Light Italic";
paths = (
{
closed = 1;
nodes = (
"108 0 LINE",
"228 567 LINE",
"493 0 LINE",
"568 0 LINE",
"716 699 LINE",
"638 699 LINE",
"518 133 LINE",
"253 699 LINE",
"178 699 LINE",
"30 0 LINE"
);
},
{
closed = 1;
nodes = (
"324 783 OFFCURVE",
"358 795 OFFCURVE",
"393 795 CURVE SMOOTH",
"457 795 OFFCURVE",
"490 745 OFFCURVE",
"563 745 CURVE SMOOTH",
"603 745 OFFCURVE",
"639 755 OFFCURVE",
"666 787 CURVE",
"681 856 LINE",
"646 816 OFFCURVE",
"611 804 OFFCURVE",
"575 804 CURVE SMOOTH",
"510 804 OFFCURVE",
"473 854 OFFCURVE",
"405 854 CURVE SMOOTH",
"366 854 OFFCURVE",
"329 843 OFFCURVE",
"301 811 CURVE",
"286 742 LINE"
);
}
);
width = 678;
}
);
note = Ntilde;
unicode = 00D1;
},
{
glyphname = O;
lastChange = "2015-10-28 08:12:41 +0000";
layers = (
{
layerId = "EA8340D9-3B60-45BA-AE27-149F2EF80A01";
name = "Light Italic";
paths = (
{
closed = 1;
nodes = (
"587 -15 OFFCURVE",
"770 127 OFFCURVE",
"816 349 CURVE SMOOTH",
"861 568 OFFCURVE",
"734 714 OFFCURVE",
"527 714 CURVE SMOOTH",
"312 714 OFFCURVE",
"133 574 OFFCURVE",
"84 349 CURVE SMOOTH",
"37 131 OFFCURVE",
"166 -15 OFFCURVE",
"372 -15 CURVE SMOOTH"
);
},
{
closed = 1;
nodes = (
"205 55 OFFCURVE",
"123 167 OFFCURVE",
"162 349 CURVE SMOOTH",
"200 529 OFFCURVE",
"350 643 OFFCURVE",
"512 643 CURVE SMOOTH",
"694 643 OFFCURVE",
"776 529 OFFCURVE",
"738 349 CURVE SMOOTH",
"699 167 OFFCURVE",
"547 55 OFFCURVE",
"387 55 CURVE SMOOTH"
);
}
);
width = 832;
}
);
leftKerningGroup = O;
note = O;
rightKerningGroup = O;
unicode = 004F;
},
{
glyphname = Oacute;
lastChange = "2015-10-28 08:12:41 +0000";
layers = (
{
layerId = "EA8340D9-3B60-45BA-AE27-149F2EF80A01";
name = "Light Italic";
paths = (
{
closed = 1;
nodes = (
"587 -15 OFFCURVE",
"770 127 OFFCURVE",
"816 349 CURVE SMOOTH",
"861 568 OFFCURVE",
"734 714 OFFCURVE",
"527 714 CURVE SMOOTH",
"312 714 OFFCURVE",
"133 574 OFFCURVE",
"84 349 CURVE SMOOTH",
"37 131 OFFCURVE",
"166 -15 OFFCURVE",
"372 -15 CURVE SMOOTH"
);
},
{
closed = 1;
nodes = (
"205 55 OFFCURVE",
"123 167 OFFCURVE",
"162 349 CURVE SMOOTH",
"200 529 OFFCURVE",
"350 643 OFFCURVE",
"512 643 CURVE SMOOTH",
"694 643 OFFCURVE",
"776 529 OFFCURVE",
"738 349 CURVE SMOOTH",
"699 167 OFFCURVE",
"547 55 OFFCURVE",
"387 55 CURVE SMOOTH"
);
},
{
closed = 1;
nodes = (
"568 742 LINE",
"684 912 LINE",
"603 912 LINE",
"499 742 LINE"
);
}
);
width = 832;
}
);
leftKerningGroup = O;
note = Oacute;
rightKerningGroup = O;
unicode = 00D3;
},
{
glyphname = Obreve;
lastChange = "2015-10-28 08:12:40 +0000";
layers = (
{
layerId = "EA8340D9-3B60-45BA-AE27-149F2EF80A01";
name = "Light Italic";
paths = (
{
closed = 1;
nodes = (
"587 -15 OFFCURVE",
"770 127 OFFCURVE",
"816 349 CURVE SMOOTH",
"861 568 OFFCURVE",
"734 714 OFFCURVE",
"527 714 CURVE SMOOTH",
"312 714 OFFCURVE",
"133 574 OFFCURVE",
"84 349 CURVE SMOOTH",
"37 131 OFFCURVE",
"166 -15 OFFCURVE",
"372 -15 CURVE SMOOTH"
);
},
{
closed = 1;
nodes = (
"205 55 OFFCURVE",
"123 167 OFFCURVE",
"162 349 CURVE SMOOTH",
"200 529 OFFCURVE",
"350 643 OFFCURVE",
"512 643 CURVE SMOOTH",
"694 643 OFFCURVE",
"776 529 OFFCURVE",
"738 349 CURVE SMOOTH",
"699 167 OFFCURVE",
"547 55 OFFCURVE",
"387 55 CURVE SMOOTH"
);
},
{
closed = 1;
nodes = (
"619 742 OFFCURVE",
"684 797 OFFCURVE",
"700 872 CURVE",
"638 872 LINE",
"629 826 OFFCURVE",
"592 796 OFFCURVE",
"542 796 CURVE SMOOTH",
"492 796 OFFCURVE",
"469 826 OFFCURVE",
"478 872 CURVE",
"421 872 LINE",
"406 797 OFFCURVE",
"448 742 OFFCURVE",
"534 742 CURVE SMOOTH"
);
}
);
width = 832;
}
);
leftKerningGroup = O;
note = Obreve;
rightKerningGroup = O;
unicode = 014E;
},
{
glyphname = Ocaron;
lastChange = "2015-10-28 08:12:40 +0000";
layers = (
{
layerId = "EA8340D9-3B60-45BA-AE27-149F2EF80A01";
name = "Light Italic";
paths = (
{
closed = 1;
nodes = (
"587 -15 OFFCURVE",
"770 127 OFFCURVE",
"816 349 CURVE SMOOTH",
"861 568 OFFCURVE",
"734 714 OFFCURVE",
"527 714 CURVE SMOOTH",
"312 714 OFFCURVE",
"133 574 OFFCURVE",
"84 349 CURVE SMOOTH",
"37 131 OFFCURVE",
"166 -15 OFFCURVE",
"372 -15 CURVE SMOOTH"
);
},
{
closed = 1;
nodes = (
"205 55 OFFCURVE",
"123 167 OFFCURVE",
"162 349 CURVE SMOOTH",
"200 529 OFFCURVE",
"350 643 OFFCURVE",
"512 643 CURVE SMOOTH",
"694 643 OFFCURVE",
"776 529 OFFCURVE",
"738 349 CURVE SMOOTH",
"699 167 OFFCURVE",
"547 55 OFFCURVE",
"387 55 CURVE SMOOTH"
);
},
{
closed = 1;
nodes = (
"566 742 LINE",
"738 903 LINE",
"657 903 LINE",
"540 789 LINE",
"473 903 LINE",
"398 903 LINE",
"499 742 LINE"
);
}
);
width = 832;
}
);
leftKerningGroup = O;
note = Ocaron;
rightKerningGroup = O;
unicode = 01D1;
},
{
glyphname = Ocircumflex;
lastChange = "2015-10-28 08:12:40 +0000";
layers = (
{
layerId = "EA8340D9-3B60-45BA-AE27-149F2EF80A01";
name = "Light Italic";
paths = (
{
closed = 1;
nodes = (
"587 -15 OFFCURVE",
"770 127 OFFCURVE",
"816 349 CURVE SMOOTH",
"861 568 OFFCURVE",
"734 714 OFFCURVE",
"527 714 CURVE SMOOTH",
"312 714 OFFCURVE",
"133 574 OFFCURVE",
"84 349 CURVE SMOOTH",
"37 131 OFFCURVE",
"166 -15 OFFCURVE",
"372 -15 CURVE SMOOTH"
);
},
{
closed = 1;
nodes = (
"205 55 OFFCURVE",
"123 167 OFFCURVE",
"162 349 CURVE SMOOTH",
"200 529 OFFCURVE",
"350 643 OFFCURVE",
"512 643 CURVE SMOOTH",
"694 643 OFFCURVE",
"776 529 OFFCURVE",
"738 349 CURVE SMOOTH",
"699 167 OFFCURVE",
"547 55 OFFCURVE",
"387 55 CURVE SMOOTH"
);
},
{
closed = 1;
nodes = (
"445 742 LINE",
"561 856 LINE",
"629 742 LINE",
"704 742 LINE",
"601 903 LINE",
"534 903 LINE",
"364 742 LINE"
);
}
);
width = 832;
}
);
leftKerningGroup = O;
note = Ocircumflex;
rightKerningGroup = O;
unicode = 00D4;
},
{
glyphname = Ocircumflexacute;
lastChange = "2015-10-28 08:12:41 +0000";
layers = (
{
layerId = "EA8340D9-3B60-45BA-AE27-149F2EF80A01";
name = "Light Italic";
paths = (
{
closed = 1;
nodes = (
"587 -15 OFFCURVE",
"770 127 OFFCURVE",
"816 349 CURVE SMOOTH",
"861 568 OFFCURVE",
"734 714 OFFCURVE",
"527 714 CURVE SMOOTH",
"312 714 OFFCURVE",
"133 574 OFFCURVE",
"84 349 CURVE SMOOTH",
"37 131 OFFCURVE",
"166 -15 OFFCURVE",
"372 -15 CURVE SMOOTH"
);
},
{
closed = 1;
nodes = (
"205 55 OFFCURVE",
"123 167 OFFCURVE",
"162 349 CURVE SMOOTH",
"200 529 OFFCURVE",
"350 643 OFFCURVE",
"512 643 CURVE SMOOTH",
"694 643 OFFCURVE",
"776 529 OFFCURVE",
"738 349 CURVE SMOOTH",
"699 167 OFFCURVE",
"547 55 OFFCURVE",
"387 55 CURVE SMOOTH"
);
},
{
closed = 1;
nodes = (
"450 742 LINE",
"563 837 LINE",
"634 742 LINE",
"711 742 LINE",
"605 880 LINE",
"538 880 LINE",
"371 742 LINE"
);
},
{
closed = 1;
nodes = (
"704 845 LINE",
"810 965 LINE",
"746 965 LINE",
"650 845 LINE"
);
}
);
width = 832;
}
);
leftKerningGroup = O;
note = Ocircumflexacute;
rightKerningGroup = O;
unicode = 1ED0;
},
{
glyphname = Ocircumflexdotbelow;
lastChange = "2015-10-28 08:12:39 +0000";
layers = (
{
layerId = "EA8340D9-3B60-45BA-AE27-149F2EF80A01";
name = "Light Italic";
paths = (
{
closed = 1;
nodes = (
"587 -15 OFFCURVE",
"770 127 OFFCURVE",
"816 349 CURVE SMOOTH",
"861 568 OFFCURVE",
"734 714 OFFCURVE",
"527 714 CURVE SMOOTH",
"312 714 OFFCURVE",
"133 574 OFFCURVE",
"84 349 CURVE SMOOTH",
"37 131 OFFCURVE",
"166 -15 OFFCURVE",
"372 -15 CURVE SMOOTH"
);
},
{
closed = 1;
nodes = (
"371 -152 OFFCURVE",
"398 -130 OFFCURVE",
"404 -103 CURVE",
"409 -76 OFFCURVE",
"391 -54 OFFCURVE",
"366 -54 CURVE SMOOTH",
"339 -54 OFFCURVE",
"311 -76 OFFCURVE",
"306 -103 CURVE",
"300 -130 OFFCURVE",
"318 -152 OFFCURVE",
"345 -152 CURVE SMOOTH"
);
},
{
closed = 1;
nodes = (
"205 55 OFFCURVE",
"123 167 OFFCURVE",
"162 349 CURVE SMOOTH",
"200 529 OFFCURVE",
"350 643 OFFCURVE",
"512 643 CURVE SMOOTH",
"694 643 OFFCURVE",
"776 529 OFFCURVE",
"738 349 CURVE SMOOTH",
"699 167 OFFCURVE",
"547 55 OFFCURVE",
"387 55 CURVE SMOOTH"
);
},
{
closed = 1;
nodes = (
"444 742 LINE",
"560 856 LINE",
"628 742 LINE",
"703 742 LINE",
"600 903 LINE",
"533 903 LINE",
"363 742 LINE"
);
}
);
width = 832;
}
);
leftKerningGroup = O;
note = Ocircumflexdotbelow;
rightKerningGroup = O;
unicode = 1ED8;
},
{
glyphname = Ocircumflexgrave;
lastChange = "2015-10-28 08:12:39 +0000";
layers = (
{
layerId = "EA8340D9-3B60-45BA-AE27-149F2EF80A01";
name = "Light Italic";
paths = (
{
closed = 1;
nodes = (
"588 -15 OFFCURVE",
"771 127 OFFCURVE",
"817 349 CURVE SMOOTH",
"862 568 OFFCURVE",
"735 714 OFFCURVE",
"528 714 CURVE SMOOTH",
"313 714 OFFCURVE",
"134 574 OFFCURVE",
"85 349 CURVE SMOOTH",
"38 131 OFFCURVE",
"167 -15 OFFCURVE",
"373 -15 CURVE SMOOTH"
);
},
{
closed = 1;
nodes = (
"206 55 OFFCURVE",
"124 167 OFFCURVE",
"163 349 CURVE SMOOTH",
"201 529 OFFCURVE",
"351 643 OFFCURVE",
"513 643 CURVE SMOOTH",
"695 643 OFFCURVE",
"777 529 OFFCURVE",
"739 349 CURVE SMOOTH",
"700 167 OFFCURVE",
"548 55 OFFCURVE",
"388 55 CURVE SMOOTH"
);
},
{
closed = 1;
nodes = (
"453 845 LINE",
"408 965 LINE",
"344 965 LINE",
"399 845 LINE"
);
},
{
closed = 1;
nodes = (
"425 742 LINE",
"538 837 LINE",
"609 742 LINE",
"687 742 LINE",
"581 880 LINE",
"514 880 LINE",
"347 742 LINE"
);
}
);
width = 832;
}
);
leftKerningGroup = O;
note = Ocircumflexgrave;
rightKerningGroup = O;
unicode = 1ED2;
},
{
glyphname = Ocircumflexhookabove;
lastChange = "2015-10-28 08:12:40 +0000";
layers = (
{
layerId = "EA8340D9-3B60-45BA-AE27-149F2EF80A01";
name = "Light Italic";
paths = (
{
closed = 1;
nodes = (
"587 -15 OFFCURVE",
"770 127 OFFCURVE",
"816 349 CURVE SMOOTH",
"861 568 OFFCURVE",
"734 714 OFFCURVE",
"527 714 CURVE SMOOTH",
"312 714 OFFCURVE",
"133 574 OFFCURVE",
"84 349 CURVE SMOOTH",
"37 131 OFFCURVE",
"166 -15 OFFCURVE",
"372 -15 CURVE SMOOTH"
);
},
{
closed = 1;
nodes = (
"205 55 OFFCURVE",
"123 167 OFFCURVE",
"162 349 CURVE SMOOTH",
"200 529 OFFCURVE",
"350 643 OFFCURVE",
"512 643 CURVE SMOOTH",
"694 643 OFFCURVE",
"776 529 OFFCURVE",
"738 349 CURVE SMOOTH",
"699 167 OFFCURVE",
"547 55 OFFCURVE",
"387 55 CURVE SMOOTH"
);
},
{
closed = 1;
nodes = (
"437 742 LINE",
"550 837 LINE",
"621 742 LINE",
"699 742 LINE",
"593 880 LINE",
"526 880 LINE",
"359 742 LINE"
);
},
{
closed = 1;
nodes = (
"691 838 LINE",
"696 863 LINE",
"740 869 OFFCURVE",
"770 896 OFFCURVE",
"777 928 CURVE SMOOTH",
"785 968 OFFCURVE",
"762 994 OFFCURVE",
"707 994 CURVE SMOOTH",
"686 994 OFFCURVE",
"660 990 OFFCURVE",
"646 985 CURVE",
"638 949 LINE",
"649 954 OFFCURVE",
"668 957 OFFCURVE",
"684 957 CURVE SMOOTH",
"713 957 OFFCURVE",
"726 946 OFFCURVE",
"721 924 CURVE SMOOTH",
"716 900 OFFCURVE",
"694 888 OFFCURVE",
"652 888 CURVE",
"642 838 LINE"
);
}
);
width = 832;
}
);
leftKerningGroup = O;
note = Ocircumflexhookabove;
rightKerningGroup = O;
unicode = 1ED4;
},
{
glyphname = Ocircumflextilde;
lastChange = "2015-10-28 08:12:39 +0000";
layers = (
{
layerId = "EA8340D9-3B60-45BA-AE27-149F2EF80A01";
name = "Light Italic";
paths = (
{
closed = 1;
nodes = (
"587 -15 OFFCURVE",
"770 127 OFFCURVE",
"816 349 CURVE SMOOTH",
"861 568 OFFCURVE",
"734 714 OFFCURVE",
"527 714 CURVE SMOOTH",
"312 714 OFFCURVE",
"133 574 OFFCURVE",
"84 349 CURVE SMOOTH",
"37 131 OFFCURVE",
"166 -15 OFFCURVE",
"372 -15 CURVE SMOOTH"
);
},
{
closed = 1;
nodes = (
"205 55 OFFCURVE",
"123 167 OFFCURVE",
"162 349 CURVE SMOOTH",
"200 529 OFFCURVE",
"350 643 OFFCURVE",
"512 643 CURVE SMOOTH",
"694 643 OFFCURVE",
"776 529 OFFCURVE",
"738 349 CURVE SMOOTH",
"699 167 OFFCURVE",
"547 55 OFFCURVE",
"387 55 CURVE SMOOTH"
);
},
{
closed = 1;
nodes = (
"623 742 OFFCURVE",
"688 796 OFFCURVE",
"703 870 CURVE",
"647 870 LINE",
"637 824 OFFCURVE",
"601 794 OFFCURVE",
"551 794 CURVE SMOOTH",
"501 794 OFFCURVE",
"477 824 OFFCURVE",
"487 870 CURVE",
"430 870 LINE",
"414 796 OFFCURVE",
"455 742 OFFCURVE",
"539 742 CURVE SMOOTH"
);
},
{
closed = 1;
nodes = (
"436 922 OFFCURVE",
"465 932 OFFCURVE",
"495 932 CURVE SMOOTH",
"551 932 OFFCURVE",
"581 889 OFFCURVE",
"645 889 CURVE SMOOTH",
"680 889 OFFCURVE",
"710 897 OFFCURVE",
"734 925 CURVE",
"747 986 LINE",
"716 951 OFFCURVE",
"687 940 OFFCURVE",
"656 940 CURVE SMOOTH",
"599 940 OFFCURVE",
"566 984 OFFCURVE",
"506 984 CURVE SMOOTH",
"472 984 OFFCURVE",
"440 975 OFFCURVE",
"415 947 CURVE",
"402 886 LINE"
);
}
);
width = 832;
}
);
leftKerningGroup = O;
note = Ocircumflextilde;
rightKerningGroup = O;
unicode = 1ED6;
},
{
glyphname = Odieresis;
lastChange = "2015-10-28 08:12:41 +0000";
layers = (
{
layerId = "EA8340D9-3B60-45BA-AE27-149F2EF80A01";
name = "Light Italic";
paths = (
{
closed = 1;
nodes = (
"587 -15 OFFCURVE",
"770 127 OFFCURVE",
"816 349 CURVE SMOOTH",
"861 568 OFFCURVE",
"734 714 OFFCURVE",
"527 714 CURVE SMOOTH",
"312 714 OFFCURVE",
"133 574 OFFCURVE",
"84 349 CURVE SMOOTH",
"37 131 OFFCURVE",
"166 -15 OFFCURVE",
"372 -15 CURVE SMOOTH"
);
},
{
closed = 1;
nodes = (
"205 55 OFFCURVE",
"123 167 OFFCURVE",
"162 349 CURVE SMOOTH",
"200 529 OFFCURVE",
"350 643 OFFCURVE",
"512 643 CURVE SMOOTH",
"694 643 OFFCURVE",
"776 529 OFFCURVE",
"738 349 CURVE SMOOTH",
"699 167 OFFCURVE",
"547 55 OFFCURVE",
"387 55 CURVE SMOOTH"
);
},
{
closed = 1;
nodes = (
"451 742 OFFCURVE",
"478 764 OFFCURVE",
"484 791 CURVE SMOOTH",
"490 818 OFFCURVE",
"471 840 OFFCURVE",
"445 840 CURVE SMOOTH",
"418 840 OFFCURVE",
"392 818 OFFCURVE",
"386 791 CURVE SMOOTH",
"380 764 OFFCURVE",
"399 742 OFFCURVE",
"425 742 CURVE SMOOTH"
);
},
{
closed = 1;
nodes = (
"668 742 OFFCURVE",
"695 764 OFFCURVE",
"701 791 CURVE SMOOTH",
"707 818 OFFCURVE",
"688 840 OFFCURVE",
"662 840 CURVE SMOOTH",
"635 840 OFFCURVE",
"608 818 OFFCURVE",
"602 791 CURVE SMOOTH",
"596 764 OFFCURVE",
"615 742 OFFCURVE",
"642 742 CURVE SMOOTH"
);
}
);
width = 832;
}
);
leftKerningGroup = O;
note = Odieresis;
rightKerningGroup = O;
unicode = 00D6;
},
{
glyphname = Odotbelow;
lastChange = "2015-10-28 08:12:39 +0000";
layers = (
{
layerId = "EA8340D9-3B60-45BA-AE27-149F2EF80A01";
name = "Light Italic";
paths = (
{
closed = 1;
nodes = (
"587 -15 OFFCURVE",
"770 127 OFFCURVE",
"816 349 CURVE SMOOTH",
"861 568 OFFCURVE",
"734 714 OFFCURVE",
"527 714 CURVE SMOOTH",
"312 714 OFFCURVE",
"133 574 OFFCURVE",
"84 349 CURVE SMOOTH",
"37 131 OFFCURVE",
"166 -15 OFFCURVE",
"372 -15 CURVE SMOOTH"
);
},
{
closed = 1;
nodes = (
"371 -152 OFFCURVE",
"398 -130 OFFCURVE",
"404 -103 CURVE",
"409 -76 OFFCURVE",
"391 -54 OFFCURVE",
"366 -54 CURVE SMOOTH",
"339 -54 OFFCURVE",
"311 -76 OFFCURVE",
"306 -103 CURVE",
"300 -130 OFFCURVE",
"318 -152 OFFCURVE",
"345 -152 CURVE SMOOTH"
);
},
{
closed = 1;
nodes = (
"205 55 OFFCURVE",
"123 167 OFFCURVE",
"162 349 CURVE SMOOTH",
"200 529 OFFCURVE",
"350 643 OFFCURVE",
"512 643 CURVE SMOOTH",
"694 643 OFFCURVE",
"776 529 OFFCURVE",
"738 349 CURVE SMOOTH",
"699 167 OFFCURVE",
"547 55 OFFCURVE",
"387 55 CURVE SMOOTH"
);
}
);
width = 832;
}
);
leftKerningGroup = O;
note = Odotbelow;
rightKerningGroup = O;
unicode = 1ECC;
},
{
glyphname = Ograve;
lastChange = "2015-10-28 08:12:40 +0000";
layers = (
{
layerId = "EA8340D9-3B60-45BA-AE27-149F2EF80A01";
name = "Light Italic";
paths = (
{
closed = 1;
nodes = (
"587 -15 OFFCURVE",
"770 127 OFFCURVE",
"816 349 CURVE SMOOTH",
"861 568 OFFCURVE",
"734 714 OFFCURVE",
"527 714 CURVE SMOOTH",
"312 714 OFFCURVE",
"133 574 OFFCURVE",
"84 349 CURVE SMOOTH",
"37 131 OFFCURVE",
"166 -15 OFFCURVE",
"372 -15 CURVE SMOOTH"
);
},
{
closed = 1;
nodes = (
"205 55 OFFCURVE",
"123 167 OFFCURVE",
"162 349 CURVE SMOOTH",
"200 529 OFFCURVE",
"350 643 OFFCURVE",
"512 643 CURVE SMOOTH",
"694 643 OFFCURVE",
"776 529 OFFCURVE",
"738 349 CURVE SMOOTH",
"699 167 OFFCURVE",
"547 55 OFFCURVE",
"387 55 CURVE SMOOTH"
);
},
{
closed = 1;
nodes = (
"581 742 LINE",
"549 912 LINE",
"468 912 LINE",
"512 742 LINE"
);
}
);
width = 832;
}
);
leftKerningGroup = O;
note = Ograve;
rightKerningGroup = O;
unicode = 00D2;
},
{
glyphname = Ohookabove;
lastChange = "2015-10-28 08:12:40 +0000";
layers = (
{
layerId = "EA8340D9-3B60-45BA-AE27-149F2EF80A01";
name = "Light Italic";
paths = (
{
closed = 1;
nodes = (
"587 -15 OFFCURVE",
"770 127 OFFCURVE",
"816 349 CURVE SMOOTH",
"861 568 OFFCURVE",
"734 714 OFFCURVE",
"527 714 CURVE SMOOTH",
"312 714 OFFCURVE",
"133 574 OFFCURVE",
"84 349 CURVE SMOOTH",
"37 131 OFFCURVE",
"166 -15 OFFCURVE",
"372 -15 CURVE SMOOTH"
);
},
{
closed = 1;
nodes = (
"205 55 OFFCURVE",
"123 167 OFFCURVE",
"162 349 CURVE SMOOTH",
"200 529 OFFCURVE",
"350 643 OFFCURVE",
"512 643 CURVE SMOOTH",
"694 643 OFFCURVE",
"776 529 OFFCURVE",
"738 349 CURVE SMOOTH",
"699 167 OFFCURVE",
"547 55 OFFCURVE",
"387 55 CURVE SMOOTH"
);
},
{
closed = 1;
nodes = (
"569 742 LINE",
"576 777 LINE",
"640 783 OFFCURVE",
"680 823 OFFCURVE",
"690 871 CURVE SMOOTH",
"702 926 OFFCURVE",
"662 964 OFFCURVE",
"588 964 CURVE SMOOTH",
"560 964 OFFCURVE",
"528 959 OFFCURVE",
"510 953 CURVE",
"500 908 LINE",
"513 914 OFFCURVE",
"545 918 OFFCURVE",
"562 918 CURVE SMOOTH",
"609 918 OFFCURVE",
"629 903 OFFCURVE",
"622 868 CURVE SMOOTH",
"613 827 OFFCURVE",
"580 810 OFFCURVE",
"516 810 CURVE",
"502 742 LINE"
);
}
);
width = 832;
}
);
leftKerningGroup = O;
note = Ohookabove;
rightKerningGroup = O;
unicode = 1ECE;
},
{
glyphname = Ohorn;
lastChange = "2015-10-28 08:12:40 +0000";
layers = (
{
layerId = "EA8340D9-3B60-45BA-AE27-149F2EF80A01";
name = "Light Italic";
paths = (
{
closed = 1;
nodes = (
"600 -15 OFFCURVE",
"769 131 OFFCURVE",
"816 349 CURVE SMOOTH",
"834 433 OFFCURVE",
"825 507 OFFCURVE",
"797 566 CURVE",
"867 583 OFFCURVE",
"924 641 OFFCURVE",
"938 707 CURVE SMOOTH",
"946 747 LINE",
"875 747 LINE",
"868 711 LINE SMOOTH",
"856 655 OFFCURVE",
"819 624 OFFCURVE",
"758 623 CURVE",
"706 681 OFFCURVE",
"626 714 OFFCURVE",
"527 714 CURVE SMOOTH",
"301 714 OFFCURVE",
"130 568 OFFCURVE",
"84 349 CURVE SMOOTH",
"37 131 OFFCURVE",
"164 -15 OFFCURVE",
"372 -15 CURVE SMOOTH"
);
},
{
closed = 1;
nodes = (
"208 55 OFFCURVE",
"123 167 OFFCURVE",
"162 349 CURVE SMOOTH",
"200 529 OFFCURVE",
"350 643 OFFCURVE",
"512 643 CURVE SMOOTH",
"694 643 OFFCURVE",
"776 529 OFFCURVE",
"738 349 CURVE SMOOTH",
"699 167 OFFCURVE",
"547 55 OFFCURVE",
"387 55 CURVE SMOOTH"
);
}
);
width = 853;
}
);
leftKerningGroup = O;
note = Ohorn;
rightKerningGroup = O;
unicode = 01A0;
},
{
glyphname = Ohornacute;
lastChange = "2015-10-28 08:12:39 +0000";
layers = (
{
layerId = "EA8340D9-3B60-45BA-AE27-149F2EF80A01";
name = "Light Italic";
paths = (
{
closed = 1;
nodes = (
"600 -15 OFFCURVE",
"769 131 OFFCURVE",
"816 349 CURVE SMOOTH",
"834 433 OFFCURVE",
"825 507 OFFCURVE",
"797 566 CURVE",
"867 583 OFFCURVE",
"924 641 OFFCURVE",
"938 707 CURVE SMOOTH",
"946 747 LINE",
"875 747 LINE",
"868 711 LINE SMOOTH",
"856 655 OFFCURVE",
"819 624 OFFCURVE",
"758 623 CURVE",
"706 681 OFFCURVE",
"626 714 OFFCURVE",
"527 714 CURVE SMOOTH",
"301 714 OFFCURVE",
"130 568 OFFCURVE",
"84 349 CURVE SMOOTH",
"37 131 OFFCURVE",
"164 -15 OFFCURVE",
"372 -15 CURVE SMOOTH"
);
},
{
closed = 1;
nodes = (
"208 55 OFFCURVE",
"123 167 OFFCURVE",
"162 349 CURVE SMOOTH",
"200 529 OFFCURVE",
"350 643 OFFCURVE",
"512 643 CURVE SMOOTH",
"694 643 OFFCURVE",
"776 529 OFFCURVE",
"738 349 CURVE SMOOTH",
"699 167 OFFCURVE",
"547 55 OFFCURVE",
"387 55 CURVE SMOOTH"
);
},
{
closed = 1;
nodes = (
"574 742 LINE",
"690 912 LINE",
"609 912 LINE",
"505 742 LINE"
);
}
);
width = 853;
}
);
leftKerningGroup = O;
note = Ohornacute;
rightKerningGroup = O;
unicode = 1EDA;
},
{
glyphname = Ohorndotbelow;
lastChange = "2015-10-28 08:12:40 +0000";
layers = (
{
layerId = "EA8340D9-3B60-45BA-AE27-149F2EF80A01";
name = "Light Italic";
paths = (
{
closed = 1;
nodes = (
"600 -15 OFFCURVE",
"769 131 OFFCURVE",
"816 349 CURVE SMOOTH",
"834 433 OFFCURVE",
"825 507 OFFCURVE",
"797 566 CURVE",
"867 583 OFFCURVE",
"924 641 OFFCURVE",
"938 707 CURVE SMOOTH",
"946 747 LINE",
"875 747 LINE",
"868 711 LINE SMOOTH",
"856 655 OFFCURVE",
"819 624 OFFCURVE",
"758 623 CURVE",
"706 681 OFFCURVE",
"626 714 OFFCURVE",
"527 714 CURVE SMOOTH",
"301 714 OFFCURVE",
"130 568 OFFCURVE",
"84 349 CURVE SMOOTH",
"37 131 OFFCURVE",
"164 -15 OFFCURVE",
"372 -15 CURVE SMOOTH"
);
},
{
closed = 1;
nodes = (
"371 -152 OFFCURVE",
"398 -130 OFFCURVE",
"404 -103 CURVE",
"409 -76 OFFCURVE",
"391 -54 OFFCURVE",
"366 -54 CURVE SMOOTH",
"339 -54 OFFCURVE",
"311 -76 OFFCURVE",
"306 -103 CURVE",
"300 -130 OFFCURVE",
"318 -152 OFFCURVE",
"345 -152 CURVE SMOOTH"
);
},
{
closed = 1;
nodes = (
"208 55 OFFCURVE",
"123 167 OFFCURVE",
"162 349 CURVE SMOOTH",
"200 529 OFFCURVE",
"350 643 OFFCURVE",
"512 643 CURVE SMOOTH",
"694 643 OFFCURVE",
"776 529 OFFCURVE",
"738 349 CURVE SMOOTH",
"699 167 OFFCURVE",
"547 55 OFFCURVE",
"387 55 CURVE SMOOTH"
);
}
);
width = 853;
}
);
leftKerningGroup = O;
note = Ohorndotbelow;
rightKerningGroup = O;
unicode = 1EE2;
},
{
glyphname = Ohorngrave;
lastChange = "2015-10-28 08:12:39 +0000";
layers = (
{
layerId = "EA8340D9-3B60-45BA-AE27-149F2EF80A01";
name = "Light Italic";
paths = (
{
closed = 1;
nodes = (
"600 -15 OFFCURVE",
"769 131 OFFCURVE",
"816 349 CURVE SMOOTH",
"834 433 OFFCURVE",
"825 507 OFFCURVE",
"797 566 CURVE",
"867 583 OFFCURVE",
"924 641 OFFCURVE",
"938 707 CURVE SMOOTH",
"946 747 LINE",
"875 747 LINE",
"868 711 LINE SMOOTH",
"856 655 OFFCURVE",
"819 624 OFFCURVE",
"758 623 CURVE",
"706 681 OFFCURVE",
"626 714 OFFCURVE",
"527 714 CURVE SMOOTH",
"301 714 OFFCURVE",
"130 568 OFFCURVE",
"84 349 CURVE SMOOTH",
"37 131 OFFCURVE",
"164 -15 OFFCURVE",
"372 -15 CURVE SMOOTH"
);
},
{
closed = 1;
nodes = (
"208 55 OFFCURVE",
"123 167 OFFCURVE",
"162 349 CURVE SMOOTH",
"200 529 OFFCURVE",
"350 643 OFFCURVE",
"512 643 CURVE SMOOTH",
"694 643 OFFCURVE",
"776 529 OFFCURVE",
"738 349 CURVE SMOOTH",
"699 167 OFFCURVE",
"547 55 OFFCURVE",
"387 55 CURVE SMOOTH"
);
},
{
closed = 1;
nodes = (
"570 742 LINE",
"538 912 LINE",
"457 912 LINE",
"501 742 LINE"
);
}
);
width = 853;
}
);
leftKerningGroup = O;
note = Ohorngrave;
rightKerningGroup = O;
unicode = 1EDC;
},
{
glyphname = Ohornhookabove;
lastChange = "2015-10-28 08:12:40 +0000";
layers = (
{
layerId = "EA8340D9-3B60-45BA-AE27-149F2EF80A01";
name = "Light Italic";
paths = (
{
closed = 1;
nodes = (
"600 -15 OFFCURVE",
"769 131 OFFCURVE",
"816 349 CURVE SMOOTH",
"834 433 OFFCURVE",
"825 507 OFFCURVE",
"797 566 CURVE",
"867 583 OFFCURVE",
"924 641 OFFCURVE",
"938 707 CURVE SMOOTH",
"946 747 LINE",
"875 747 LINE",
"868 711 LINE SMOOTH",
"856 655 OFFCURVE",
"819 624 OFFCURVE",
"758 623 CURVE",
"706 681 OFFCURVE",
"626 714 OFFCURVE",
"527 714 CURVE SMOOTH",
"301 714 OFFCURVE",
"130 568 OFFCURVE",
"84 349 CURVE SMOOTH",
"37 131 OFFCURVE",
"164 -15 OFFCURVE",
"372 -15 CURVE SMOOTH"
);
},
{
closed = 1;
nodes = (
"208 55 OFFCURVE",
"123 167 OFFCURVE",
"162 349 CURVE SMOOTH",
"200 529 OFFCURVE",
"350 643 OFFCURVE",
"512 643 CURVE SMOOTH",
"694 643 OFFCURVE",
"776 529 OFFCURVE",
"738 349 CURVE SMOOTH",
"699 167 OFFCURVE",
"547 55 OFFCURVE",
"387 55 CURVE SMOOTH"
);
},
{
closed = 1;
nodes = (
"570 742 LINE",
"577 777 LINE",
"641 783 OFFCURVE",
"681 823 OFFCURVE",
"691 871 CURVE SMOOTH",
"703 926 OFFCURVE",
"663 964 OFFCURVE",
"589 964 CURVE SMOOTH",
"561 964 OFFCURVE",
"529 959 OFFCURVE",
"511 953 CURVE",
"501 908 LINE",
"514 914 OFFCURVE",
"546 918 OFFCURVE",
"563 918 CURVE SMOOTH",
"610 918 OFFCURVE",
"630 903 OFFCURVE",
"623 868 CURVE SMOOTH",
"614 827 OFFCURVE",
"581 810 OFFCURVE",
"517 810 CURVE",
"503 742 LINE"
);
}
);
width = 853;
}
);
leftKerningGroup = O;
note = Ohornhookabove;
rightKerningGroup = O;
unicode = 1EDE;
},
{
glyphname = Ohorntilde;
lastChange = "2015-10-28 08:12:39 +0000";
layers = (
{
layerId = "EA8340D9-3B60-45BA-AE27-149F2EF80A01";
name = "Light Italic";
paths = (
{
closed = 1;
nodes = (
"600 -15 OFFCURVE",
"769 131 OFFCURVE",
"816 349 CURVE SMOOTH",
"834 433 OFFCURVE",
"825 507 OFFCURVE",
"797 566 CURVE",
"867 583 OFFCURVE",
"924 641 OFFCURVE",
"938 707 CURVE SMOOTH",
"946 747 LINE",
"875 747 LINE",
"868 711 LINE SMOOTH",
"856 655 OFFCURVE",
"819 624 OFFCURVE",
"758 623 CURVE",
"706 681 OFFCURVE",
"626 714 OFFCURVE",
"527 714 CURVE SMOOTH",
"301 714 OFFCURVE",
"130 568 OFFCURVE",
"84 349 CURVE SMOOTH",
"37 131 OFFCURVE",
"164 -15 OFFCURVE",
"372 -15 CURVE SMOOTH"
);
},
{
closed = 1;
nodes = (
"208 55 OFFCURVE",
"123 167 OFFCURVE",
"162 349 CURVE SMOOTH",
"200 529 OFFCURVE",
"350 643 OFFCURVE",
"512 643 CURVE SMOOTH",
"694 643 OFFCURVE",
"776 529 OFFCURVE",
"738 349 CURVE SMOOTH",
"699 167 OFFCURVE",
"547 55 OFFCURVE",
"387 55 CURVE SMOOTH"
);
},
{
closed = 1;
nodes = (
"408 783 OFFCURVE",
"442 795 OFFCURVE",
"477 795 CURVE SMOOTH",
"541 795 OFFCURVE",
"574 745 OFFCURVE",
"647 745 CURVE SMOOTH",
"687 745 OFFCURVE",
"723 755 OFFCURVE",
"750 787 CURVE",
"765 856 LINE",
"730 816 OFFCURVE",
"695 804 OFFCURVE",
"659 804 CURVE SMOOTH",
"594 804 OFFCURVE",
"557 854 OFFCURVE",
"489 854 CURVE SMOOTH",
"450 854 OFFCURVE",
"413 843 OFFCURVE",
"385 811 CURVE",
"370 742 LINE"
);
}
);
width = 853;
}
);
leftKerningGroup = O;
note = Ohorntilde;
rightKerningGroup = O;
unicode = 1EE0;
},
{
glyphname = Ohungarumlaut;
lastChange = "2015-10-28 08:12:40 +0000";
layers = (
{
layerId = "EA8340D9-3B60-45BA-AE27-149F2EF80A01";
name = "Light Italic";
paths = (
{
closed = 1;
nodes = (
"587 -15 OFFCURVE",
"770 127 OFFCURVE",
"816 349 CURVE SMOOTH",
"861 568 OFFCURVE",
"734 714 OFFCURVE",
"527 714 CURVE SMOOTH",
"312 714 OFFCURVE",
"133 574 OFFCURVE",
"84 349 CURVE SMOOTH",
"37 131 OFFCURVE",
"166 -15 OFFCURVE",
"372 -15 CURVE SMOOTH"
);
},
{
closed = 1;
nodes = (
"205 55 OFFCURVE",
"123 167 OFFCURVE",
"162 349 CURVE SMOOTH",
"200 529 OFFCURVE",
"350 643 OFFCURVE",
"512 643 CURVE SMOOTH",
"694 643 OFFCURVE",
"776 529 OFFCURVE",
"738 349 CURVE SMOOTH",
"699 167 OFFCURVE",
"547 55 OFFCURVE",
"387 55 CURVE SMOOTH"
);
},
{
closed = 1;
nodes = (
"464 742 LINE",
"580 912 LINE",
"499 912 LINE",
"396 742 LINE"
);
},
{
closed = 1;
nodes = (
"654 742 LINE",
"770 912 LINE",
"689 912 LINE",
"585 742 LINE"
);
}
);
width = 832;
}
);
leftKerningGroup = O;
note = Ohungarumlaut;
rightKerningGroup = O;
unicode = 0150;
},
{
glyphname = Omacron;
lastChange = "2015-10-28 08:12:40 +0000";
layers = (
{
layerId = "EA8340D9-3B60-45BA-AE27-149F2EF80A01";
name = "Light Italic";
paths = (
{
closed = 1;
nodes = (
"587 -15 OFFCURVE",
"770 127 OFFCURVE",
"816 349 CURVE SMOOTH",
"861 568 OFFCURVE",
"734 714 OFFCURVE",
"527 714 CURVE SMOOTH",
"312 714 OFFCURVE",
"133 574 OFFCURVE",
"84 349 CURVE SMOOTH",
"37 131 OFFCURVE",
"166 -15 OFFCURVE",
"372 -15 CURVE SMOOTH"
);
},
{
closed = 1;
nodes = (
"205 55 OFFCURVE",
"123 167 OFFCURVE",
"162 349 CURVE SMOOTH",
"200 529 OFFCURVE",
"350 643 OFFCURVE",
"512 643 CURVE SMOOTH",
"694 643 OFFCURVE",
"776 529 OFFCURVE",
"738 349 CURVE SMOOTH",
"699 167 OFFCURVE",
"547 55 OFFCURVE",
"387 55 CURVE SMOOTH"
);
},
{
closed = 1;
nodes = (
"688 762 LINE",
"699 816 LINE",
"399 816 LINE",
"388 762 LINE"
);
}
);
width = 832;
}
);
leftKerningGroup = O;
note = Omacron;
rightKerningGroup = O;
unicode = 014C;
},
{
glyphname = Oslash;
lastChange = "2015-10-28 08:12:39 +0000";
layers = (
{
layerId = "EA8340D9-3B60-45BA-AE27-149F2EF80A01";
name = "Light Italic";
paths = (
{
closed = 1;
nodes = (
"224 -86 LINE",
"275 -2 LINE",
"305 -10 OFFCURVE",
"337 -15 OFFCURVE",
"372 -15 CURVE SMOOTH",
"593 -15 OFFCURVE",
"769 131 OFFCURVE",
"816 349 CURVE SMOOTH",
"847 500 OFFCURVE",
"793 616 OFFCURVE",
"691 673 CURVE",
"759 784 LINE",
"683 784 LINE",
"631 699 LINE",
"599 709 OFFCURVE",
"564 714 OFFCURVE",
"527 714 CURVE SMOOTH",
"302 714 OFFCURVE",
"130 568 OFFCURVE",
"84 349 CURVE SMOOTH",
"51 195 OFFCURVE",
"107 78 OFFCURVE",
"214 21 CURVE",
"148 -86 LINE"
);
},
{
closed = 1;
nodes = (
"166 125 OFFCURVE",
"134 216 OFFCURVE",
"162 349 CURVE SMOOTH",
"200 529 OFFCURVE",
"350 643 OFFCURVE",
"512 643 CURVE SMOOTH",
"541 643 OFFCURVE",
"567 640 OFFCURVE",
"591 635 CURVE",
"251 82 LINE"
);
},
{
closed = 1;
nodes = (
"361 55 OFFCURVE",
"337 57 OFFCURVE",
"315 61 CURVE",
"653 612 LINE",
"734 568 OFFCURVE",
"764 477 OFFCURVE",
"738 349 CURVE SMOOTH",
"701 167 OFFCURVE",
"547 55 OFFCURVE",
"387 55 CURVE SMOOTH"
);
}
);
width = 832;
}
);
leftKerningGroup = O;
note = Oslash;
rightKerningGroup = O;
unicode = 00D8;
},
{
glyphname = Oslashacute;
lastChange = "2015-10-28 08:12:41 +0000";
layers = (
{
layerId = "EA8340D9-3B60-45BA-AE27-149F2EF80A01";
name = "Light Italic";
paths = (
{
closed = 1;
nodes = (
"224 -86 LINE",
"275 -2 LINE",
"305 -10 OFFCURVE",
"337 -15 OFFCURVE",
"372 -15 CURVE SMOOTH",
"593 -15 OFFCURVE",
"769 131 OFFCURVE",
"816 349 CURVE SMOOTH",
"847 500 OFFCURVE",
"793 616 OFFCURVE",
"691 673 CURVE",
"759 784 LINE",
"683 784 LINE",
"631 699 LINE",
"599 709 OFFCURVE",
"564 714 OFFCURVE",
"527 714 CURVE SMOOTH",
"302 714 OFFCURVE",
"130 568 OFFCURVE",
"84 349 CURVE SMOOTH",
"51 195 OFFCURVE",
"107 78 OFFCURVE",
"214 21 CURVE",
"148 -86 LINE"
);
},
{
closed = 1;
nodes = (
"166 125 OFFCURVE",
"134 216 OFFCURVE",
"162 349 CURVE SMOOTH",
"200 529 OFFCURVE",
"350 643 OFFCURVE",
"512 643 CURVE SMOOTH",
"541 643 OFFCURVE",
"567 640 OFFCURVE",
"591 635 CURVE",
"251 82 LINE"
);
},
{
closed = 1;
nodes = (
"361 55 OFFCURVE",
"337 57 OFFCURVE",
"315 61 CURVE",
"653 612 LINE",
"734 568 OFFCURVE",
"764 477 OFFCURVE",
"738 349 CURVE SMOOTH",
"701 167 OFFCURVE",
"547 55 OFFCURVE",
"387 55 CURVE SMOOTH"
);
},
{
closed = 1;
nodes = (
"572 755 LINE",
"688 925 LINE",
"607 925 LINE",
"503 755 LINE"
);
}
);
width = 832;
}
);
leftKerningGroup = O;
note = Oslashacute;
rightKerningGroup = O;
unicode = 01FE;
},
{
glyphname = Otilde;
lastChange = "2015-10-28 08:12:41 +0000";
layers = (
{
layerId = "EA8340D9-3B60-45BA-AE27-149F2EF80A01";
name = "Light Italic";
paths = (
{
closed = 1;
nodes = (
"587 -15 OFFCURVE",
"770 127 OFFCURVE",
"816 349 CURVE SMOOTH",
"861 568 OFFCURVE",
"734 714 OFFCURVE",
"527 714 CURVE SMOOTH",
"312 714 OFFCURVE",
"133 574 OFFCURVE",
"84 349 CURVE SMOOTH",
"37 131 OFFCURVE",
"166 -15 OFFCURVE",
"372 -15 CURVE SMOOTH"
);
},
{
closed = 1;
nodes = (
"205 55 OFFCURVE",
"123 167 OFFCURVE",
"162 349 CURVE SMOOTH",
"200 529 OFFCURVE",
"350 643 OFFCURVE",
"512 643 CURVE SMOOTH",
"694 643 OFFCURVE",
"776 529 OFFCURVE",
"738 349 CURVE SMOOTH",
"699 167 OFFCURVE",
"547 55 OFFCURVE",
"387 55 CURVE SMOOTH"
);
},
{
closed = 1;
nodes = (
"386 783 OFFCURVE",
"420 795 OFFCURVE",
"455 795 CURVE SMOOTH",
"519 795 OFFCURVE",
"552 745 OFFCURVE",
"625 745 CURVE SMOOTH",
"665 745 OFFCURVE",
"701 755 OFFCURVE",
"728 787 CURVE",
"743 856 LINE",
"708 816 OFFCURVE",
"673 804 OFFCURVE",
"637 804 CURVE SMOOTH",
"572 804 OFFCURVE",
"535 854 OFFCURVE",
"467 854 CURVE SMOOTH",
"428 854 OFFCURVE",
"391 843 OFFCURVE",
"363 811 CURVE",
"348 742 LINE"
);
}
);
width = 832;
}
);
leftKerningGroup = O;
note = Otilde;
rightKerningGroup = O;
unicode = 00D5;
},
{
glyphname = OE;
lastChange = "2015-10-28 08:12:40 +0000";
layers = (
{
layerId = "EA8340D9-3B60-45BA-AE27-149F2EF80A01";
name = "Light Italic";
paths = (
{
closed = 1;
nodes = (
"799 0 LINE",
"813 66 LINE",
"495 66 LINE",
"548 317 LINE",
"774 317 LINE",
"788 383 LINE",
"562 383 LINE",
"615 633 LINE",
"933 633 LINE",
"947 699 LINE",
"530 699 LINE SMOOTH",
"302 699 OFFCURVE",
"130 568 OFFCURVE",
"84 349 CURVE SMOOTH",
"37 131 OFFCURVE",
"183 0 OFFCURVE",
"382 0 CURVE SMOOTH"
);
},
{
closed = 1;
nodes = (
"219 66 OFFCURVE",
"123 168 OFFCURVE",
"162 349 CURVE SMOOTH",
"200 531 OFFCURVE",
"351 633 OFFCURVE",
"511 633 CURVE SMOOTH",
"537 633 LINE",
"417 66 LINE",
"391 66 LINE SMOOTH"
);
}
);
width = 889;
}
);
leftKerningGroup = O;
note = OE;
rightKerningGroup = E;
unicode = 0152;
},
{
glyphname = P;
lastChange = "2015-10-28 08:12:41 +0000";
layers = (
{
layerId = "EA8340D9-3B60-45BA-AE27-149F2EF80A01";
name = "Light Italic";
paths = (
{
closed = 1;
nodes = (
"108 0 LINE",
"169 288 LINE",
"350 288 LINE SMOOTH",
"498 288 OFFCURVE",
"597 353 OFFCURVE",
"626 493 CURVE SMOOTH",
"654 627 OFFCURVE",
"577 699 OFFCURVE",
"437 699 CURVE SMOOTH",
"178 699 LINE",
"30 0 LINE"
);
},
{
closed = 1;
nodes = (
"242 633 LINE",
"425 633 LINE SMOOTH",
"521 633 OFFCURVE",
"572 606 OFFCURVE",
"548 493 CURVE SMOOTH",
"524 381 OFFCURVE",
"447 354 OFFCURVE",
"358 354 CURVE SMOOTH",
"183 354 LINE"
);
}
);
width = 592;
}
);
note = P;
unicode = 0050;
},
{
glyphname = Thorn;
lastChange = "2015-10-28 08:12:40 +0000";
layers = (
{
layerId = "EA8340D9-3B60-45BA-AE27-149F2EF80A01";
name = "Light Italic";
paths = (
{
closed = 1;
nodes = (
"108 0 LINE",
"139 149 LINE",
"324 149 LINE SMOOTH",
"483 149 OFFCURVE",
"567 210 OFFCURVE",
"596 350 CURVE SMOOTH",
"624 486 OFFCURVE",
"548 552 OFFCURVE",
"410 552 CURVE SMOOTH",
"225 552 LINE",
"256 699 LINE",
"178 699 LINE",
"30 0 LINE"
);
},
{
closed = 1;
nodes = (
"211 486 LINE",
"386 486 LINE SMOOTH",
"500 486 OFFCURVE",
"541 459 OFFCURVE",
"518 350 CURVE SMOOTH",
"494 238 OFFCURVE",
"417 215 OFFCURVE",
"328 215 CURVE SMOOTH",
"153 215 LINE"
);
}
);
width = 592;
}
);
note = Thorn;
unicode = 00DE;
},
{
glyphname = Q;
lastChange = "2015-10-28 08:12:39 +0000";
layers = (
{
layerId = "EA8340D9-3B60-45BA-AE27-149F2EF80A01";
name = "Light Italic";
paths = (
{
closed = 1;
nodes = (
"750 0 LINE",
"764 66 LINE",
"590 66 LINE",
"700 114 OFFCURVE",
"787 218 OFFCURVE",
"815 350 CURVE SMOOTH",
"861 569 OFFCURVE",
"734 714 OFFCURVE",
"527 714 CURVE SMOOTH",
"315 714 OFFCURVE",
"130 569 OFFCURVE",
"84 350 CURVE SMOOTH",
"39 137 OFFCURVE",
"169 0 OFFCURVE",
"395 0 CURVE SMOOTH"
);
},
{
closed = 1;
nodes = (
"212 72 OFFCURVE",
"125 170 OFFCURVE",
"163 350 CURVE SMOOTH",
"201 529 OFFCURVE",
"352 642 OFFCURVE",
"512 642 CURVE SMOOTH",
"695 642 OFFCURVE",
"774 529 OFFCURVE",
"736 350 CURVE SMOOTH",
"698 171 OFFCURVE",
"552 72 OFFCURVE",
"391 72 CURVE SMOOTH"
);
}
);
width = 820;
}
);
leftKerningGroup = O;
note = Q;
rightKerningGroup = O;
unicode = 0051;
},
{
glyphname = R;
lastChange = "2015-10-28 08:12:39 +0000";
layers = (
{
layerId = "EA8340D9-3B60-45BA-AE27-149F2EF80A01";
name = "Light Italic";
paths = (
{
closed = 1;
nodes = (
"108 0 LINE",
"171 297 LINE",
"338 297 LINE",
"439 0 LINE",
"520 0 LINE",
"418 301 LINE",
"539 318 OFFCURVE",
"607 395 OFFCURVE",
"627 497 CURVE SMOOTH",
"652 621 OFFCURVE",
"587 699 OFFCURVE",
"448 699 CURVE SMOOTH",
"178 699 LINE",
"30 0 LINE"
);
},
{
closed = 1;
nodes = (
"242 633 LINE",
"433 633 LINE SMOOTH",
"527 633 OFFCURVE",
"571 602 OFFCURVE",
"549 497 CURVE SMOOTH",
"530 407 OFFCURVE",
"460 363 OFFCURVE",
"367 363 CURVE SMOOTH",
"185 363 LINE"
);
}
);
width = 612;
}
);
note = R;
rightKerningGroup = R;
unicode = 0052;
},
{
glyphname = Racute;
lastChange = "2015-10-28 08:12:41 +0000";
layers = (
{
layerId = "EA8340D9-3B60-45BA-AE27-149F2EF80A01";
name = "Light Italic";
paths = (
{
closed = 1;
nodes = (
"108 0 LINE",
"171 297 LINE",
"338 297 LINE",
"439 0 LINE",
"520 0 LINE",
"418 301 LINE",
"539 318 OFFCURVE",
"607 395 OFFCURVE",
"627 497 CURVE SMOOTH",
"652 621 OFFCURVE",
"587 699 OFFCURVE",
"448 699 CURVE SMOOTH",
"178 699 LINE",
"30 0 LINE"
);
},
{
closed = 1;
nodes = (
"242 633 LINE",
"433 633 LINE SMOOTH",
"527 633 OFFCURVE",
"571 602 OFFCURVE",
"549 497 CURVE SMOOTH",
"530 407 OFFCURVE",
"460 363 OFFCURVE",
"367 363 CURVE SMOOTH",
"185 363 LINE"
);
},
{
closed = 1;
nodes = (
"422 742 LINE",
"538 912 LINE",
"457 912 LINE",
"353 742 LINE"
);
}
);
width = 612;
}
);
note = Racute;
rightKerningGroup = R;
unicode = 0154;
},
{
glyphname = Rcaron;
lastChange = "2015-10-28 08:12:40 +0000";
layers = (
{
layerId = "EA8340D9-3B60-45BA-AE27-149F2EF80A01";
name = "Light Italic";
paths = (
{
closed = 1;
nodes = (
"108 0 LINE",
"171 297 LINE",
"338 297 LINE",
"439 0 LINE",
"520 0 LINE",
"418 301 LINE",
"539 318 OFFCURVE",
"607 395 OFFCURVE",
"627 497 CURVE SMOOTH",
"652 621 OFFCURVE",
"587 699 OFFCURVE",
"448 699 CURVE SMOOTH",
"178 699 LINE",
"30 0 LINE"
);
},
{
closed = 1;
nodes = (
"242 633 LINE",
"433 633 LINE SMOOTH",
"527 633 OFFCURVE",
"571 602 OFFCURVE",
"549 497 CURVE SMOOTH",
"530 407 OFFCURVE",
"460 363 OFFCURVE",
"367 363 CURVE SMOOTH",
"185 363 LINE"
);
},
{
closed = 1;
nodes = (
"434 742 LINE",
"606 903 LINE",
"525 903 LINE",
"408 789 LINE",
"341 903 LINE",
"266 903 LINE",
"367 742 LINE"
);
}
);
width = 612;
}
);
note = Rcaron;
rightKerningGroup = R;
unicode = 0158;
},
{
glyphname = Rcommaaccent;
lastChange = "2015-10-28 08:12:40 +0000";
layers = (
{
layerId = "EA8340D9-3B60-45BA-AE27-149F2EF80A01";
name = "Light Italic";
paths = (
{
closed = 1;
nodes = (
"108 0 LINE",
"171 297 LINE",
"338 297 LINE",
"439 0 LINE",
"520 0 LINE",
"418 301 LINE",
"539 318 OFFCURVE",
"607 395 OFFCURVE",
"627 497 CURVE SMOOTH",
"652 621 OFFCURVE",
"587 699 OFFCURVE",
"448 699 CURVE SMOOTH",
"178 699 LINE",
"30 0 LINE"
);
},
{
closed = 1;
nodes = (
"148 -260 LINE",
"281 -63 LINE",
"200 -63 LINE",
"79 -260 LINE"
);
},
{
closed = 1;
nodes = (
"242 633 LINE",
"433 633 LINE SMOOTH",
"527 633 OFFCURVE",
"571 602 OFFCURVE",
"549 497 CURVE SMOOTH",
"530 407 OFFCURVE",
"460 363 OFFCURVE",
"367 363 CURVE SMOOTH",
"185 363 LINE"
);
}
);
width = 612;
}
);
note = Rcommaaccent;
rightKerningGroup = R;
unicode = 0156;
},
{
glyphname = Rdotbelow;
lastChange = "2015-10-28 08:12:39 +0000";
layers = (
{
layerId = "EA8340D9-3B60-45BA-AE27-149F2EF80A01";
name = "Light Italic";
paths = (
{
closed = 1;
nodes = (
"108 0 LINE",
"171 297 LINE",
"338 297 LINE",
"439 0 LINE",
"520 0 LINE",
"418 301 LINE",
"539 318 OFFCURVE",
"607 395 OFFCURVE",
"627 497 CURVE SMOOTH",
"652 621 OFFCURVE",
"587 699 OFFCURVE",
"448 699 CURVE SMOOTH",
"178 699 LINE",
"30 0 LINE"
);
},
{
closed = 1;
nodes = (
"251 -152 OFFCURVE",
"278 -130 OFFCURVE",
"284 -103 CURVE",
"289 -76 OFFCURVE",
"271 -54 OFFCURVE",
"246 -54 CURVE SMOOTH",
"219 -54 OFFCURVE",
"191 -76 OFFCURVE",
"186 -103 CURVE",
"180 -130 OFFCURVE",
"198 -152 OFFCURVE",
"225 -152 CURVE SMOOTH"
);
},
{
closed = 1;
nodes = (
"242 633 LINE",
"433 633 LINE SMOOTH",
"527 633 OFFCURVE",
"571 602 OFFCURVE",
"549 497 CURVE SMOOTH",
"530 407 OFFCURVE",
"460 363 OFFCURVE",
"367 363 CURVE SMOOTH",
"185 363 LINE"
);
}
);
width = 612;
}
);
note = Rdotbelow;
rightKerningGroup = R;
unicode = 1E5A;
},
{
glyphname = Rdotbelowmacron;
lastChange = "2015-10-28 08:12:41 +0000";
layers = (
{
layerId = "EA8340D9-3B60-45BA-AE27-149F2EF80A01";
name = "Light Italic";
paths = (
{
closed = 1;
nodes = (
"108 0 LINE",
"171 297 LINE",
"338 297 LINE",
"439 0 LINE",
"520 0 LINE",
"418 301 LINE",
"539 318 OFFCURVE",
"607 395 OFFCURVE",
"627 497 CURVE SMOOTH",
"652 621 OFFCURVE",
"587 699 OFFCURVE",
"448 699 CURVE SMOOTH",
"178 699 LINE",
"30 0 LINE"
);
},
{
closed = 1;
nodes = (
"229 -152 OFFCURVE",
"256 -130 OFFCURVE",
"262 -103 CURVE",
"267 -76 OFFCURVE",
"249 -54 OFFCURVE",
"224 -54 CURVE SMOOTH",
"197 -54 OFFCURVE",
"169 -76 OFFCURVE",
"164 -103 CURVE",
"158 -130 OFFCURVE",
"176 -152 OFFCURVE",
"203 -152 CURVE SMOOTH"
);
},
{
closed = 1;
nodes = (
"242 633 LINE",
"433 633 LINE SMOOTH",
"527 633 OFFCURVE",
"571 602 OFFCURVE",
"549 497 CURVE SMOOTH",
"530 407 OFFCURVE",
"460 363 OFFCURVE",
"367 363 CURVE SMOOTH",
"185 363 LINE"
);
},
{
closed = 1;
nodes = (
"552 787 LINE",
"563 841 LINE",
"263 841 LINE",
"252 787 LINE"
);
}
);
width = 612;
}
);
note = Rdotbelowmacron;
rightKerningGroup = R;
unicode = 1E5C;
},
{
glyphname = Rlinebelow;
lastChange = "2015-10-28 08:12:39 +0000";
layers = (
{
layerId = "EA8340D9-3B60-45BA-AE27-149F2EF80A01";
name = "Light Italic";
paths = (
{
closed = 1;
nodes = (
"108 0 LINE",
"171 297 LINE",
"338 297 LINE",
"439 0 LINE",
"520 0 LINE",
"418 301 LINE",
"539 318 OFFCURVE",
"607 395 OFFCURVE",
"627 497 CURVE SMOOTH",
"652 621 OFFCURVE",
"587 699 OFFCURVE",
"448 699 CURVE SMOOTH",
"178 699 LINE",
"30 0 LINE"
);
},
{
closed = 1;
nodes = (
"372 -131 LINE",
"384 -74 LINE",
"80 -74 LINE",
"68 -131 LINE"
);
},
{
closed = 1;
nodes = (
"242 633 LINE",
"433 633 LINE SMOOTH",
"527 633 OFFCURVE",
"571 602 OFFCURVE",
"549 497 CURVE SMOOTH",
"530 407 OFFCURVE",
"460 363 OFFCURVE",
"367 363 CURVE SMOOTH",
"185 363 LINE"
);
}
);
width = 612;
}
);
note = Rlinebelow;
rightKerningGroup = R;
unicode = 1E5E;
},
{
glyphname = S;
lastChange = "2015-10-28 08:12:40 +0000";
layers = (
{
layerId = "EA8340D9-3B60-45BA-AE27-149F2EF80A01";
name = "Light Italic";
paths = (
{
closed = 1;
nodes = (
"397 -15 OFFCURVE",
"476 54 OFFCURVE",
"501 171 CURVE SMOOTH",
"527 293 OFFCURVE",
"463 333 OFFCURVE",
"347 381 CURVE SMOOTH",
"231 429 OFFCURVE",
"192 459 OFFCURVE",
"208 534 CURVE SMOOTH",
"222 602 OFFCURVE",
"279 644 OFFCURVE",
"393 644 CURVE SMOOTH",
"457 644 OFFCURVE",
"513 631 OFFCURVE",
"562 607 CURVE",
"577 678 LINE",
"526 701 OFFCURVE",
"471 714 OFFCURVE",
"397 714 CURVE SMOOTH",
"247 714 OFFCURVE",
"153 642 OFFCURVE",
"130 534 CURVE SMOOTH",
"109 435 OFFCURVE",
"164 375 OFFCURVE",
"274 327 CURVE SMOOTH",
"394 275 OFFCURVE",
"441 255 OFFCURVE",
"423 171 CURVE SMOOTH",
"406 94 OFFCURVE",
"345 55 OFFCURVE",
"223 55 CURVE SMOOTH",
"155 55 OFFCURVE",
"88 68 OFFCURVE",
"30 96 CURVE",
"14 22 LINE",
"57 -1 OFFCURVE",
"135 -15 OFFCURVE",
"212 -15 CURVE SMOOTH"
);
}
);
width = 555;
}
);
leftKerningGroup = S;
note = S;
rightKerningGroup = S;
unicode = 0053;
},
{
glyphname = Sacute;
lastChange = "2015-10-28 08:12:41 +0000";
layers = (
{
layerId = "EA8340D9-3B60-45BA-AE27-149F2EF80A01";
name = "Light Italic";
paths = (
{
closed = 1;
nodes = (
"397 -15 OFFCURVE",
"476 54 OFFCURVE",
"501 171 CURVE SMOOTH",
"527 293 OFFCURVE",
"463 333 OFFCURVE",
"347 381 CURVE SMOOTH",
"231 429 OFFCURVE",
"192 459 OFFCURVE",
"208 534 CURVE SMOOTH",
"222 602 OFFCURVE",
"279 644 OFFCURVE",
"393 644 CURVE SMOOTH",
"457 644 OFFCURVE",
"513 631 OFFCURVE",
"562 607 CURVE",
"577 678 LINE",
"526 701 OFFCURVE",
"471 714 OFFCURVE",
"397 714 CURVE SMOOTH",
"247 714 OFFCURVE",
"153 642 OFFCURVE",
"130 534 CURVE SMOOTH",
"109 435 OFFCURVE",
"164 375 OFFCURVE",
"274 327 CURVE SMOOTH",
"394 275 OFFCURVE",
"441 255 OFFCURVE",
"423 171 CURVE SMOOTH",
"406 94 OFFCURVE",
"345 55 OFFCURVE",
"223 55 CURVE SMOOTH",
"155 55 OFFCURVE",
"88 68 OFFCURVE",
"30 96 CURVE",
"14 22 LINE",
"57 -1 OFFCURVE",
"135 -15 OFFCURVE",
"212 -15 CURVE SMOOTH"
);
},
{
closed = 1;
nodes = (
"429 742 LINE",
"545 912 LINE",
"464 912 LINE",
"360 742 LINE"
);
}
);
width = 555;
}
);
leftKerningGroup = S;
note = Sacute;
rightKerningGroup = S;
unicode = 015A;
},
{
glyphname = Scaron;
lastChange = "2015-10-28 08:12:39 +0000";
layers = (
{
layerId = "EA8340D9-3B60-45BA-AE27-149F2EF80A01";
name = "Light Italic";
paths = (
{
closed = 1;
nodes = (
"397 -15 OFFCURVE",
"476 54 OFFCURVE",
"501 171 CURVE SMOOTH",
"527 293 OFFCURVE",
"463 333 OFFCURVE",
"347 381 CURVE SMOOTH",
"231 429 OFFCURVE",
"192 459 OFFCURVE",
"208 534 CURVE SMOOTH",
"222 602 OFFCURVE",
"279 644 OFFCURVE",
"393 644 CURVE SMOOTH",
"457 644 OFFCURVE",
"513 631 OFFCURVE",
"562 607 CURVE",
"577 678 LINE",
"526 701 OFFCURVE",
"471 714 OFFCURVE",
"397 714 CURVE SMOOTH",
"247 714 OFFCURVE",
"153 642 OFFCURVE",
"130 534 CURVE SMOOTH",
"109 435 OFFCURVE",
"164 375 OFFCURVE",
"274 327 CURVE SMOOTH",
"394 275 OFFCURVE",
"441 255 OFFCURVE",
"423 171 CURVE SMOOTH",
"406 94 OFFCURVE",
"345 55 OFFCURVE",
"223 55 CURVE SMOOTH",
"155 55 OFFCURVE",
"88 68 OFFCURVE",
"30 96 CURVE",
"14 22 LINE",
"57 -1 OFFCURVE",
"135 -15 OFFCURVE",
"212 -15 CURVE SMOOTH"
);
},
{
closed = 1;
nodes = (
"446 742 LINE",
"618 903 LINE",
"537 903 LINE",
"420 789 LINE",
"353 903 LINE",
"278 903 LINE",
"379 742 LINE"
);
}
);
width = 555;
}
);
leftKerningGroup = S;
note = Scaron;
rightKerningGroup = S;
unicode = 0160;
},
{
glyphname = Scedilla;
lastChange = "2015-10-28 08:12:40 +0000";
layers = (
{
layerId = "EA8340D9-3B60-45BA-AE27-149F2EF80A01";
name = "Light Italic";
paths = (
{
closed = 1;
nodes = (
"246 -248 OFFCURVE",
"292 -206 OFFCURVE",
"303 -152 CURVE SMOOTH",
"312 -106 OFFCURVE",
"292 -68 OFFCURVE",
"231 -60 CURVE",
"259 -13 LINE",
"410 -2 OFFCURVE",
"478 64 OFFCURVE",
"501 171 CURVE SMOOTH",
"527 293 OFFCURVE",
"463 333 OFFCURVE",
"347 381 CURVE SMOOTH",
"231 429 OFFCURVE",
"192 459 OFFCURVE",
"208 534 CURVE SMOOTH",
"222 602 OFFCURVE",
"279 644 OFFCURVE",
"393 644 CURVE SMOOTH",
"457 644 OFFCURVE",
"513 631 OFFCURVE",
"562 607 CURVE",
"577 678 LINE",
"526 701 OFFCURVE",
"471 714 OFFCURVE",
"397 714 CURVE SMOOTH",
"247 714 OFFCURVE",
"153 642 OFFCURVE",
"130 534 CURVE SMOOTH",
"109 435 OFFCURVE",
"164 375 OFFCURVE",
"274 327 CURVE SMOOTH",
"394 275 OFFCURVE",
"441 255 OFFCURVE",
"423 171 CURVE SMOOTH",
"406 94 OFFCURVE",
"345 55 OFFCURVE",
"223 55 CURVE SMOOTH",
"155 55 OFFCURVE",
"88 68 OFFCURVE",
"30 96 CURVE",
"14 22 LINE",
"52 1 OFFCURVE",
"119 -12 OFFCURVE",
"187 -14 CURVE",
"142 -93 LINE",
"219 -93 OFFCURVE",
"239 -113 OFFCURVE",
"232 -150 CURVE SMOOTH",
"225 -186 OFFCURVE",
"197 -200 OFFCURVE",
"154 -200 CURVE SMOOTH",
"135 -200 OFFCURVE",
"111 -196 OFFCURVE",
"99 -190 CURVE",
"89 -238 LINE",
"103 -244 OFFCURVE",
"132 -248 OFFCURVE",
"160 -248 CURVE SMOOTH"
);
}
);
width = 555;
}
);
leftKerningGroup = S;
note = Scedilla;
rightKerningGroup = S;
unicode = 015E;
},
{
glyphname = Scircumflex;
lastChange = "2015-10-28 08:12:40 +0000";
layers = (
{
layerId = "EA8340D9-3B60-45BA-AE27-149F2EF80A01";
name = "Light Italic";
paths = (
{
closed = 1;
nodes = (
"397 -15 OFFCURVE",
"476 54 OFFCURVE",
"501 171 CURVE SMOOTH",
"527 293 OFFCURVE",
"463 333 OFFCURVE",
"347 381 CURVE SMOOTH",
"231 429 OFFCURVE",
"192 459 OFFCURVE",
"208 534 CURVE SMOOTH",
"222 602 OFFCURVE",
"279 644 OFFCURVE",
"393 644 CURVE SMOOTH",
"457 644 OFFCURVE",
"513 631 OFFCURVE",
"562 607 CURVE",
"577 678 LINE",
"526 701 OFFCURVE",
"471 714 OFFCURVE",
"397 714 CURVE SMOOTH",
"247 714 OFFCURVE",
"153 642 OFFCURVE",
"130 534 CURVE SMOOTH",
"109 435 OFFCURVE",
"164 375 OFFCURVE",
"274 327 CURVE SMOOTH",
"394 275 OFFCURVE",
"441 255 OFFCURVE",
"423 171 CURVE SMOOTH",
"406 94 OFFCURVE",
"345 55 OFFCURVE",
"223 55 CURVE SMOOTH",
"155 55 OFFCURVE",
"88 68 OFFCURVE",
"30 96 CURVE",
"14 22 LINE",
"57 -1 OFFCURVE",
"135 -15 OFFCURVE",
"212 -15 CURVE SMOOTH"
);
},
{
closed = 1;
nodes = (
"316 742 LINE",
"432 856 LINE",
"500 742 LINE",
"575 742 LINE",
"472 903 LINE",
"405 903 LINE",
"235 742 LINE"
);
}
);
width = 555;
}
);
leftKerningGroup = S;
note = Scircumflex;
rightKerningGroup = S;
unicode = 015C;
},
{
glyphname = Scommaaccent;
lastChange = "2015-10-28 08:12:41 +0000";
layers = (
{
layerId = "EA8340D9-3B60-45BA-AE27-149F2EF80A01";
name = "Light Italic";
paths = (
{
closed = 1;
nodes = (
"397 -15 OFFCURVE",
"476 54 OFFCURVE",
"501 171 CURVE SMOOTH",
"527 293 OFFCURVE",
"463 333 OFFCURVE",
"347 381 CURVE SMOOTH",
"231 429 OFFCURVE",
"192 459 OFFCURVE",
"208 534 CURVE SMOOTH",
"222 602 OFFCURVE",
"279 644 OFFCURVE",
"393 644 CURVE SMOOTH",
"457 644 OFFCURVE",
"513 631 OFFCURVE",
"562 607 CURVE",
"577 678 LINE",
"526 701 OFFCURVE",
"471 714 OFFCURVE",
"397 714 CURVE SMOOTH",
"247 714 OFFCURVE",
"153 642 OFFCURVE",
"130 534 CURVE SMOOTH",
"109 435 OFFCURVE",
"164 375 OFFCURVE",
"274 327 CURVE SMOOTH",
"394 275 OFFCURVE",
"441 255 OFFCURVE",
"423 171 CURVE SMOOTH",
"406 94 OFFCURVE",
"345 55 OFFCURVE",
"223 55 CURVE SMOOTH",
"155 55 OFFCURVE",
"88 68 OFFCURVE",
"30 96 CURVE",
"14 22 LINE",
"57 -1 OFFCURVE",
"135 -15 OFFCURVE",
"212 -15 CURVE SMOOTH"
);
},
{
closed = 1;
nodes = (
"134 -259 LINE",
"267 -63 LINE",
"187 -63 LINE",
"64 -259 LINE"
);
}
);
width = 555;
}
);
leftKerningGroup = S;
note = Scommaaccent;
rightKerningGroup = S;
unicode = 0218;
},
{
glyphname = Sdotaccent;
lastChange = "2015-10-28 08:12:40 +0000";
layers = (
{
layerId = "EA8340D9-3B60-45BA-AE27-149F2EF80A01";
name = "Light Italic";
paths = (
{
closed = 1;
nodes = (
"397 -15 OFFCURVE",
"476 54 OFFCURVE",
"501 171 CURVE SMOOTH",
"527 293 OFFCURVE",
"463 333 OFFCURVE",
"347 381 CURVE SMOOTH",
"231 429 OFFCURVE",
"192 459 OFFCURVE",
"208 534 CURVE SMOOTH",
"222 602 OFFCURVE",
"279 644 OFFCURVE",
"393 644 CURVE SMOOTH",
"457 644 OFFCURVE",
"513 631 OFFCURVE",
"562 607 CURVE",
"577 678 LINE",
"526 701 OFFCURVE",
"471 714 OFFCURVE",
"397 714 CURVE SMOOTH",
"247 714 OFFCURVE",
"153 642 OFFCURVE",
"130 534 CURVE SMOOTH",
"109 435 OFFCURVE",
"164 375 OFFCURVE",
"274 327 CURVE SMOOTH",
"394 275 OFFCURVE",
"441 255 OFFCURVE",
"423 171 CURVE SMOOTH",
"406 94 OFFCURVE",
"345 55 OFFCURVE",
"223 55 CURVE SMOOTH",
"155 55 OFFCURVE",
"88 68 OFFCURVE",
"30 96 CURVE",
"14 22 LINE",
"57 -1 OFFCURVE",
"135 -15 OFFCURVE",
"212 -15 CURVE SMOOTH"
);
},
{
closed = 1;
nodes = (
"435 742 OFFCURVE",
"462 764 OFFCURVE",
"468 791 CURVE SMOOTH",
"474 818 OFFCURVE",
"455 840 OFFCURVE",
"429 840 CURVE SMOOTH",
"402 840 OFFCURVE",
"375 818 OFFCURVE",
"369 791 CURVE SMOOTH",
"363 764 OFFCURVE",
"382 742 OFFCURVE",
"409 742 CURVE SMOOTH"
);
}
);
width = 555;
}
);
leftKerningGroup = S;
note = Sdotaccent;
rightKerningGroup = S;
unicode = 1E60;
},
{
glyphname = Sdotbelow;
lastChange = "2015-10-28 08:12:41 +0000";
layers = (
{
layerId = "EA8340D9-3B60-45BA-AE27-149F2EF80A01";
name = "Light Italic";
paths = (
{
closed = 1;
nodes = (
"397 -15 OFFCURVE",
"476 54 OFFCURVE",
"501 171 CURVE SMOOTH",
"527 293 OFFCURVE",
"463 333 OFFCURVE",
"347 381 CURVE SMOOTH",
"231 429 OFFCURVE",
"192 459 OFFCURVE",
"208 534 CURVE SMOOTH",
"222 602 OFFCURVE",
"279 644 OFFCURVE",
"393 644 CURVE SMOOTH",
"457 644 OFFCURVE",
"513 631 OFFCURVE",
"562 607 CURVE",
"577 678 LINE",
"526 701 OFFCURVE",
"471 714 OFFCURVE",
"397 714 CURVE SMOOTH",
"247 714 OFFCURVE",
"153 642 OFFCURVE",
"130 534 CURVE SMOOTH",
"109 435 OFFCURVE",
"164 375 OFFCURVE",
"274 327 CURVE SMOOTH",
"394 275 OFFCURVE",
"441 255 OFFCURVE",
"423 171 CURVE SMOOTH",
"406 94 OFFCURVE",
"345 55 OFFCURVE",
"223 55 CURVE SMOOTH",
"155 55 OFFCURVE",
"88 68 OFFCURVE",
"30 96 CURVE",
"14 22 LINE",
"57 -1 OFFCURVE",
"135 -15 OFFCURVE",
"212 -15 CURVE SMOOTH"
);
},
{
closed = 1;
nodes = (
"224 -152 OFFCURVE",
"251 -130 OFFCURVE",
"257 -103 CURVE",
"262 -76 OFFCURVE",
"244 -54 OFFCURVE",
"219 -54 CURVE SMOOTH",
"192 -54 OFFCURVE",
"164 -76 OFFCURVE",
"159 -103 CURVE",
"153 -130 OFFCURVE",
"171 -152 OFFCURVE",
"198 -152 CURVE SMOOTH"
);
}
);
width = 555;
}
);
leftKerningGroup = S;
note = Sdotbelow;
rightKerningGroup = S;
unicode = 1E62;
},
{
glyphname = Germandbls;
lastChange = "2015-10-28 08:12:41 +0000";
layers = (
{
layerId = "EA8340D9-3B60-45BA-AE27-149F2EF80A01";
name = "Light Italic";
paths = (
{
closed = 1;
nodes = (
"461 -15 OFFCURVE",
"542 76 OFFCURVE",
"566 198 CURVE SMOOTH",
"587 306 OFFCURVE",
"532 378 OFFCURVE",
"408 389 CURVE",
"572 521 LINE",
"591 625 OFFCURVE",
"529 714 OFFCURVE",
"400 714 CURVE SMOOTH",
"255 714 OFFCURVE",
"161 641 OFFCURVE",
"127 480 CURVE SMOOTH",
"25 0 LINE",
"103 0 LINE",
"205 484 LINE SMOOTH",
"230 602 OFFCURVE",
"304 643 OFFCURVE",
"385 643 CURVE SMOOTH",
"471 643 OFFCURVE",
"500 598 OFFCURVE",
"492 532 CURVE",
"314 387 LINE",
"303 335 LINE",
"341 335 LINE SMOOTH",
"442 335 OFFCURVE",
"511 306 OFFCURVE",
"488 198 CURVE SMOOTH",
"468 104 OFFCURVE",
"409 55 OFFCURVE",
"302 55 CURVE SMOOTH",
"253 55 OFFCURVE",
"219 60 OFFCURVE",
"187 76 CURVE",
"172 5 LINE",
"202 -10 OFFCURVE",
"250 -15 OFFCURVE",
"301 -15 CURVE SMOOTH"
);
}
);
width = 614;
}
);
note = uni1E9E;
unicode = 1E9E;
},
{
glyphname = Schwa;
lastChange = "2015-10-28 08:12:40 +0000";
layers = (
{
layerId = "EA8340D9-3B60-45BA-AE27-149F2EF80A01";
name = "Light Italic";
paths = (
{
closed = 1;
nodes = (
"601 -15 OFFCURVE",
"758 129 OFFCURVE",
"805 350 CURVE SMOOTH",
"854 581 OFFCURVE",
"737 714 OFFCURVE",
"486 714 CURVE SMOOTH",
"392 714 OFFCURVE",
"282 693 OFFCURVE",
"221 670 CURVE",
"206 600 LINE",
"274 625 OFFCURVE",
"372 643 OFFCURVE",
"462 643 CURVE SMOOTH",
"667 643 OFFCURVE",
"758 551 OFFCURVE",
"726 376 CURVE",
"89 376 LINE",
"80 331 LINE SMOOTH",
"38 136 OFFCURVE",
"126 -15 OFFCURVE",
"366 -15 CURVE SMOOTH"
);
},
{
closed = 1;
nodes = (
"185 55 OFFCURVE",
"124 164 OFFCURVE",
"153 315 CURVE",
"714 315 LINE",
"679 165 OFFCURVE",
"570 55 OFFCURVE",
"379 55 CURVE SMOOTH"
);
}
);
width = 821;
}
);
note = uni018F;
unicode = 018F;
},
{
glyphname = T;
lastChange = "2015-10-28 08:12:41 +0000";
layers = (
{
layerId = "EA8340D9-3B60-45BA-AE27-149F2EF80A01";
name = "Light Italic";
paths = (
{
closed = 1;
nodes = (
"292 0 LINE",
"426 633 LINE",
"650 633 LINE",
"664 699 LINE",
"138 699 LINE",
"124 633 LINE",
"348 633 LINE",
"214 0 LINE"
);
}
);
width = 586;
}
);
leftKerningGroup = T;
note = T;
rightKerningGroup = T;
unicode = 0054;
},
{
glyphname = Tbar;
lastChange = "2015-10-28 08:12:40 +0000";
layers = (
{
layerId = "EA8340D9-3B60-45BA-AE27-149F2EF80A01";
name = "Light Italic";
paths = (
{
closed = 1;
nodes = (
"292 0 LINE",
"356 305 LINE",
"487 305 LINE",
"501 370 LINE",
"370 370 LINE",
"426 633 LINE",
"650 633 LINE",
"664 699 LINE",
"138 699 LINE",
"124 633 LINE",
"348 633 LINE",
"292 370 LINE",
"160 370 LINE",
"146 305 LINE",
"278 305 LINE",
"214 0 LINE"
);
}
);
width = 586;
}
);
leftKerningGroup = T;
note = Tbar;
rightKerningGroup = T;
unicode = 0166;
},
{
glyphname = Tcaron;
lastChange = "2015-10-28 08:12:41 +0000";
layers = (
{
layerId = "EA8340D9-3B60-45BA-AE27-149F2EF80A01";
name = "Light Italic";
paths = (
{
closed = 1;
nodes = (
"292 0 LINE",
"426 633 LINE",
"650 633 LINE",
"664 699 LINE",
"138 699 LINE",
"124 633 LINE",
"348 633 LINE",
"214 0 LINE"
);
},
{
closed = 1;
nodes = (
"443 742 LINE",
"615 903 LINE",
"534 903 LINE",
"417 789 LINE",
"350 903 LINE",
"275 903 LINE",
"376 742 LINE"
);
}
);
width = 586;
}
);
leftKerningGroup = T;
note = Tcaron;
rightKerningGroup = T;
unicode = 0164;
},
{
glyphname = Tcedilla;
lastChange = "2015-10-28 08:12:39 +0000";
layers = (
{
layerId = "EA8340D9-3B60-45BA-AE27-149F2EF80A01";
name = "Light Italic";
paths = (
{
closed = 1;
nodes = (
"268 -248 OFFCURVE",
"314 -206 OFFCURVE",
"325 -152 CURVE SMOOTH",
"334 -106 OFFCURVE",
"314 -68 OFFCURVE",
"253 -60 CURVE",
"289 0 LINE",
"292 0 LINE",
"426 633 LINE",
"650 633 LINE",
"664 699 LINE",
"138 699 LINE",
"124 633 LINE",
"348 633 LINE",
"214 0 LINE",
"218 0 LINE",
"164 -93 LINE",
"241 -93 OFFCURVE",
"261 -113 OFFCURVE",
"254 -150 CURVE SMOOTH",
"247 -186 OFFCURVE",
"219 -200 OFFCURVE",
"176 -200 CURVE SMOOTH",
"157 -200 OFFCURVE",
"133 -196 OFFCURVE",
"121 -190 CURVE",
"111 -238 LINE",
"125 -244 OFFCURVE",
"154 -248 OFFCURVE",
"182 -248 CURVE SMOOTH"
);
}
);
width = 586;
}
);
leftKerningGroup = T;
note = Tcedilla;
rightKerningGroup = T;
unicode = 0162;
},
{
glyphname = Tcommaaccent;
lastChange = "2015-10-28 08:12:41 +0000";
layers = (
{
layerId = "EA8340D9-3B60-45BA-AE27-149F2EF80A01";
name = "Light Italic";
paths = (
{
closed = 1;
nodes = (
"292 0 LINE",
"426 633 LINE",
"650 633 LINE",
"664 699 LINE",
"138 699 LINE",
"124 633 LINE",
"348 633 LINE",
"214 0 LINE"
);
},
{
closed = 1;
nodes = (
"145 -260 LINE",
"278 -63 LINE",
"197 -63 LINE",
"76 -260 LINE"
);
}
);
width = 586;
}
);
leftKerningGroup = T;
note = Tcommaaccent;
rightKerningGroup = T;
unicode = 021A;
},
{
glyphname = Tdotbelow;
lastChange = "2015-10-28 08:12:41 +0000";
layers = (
{
layerId = "EA8340D9-3B60-45BA-AE27-149F2EF80A01";
name = "Light Italic";
paths = (
{
closed = 1;
nodes = (
"292 0 LINE",
"426 633 LINE",
"650 633 LINE",
"664 699 LINE",
"138 699 LINE",
"124 633 LINE",
"348 633 LINE",
"214 0 LINE"
);
},
{
closed = 1;
nodes = (
"248 -152 OFFCURVE",
"275 -130 OFFCURVE",
"281 -103 CURVE",
"286 -76 OFFCURVE",
"268 -54 OFFCURVE",
"243 -54 CURVE SMOOTH",
"216 -54 OFFCURVE",
"188 -76 OFFCURVE",
"183 -103 CURVE",
"177 -130 OFFCURVE",
"195 -152 OFFCURVE",
"222 -152 CURVE SMOOTH"
);
}
);
width = 586;
}
);
leftKerningGroup = T;
note = Tdotbelow;
rightKerningGroup = T;
unicode = 1E6C;
},
{
glyphname = Tlinebelow;
lastChange = "2015-10-28 08:12:40 +0000";
layers = (
{
layerId = "EA8340D9-3B60-45BA-AE27-149F2EF80A01";
name = "Light Italic";
paths = (
{
closed = 1;
nodes = (
"292 0 LINE",
"426 633 LINE",
"650 633 LINE",
"664 699 LINE",
"138 699 LINE",
"124 633 LINE",
"348 633 LINE",
"214 0 LINE"
);
},
{
closed = 1;
nodes = (
"377 -131 LINE",
"389 -74 LINE",
"85 -74 LINE",
"73 -131 LINE"
);
}
);
width = 586;
}
);
leftKerningGroup = T;
note = Tlinebelow;
rightKerningGroup = T;
unicode = 1E6E;
},
{
glyphname = U;
lastChange = "2015-10-28 08:12:41 +0000";
layers = (
{
layerId = "EA8340D9-3B60-45BA-AE27-149F2EF80A01";
name = "Light Italic";
paths = (
{
closed = 1;
nodes = (
"512 -15 OFFCURVE",
"601 88 OFFCURVE",
"636 250 CURVE SMOOTH",
"731 699 LINE",
"653 699 LINE",
"556 244 LINE SMOOTH",
"529 113 OFFCURVE",
"441 55 OFFCURVE",
"315 55 CURVE SMOOTH",
"183 55 OFFCURVE",
"125 109 OFFCURVE",
"154 244 CURVE SMOOTH",
"251 699 LINE",
"173 699 LINE",
"78 250 LINE SMOOTH",
"45 94 OFFCURVE",
"123 -15 OFFCURVE",
"300 -15 CURVE SMOOTH"
);
}
);
width = 688;
}
);
leftKerningGroup = U;
note = U;
rightKerningGroup = U;
unicode = 0055;
},
{
glyphname = Uacute;
lastChange = "2015-10-28 08:12:41 +0000";
layers = (
{
layerId = "EA8340D9-3B60-45BA-AE27-149F2EF80A01";
name = "Light Italic";
paths = (
{
closed = 1;
nodes = (
"512 -15 OFFCURVE",
"601 88 OFFCURVE",
"636 250 CURVE SMOOTH",
"731 699 LINE",
"653 699 LINE",
"556 244 LINE SMOOTH",
"529 113 OFFCURVE",
"441 55 OFFCURVE",
"315 55 CURVE SMOOTH",
"183 55 OFFCURVE",
"125 109 OFFCURVE",
"154 244 CURVE SMOOTH",
"251 699 LINE",
"173 699 LINE",
"78 250 LINE SMOOTH",
"45 94 OFFCURVE",
"123 -15 OFFCURVE",
"300 -15 CURVE SMOOTH"
);
},
{
closed = 1;
nodes = (
"489 742 LINE",
"605 912 LINE",
"524 912 LINE",
"420 742 LINE"
);
}
);
width = 688;
}
);
leftKerningGroup = U;
note = Uacute;
rightKerningGroup = U;
unicode = 00DA;
},
{
glyphname = Ubreve;
lastChange = "2015-10-28 08:12:40 +0000";
layers = (
{
layerId = "EA8340D9-3B60-45BA-AE27-149F2EF80A01";
name = "Light Italic";
paths = (
{
closed = 1;
nodes = (
"512 -15 OFFCURVE",
"601 88 OFFCURVE",
"636 250 CURVE SMOOTH",
"731 699 LINE",
"653 699 LINE",
"556 244 LINE SMOOTH",
"529 113 OFFCURVE",
"441 55 OFFCURVE",
"315 55 CURVE SMOOTH",
"183 55 OFFCURVE",
"125 109 OFFCURVE",
"154 244 CURVE SMOOTH",
"251 699 LINE",
"173 699 LINE",
"78 250 LINE SMOOTH",
"45 94 OFFCURVE",
"123 -15 OFFCURVE",
"300 -15 CURVE SMOOTH"
);
},
{
closed = 1;
nodes = (
"547 742 OFFCURVE",
"612 797 OFFCURVE",
"628 872 CURVE",
"566 872 LINE",
"557 826 OFFCURVE",
"520 796 OFFCURVE",
"470 796 CURVE SMOOTH",
"420 796 OFFCURVE",
"397 826 OFFCURVE",
"406 872 CURVE",
"349 872 LINE",
"334 797 OFFCURVE",
"376 742 OFFCURVE",
"462 742 CURVE SMOOTH"
);
}
);
width = 688;
}
);
leftKerningGroup = U;
note = Ubreve;
rightKerningGroup = U;
unicode = 016C;
},
{
glyphname = Ucaron;
lastChange = "2015-10-28 08:12:41 +0000";
layers = (
{
layerId = "EA8340D9-3B60-45BA-AE27-149F2EF80A01";
name = "Light Italic";
paths = (
{
closed = 1;
nodes = (
"512 -15 OFFCURVE",
"601 88 OFFCURVE",
"636 250 CURVE SMOOTH",
"731 699 LINE",
"653 699 LINE",
"556 244 LINE SMOOTH",
"529 113 OFFCURVE",
"441 55 OFFCURVE",
"315 55 CURVE SMOOTH",
"183 55 OFFCURVE",
"125 109 OFFCURVE",
"154 244 CURVE SMOOTH",
"251 699 LINE",
"173 699 LINE",
"78 250 LINE SMOOTH",
"45 94 OFFCURVE",
"123 -15 OFFCURVE",
"300 -15 CURVE SMOOTH"
);
},
{
closed = 1;
nodes = (
"494 742 LINE",
"666 903 LINE",
"585 903 LINE",
"468 789 LINE",
"401 903 LINE",
"326 903 LINE",
"427 742 LINE"
);
}
);
width = 688;
}
);
leftKerningGroup = U;
note = Ucaron;
rightKerningGroup = U;
unicode = 01D3;
},
{
glyphname = Ucircumflex;
lastChange = "2015-10-28 08:12:40 +0000";
layers = (
{
layerId = "EA8340D9-3B60-45BA-AE27-149F2EF80A01";
name = "Light Italic";
paths = (
{
closed = 1;
nodes = (
"512 -15 OFFCURVE",
"601 88 OFFCURVE",
"636 250 CURVE SMOOTH",
"731 699 LINE",
"653 699 LINE",
"556 244 LINE SMOOTH",
"529 113 OFFCURVE",
"441 55 OFFCURVE",
"315 55 CURVE SMOOTH",
"183 55 OFFCURVE",
"125 109 OFFCURVE",
"154 244 CURVE SMOOTH",
"251 699 LINE",
"173 699 LINE",
"78 250 LINE SMOOTH",
"45 94 OFFCURVE",
"123 -15 OFFCURVE",
"300 -15 CURVE SMOOTH"
);
},
{
closed = 1;
nodes = (
"373 742 LINE",
"489 856 LINE",
"557 742 LINE",
"632 742 LINE",
"529 903 LINE",
"462 903 LINE",
"292 742 LINE"
);
}
);
width = 688;
}
);
leftKerningGroup = U;
note = Ucircumflex;
rightKerningGroup = U;
unicode = 00DB;
},
{
glyphname = Udieresis;
lastChange = "2015-10-28 08:12:41 +0000";
layers = (
{
layerId = "EA8340D9-3B60-45BA-AE27-149F2EF80A01";
name = "Light Italic";
paths = (
{
closed = 1;
nodes = (
"512 -15 OFFCURVE",
"601 88 OFFCURVE",
"636 250 CURVE SMOOTH",
"731 699 LINE",
"653 699 LINE",
"556 244 LINE SMOOTH",
"529 113 OFFCURVE",
"441 55 OFFCURVE",
"315 55 CURVE SMOOTH",
"183 55 OFFCURVE",
"125 109 OFFCURVE",
"154 244 CURVE SMOOTH",
"251 699 LINE",
"173 699 LINE",
"78 250 LINE SMOOTH",
"45 94 OFFCURVE",
"123 -15 OFFCURVE",
"300 -15 CURVE SMOOTH"
);
},
{
closed = 1;
nodes = (
"379 742 OFFCURVE",
"406 764 OFFCURVE",
"412 791 CURVE SMOOTH",
"418 818 OFFCURVE",
"399 840 OFFCURVE",
"373 840 CURVE SMOOTH",
"346 840 OFFCURVE",
"320 818 OFFCURVE",
"314 791 CURVE SMOOTH",
"308 764 OFFCURVE",
"327 742 OFFCURVE",
"353 742 CURVE SMOOTH"
);
},
{
closed = 1;
nodes = (
"596 742 OFFCURVE",
"623 764 OFFCURVE",
"629 791 CURVE SMOOTH",
"635 818 OFFCURVE",
"616 840 OFFCURVE",
"590 840 CURVE SMOOTH",
"563 840 OFFCURVE",
"536 818 OFFCURVE",
"530 791 CURVE SMOOTH",
"524 764 OFFCURVE",
"543 742 OFFCURVE",
"570 742 CURVE SMOOTH"
);
}
);
width = 688;
}
);
leftKerningGroup = U;
note = Udieresis;
rightKerningGroup = U;
unicode = 00DC;
},
{
glyphname = Udieresisacute;
lastChange = "2015-10-28 08:12:39 +0000";
layers = (
{
layerId = "EA8340D9-3B60-45BA-AE27-149F2EF80A01";
name = "Light Italic";
paths = (
{
closed = 1;
nodes = (
"512 -15 OFFCURVE",
"601 88 OFFCURVE",
"636 250 CURVE SMOOTH",
"731 699 LINE",
"653 699 LINE",
"556 244 LINE SMOOTH",
"529 113 OFFCURVE",
"441 55 OFFCURVE",
"315 55 CURVE SMOOTH",
"183 55 OFFCURVE",
"125 109 OFFCURVE",
"154 244 CURVE SMOOTH",
"251 699 LINE",
"173 699 LINE",
"78 250 LINE SMOOTH",
"45 94 OFFCURVE",
"123 -15 OFFCURVE",
"300 -15 CURVE SMOOTH"
);
},
{
closed = 1;
nodes = (
"384 742 OFFCURVE",
"411 764 OFFCURVE",
"417 791 CURVE SMOOTH",
"423 818 OFFCURVE",
"404 840 OFFCURVE",
"378 840 CURVE SMOOTH",
"351 840 OFFCURVE",
"324 818 OFFCURVE",
"318 791 CURVE SMOOTH",
"312 764 OFFCURVE",
"331 742 OFFCURVE",
"358 742 CURVE SMOOTH"
);
},
{
closed = 1;
nodes = (
"600 742 OFFCURVE",
"627 764 OFFCURVE",
"633 791 CURVE SMOOTH",
"639 818 OFFCURVE",
"620 840 OFFCURVE",
"594 840 CURVE SMOOTH",
"567 840 OFFCURVE",
"540 818 OFFCURVE",
"534 791 CURVE SMOOTH",
"528 764 OFFCURVE",
"547 742 OFFCURVE",
"574 742 CURVE SMOOTH"
);
},
{
closed = 1;
nodes = (
"503 823 LINE",
"592 946 LINE",
"528 946 LINE",
"450 823 LINE"
);
}
);
width = 688;
}
);
leftKerningGroup = U;
note = Udieresisacute;
rightKerningGroup = U;
unicode = 01D7;
},
{
glyphname = Udieresiscaron;
lastChange = "2015-10-28 08:12:39 +0000";
layers = (
{
layerId = "EA8340D9-3B60-45BA-AE27-149F2EF80A01";
name = "Light Italic";
paths = (
{
closed = 1;
nodes = (
"512 -15 OFFCURVE",
"601 88 OFFCURVE",
"636 250 CURVE SMOOTH",
"731 699 LINE",
"653 699 LINE",
"556 244 LINE SMOOTH",
"529 113 OFFCURVE",
"441 55 OFFCURVE",
"315 55 CURVE SMOOTH",
"183 55 OFFCURVE",
"125 109 OFFCURVE",
"154 244 CURVE SMOOTH",
"251 699 LINE",
"173 699 LINE",
"78 250 LINE SMOOTH",
"45 94 OFFCURVE",
"123 -15 OFFCURVE",
"300 -15 CURVE SMOOTH"
);
},
{
closed = 1;
nodes = (
"380 742 OFFCURVE",
"407 764 OFFCURVE",
"413 791 CURVE SMOOTH",
"419 818 OFFCURVE",
"400 840 OFFCURVE",
"373 840 CURVE SMOOTH",
"347 840 OFFCURVE",
"320 818 OFFCURVE",
"314 791 CURVE SMOOTH",
"308 764 OFFCURVE",
"327 742 OFFCURVE",
"353 742 CURVE SMOOTH"
);
},
{
closed = 1;
nodes = (
"596 742 OFFCURVE",
"623 764 OFFCURVE",
"629 791 CURVE SMOOTH",
"635 818 OFFCURVE",
"616 840 OFFCURVE",
"589 840 CURVE SMOOTH",
"563 840 OFFCURVE",
"536 818 OFFCURVE",
"530 791 CURVE SMOOTH",
"524 764 OFFCURVE",
"543 742 OFFCURVE",
"569 742 CURVE SMOOTH"
);
},
{
closed = 1;
nodes = (
"507 819 LINE",
"653 941 LINE",
"584 941 LINE",
"487 857 LINE",
"425 941 LINE",
"355 941 LINE",
"450 819 LINE"
);
}
);
width = 688;
}
);
leftKerningGroup = U;
note = Udieresiscaron;
rightKerningGroup = U;
unicode = 01D9;
},
{
glyphname = Udieresisgrave;
lastChange = "2015-10-28 08:12:41 +0000";
layers = (
{
layerId = "EA8340D9-3B60-45BA-AE27-149F2EF80A01";
name = "Light Italic";
paths = (
{
closed = 1;
nodes = (
"512 -15 OFFCURVE",
"601 88 OFFCURVE",
"636 250 CURVE SMOOTH",
"731 699 LINE",
"653 699 LINE",
"556 244 LINE SMOOTH",
"529 113 OFFCURVE",
"441 55 OFFCURVE",
"315 55 CURVE SMOOTH",
"183 55 OFFCURVE",
"125 109 OFFCURVE",
"154 244 CURVE SMOOTH",
"251 699 LINE",
"173 699 LINE",
"78 250 LINE SMOOTH",
"45 94 OFFCURVE",
"123 -15 OFFCURVE",
"300 -15 CURVE SMOOTH"
);
},
{
closed = 1;
nodes = (
"382 742 OFFCURVE",
"409 764 OFFCURVE",
"415 791 CURVE SMOOTH",
"421 818 OFFCURVE",
"402 840 OFFCURVE",
"375 840 CURVE SMOOTH",
"349 840 OFFCURVE",
"322 818 OFFCURVE",
"316 791 CURVE SMOOTH",
"310 764 OFFCURVE",
"329 742 OFFCURVE",
"355 742 CURVE SMOOTH"
);
},
{
closed = 1;
nodes = (
"513 823 LINE",
"487 946 LINE",
"423 946 LINE",
"460 823 LINE"
);
},
{
closed = 1;
nodes = (
"598 742 OFFCURVE",
"625 764 OFFCURVE",
"631 791 CURVE SMOOTH",
"637 818 OFFCURVE",
"618 840 OFFCURVE",
"591 840 CURVE SMOOTH",
"565 840 OFFCURVE",
"538 818 OFFCURVE",
"532 791 CURVE SMOOTH",
"526 764 OFFCURVE",
"545 742 OFFCURVE",
"571 742 CURVE SMOOTH"
);
}
);
width = 688;
}
);
leftKerningGroup = U;
note = Udieresisgrave;
rightKerningGroup = U;
unicode = 01DB;
},
{
glyphname = Udieresismacron;
lastChange = "2015-10-28 08:12:39 +0000";
layers = (
{
layerId = "EA8340D9-3B60-45BA-AE27-149F2EF80A01";
name = "Light Italic";
paths = (
{
closed = 1;
nodes = (
"512 -15 OFFCURVE",
"601 88 OFFCURVE",
"636 250 CURVE SMOOTH",
"731 699 LINE",
"653 699 LINE",
"556 244 LINE SMOOTH",
"529 113 OFFCURVE",
"441 55 OFFCURVE",
"315 55 CURVE SMOOTH",
"183 55 OFFCURVE",
"125 109 OFFCURVE",
"154 244 CURVE SMOOTH",
"251 699 LINE",
"173 699 LINE",
"78 250 LINE SMOOTH",
"45 94 OFFCURVE",
"123 -15 OFFCURVE",
"300 -15 CURVE SMOOTH"
);
},
{
closed = 1;
nodes = (
"378 742 OFFCURVE",
"405 764 OFFCURVE",
"411 791 CURVE SMOOTH",
"417 818 OFFCURVE",
"398 840 OFFCURVE",
"372 840 CURVE SMOOTH",
"345 840 OFFCURVE",
"319 818 OFFCURVE",
"313 791 CURVE SMOOTH",
"307 764 OFFCURVE",
"326 742 OFFCURVE",
"352 742 CURVE SMOOTH"
);
},
{
closed = 1;
nodes = (
"595 742 OFFCURVE",
"622 764 OFFCURVE",
"628 791 CURVE SMOOTH",
"634 818 OFFCURVE",
"615 840 OFFCURVE",
"589 840 CURVE SMOOTH",
"562 840 OFFCURVE",
"535 818 OFFCURVE",
"529 791 CURVE SMOOTH",
"523 764 OFFCURVE",
"542 742 OFFCURVE",
"569 742 CURVE SMOOTH"
);
},
{
closed = 1;
nodes = (
"647 913 LINE",
"658 967 LINE",
"358 967 LINE",
"347 913 LINE"
);
}
);
width = 688;
}
);
leftKerningGroup = U;
note = Udieresismacron;
rightKerningGroup = U;
unicode = 01D5;
},
{
glyphname = Udotbelow;
lastChange = "2015-10-28 08:12:39 +0000";
layers = (
{
layerId = "EA8340D9-3B60-45BA-AE27-149F2EF80A01";
name = "Light Italic";
paths = (
{
closed = 1;
nodes = (
"512 -15 OFFCURVE",
"601 88 OFFCURVE",
"636 250 CURVE SMOOTH",
"731 699 LINE",
"653 699 LINE",
"556 244 LINE SMOOTH",
"529 113 OFFCURVE",
"441 55 OFFCURVE",
"315 55 CURVE SMOOTH",
"183 55 OFFCURVE",
"125 109 OFFCURVE",
"154 244 CURVE SMOOTH",
"251 699 LINE",
"173 699 LINE",
"78 250 LINE SMOOTH",
"45 94 OFFCURVE",
"123 -15 OFFCURVE",
"300 -15 CURVE SMOOTH"
);
},
{
closed = 1;
nodes = (
"299 -152 OFFCURVE",
"326 -130 OFFCURVE",
"332 -103 CURVE",
"337 -76 OFFCURVE",
"319 -54 OFFCURVE",
"294 -54 CURVE SMOOTH",
"267 -54 OFFCURVE",
"239 -76 OFFCURVE",
"234 -103 CURVE",
"228 -130 OFFCURVE",
"246 -152 OFFCURVE",
"273 -152 CURVE SMOOTH"
);
}
);
width = 688;
}
);
leftKerningGroup = U;
note = Udotbelow;
rightKerningGroup = U;
unicode = 1EE4;
},
{
glyphname = Ugrave;
lastChange = "2015-10-28 08:12:41 +0000";
layers = (
{
layerId = "EA8340D9-3B60-45BA-AE27-149F2EF80A01";
name = "Light Italic";
paths = (
{
closed = 1;
nodes = (
"512 -15 OFFCURVE",
"601 88 OFFCURVE",
"636 250 CURVE SMOOTH",
"731 699 LINE",
"653 699 LINE",
"556 244 LINE SMOOTH",
"529 113 OFFCURVE",
"441 55 OFFCURVE",
"315 55 CURVE SMOOTH",
"183 55 OFFCURVE",
"125 109 OFFCURVE",
"154 244 CURVE SMOOTH",
"251 699 LINE",
"173 699 LINE",
"78 250 LINE SMOOTH",
"45 94 OFFCURVE",
"123 -15 OFFCURVE",
"300 -15 CURVE SMOOTH"
);
},
{
closed = 1;
nodes = (
"503 742 LINE",
"471 912 LINE",
"390 912 LINE",
"434 742 LINE"
);
}
);
width = 688;
}
);
leftKerningGroup = U;
note = Ugrave;
rightKerningGroup = U;
unicode = 00D9;
},
{
glyphname = Uhookabove;
lastChange = "2015-10-28 08:12:41 +0000";
layers = (
{
layerId = "EA8340D9-3B60-45BA-AE27-149F2EF80A01";
name = "Light Italic";
paths = (
{
closed = 1;
nodes = (
"512 -15 OFFCURVE",
"601 88 OFFCURVE",
"636 250 CURVE SMOOTH",
"731 699 LINE",
"653 699 LINE",
"556 244 LINE SMOOTH",
"529 113 OFFCURVE",
"441 55 OFFCURVE",
"315 55 CURVE SMOOTH",
"183 55 OFFCURVE",
"125 109 OFFCURVE",
"154 244 CURVE SMOOTH",
"251 699 LINE",
"173 699 LINE",
"78 250 LINE SMOOTH",
"45 94 OFFCURVE",
"123 -15 OFFCURVE",
"300 -15 CURVE SMOOTH"
);
},
{
closed = 1;
nodes = (
"486 742 LINE",
"493 777 LINE",
"557 783 OFFCURVE",
"597 823 OFFCURVE",
"607 871 CURVE SMOOTH",
"619 926 OFFCURVE",
"579 964 OFFCURVE",
"505 964 CURVE SMOOTH",
"477 964 OFFCURVE",
"445 959 OFFCURVE",
"427 953 CURVE",
"417 908 LINE",
"430 914 OFFCURVE",
"462 918 OFFCURVE",
"479 918 CURVE SMOOTH",
"526 918 OFFCURVE",
"546 903 OFFCURVE",
"539 868 CURVE SMOOTH",
"530 827 OFFCURVE",
"497 810 OFFCURVE",
"433 810 CURVE",
"419 742 LINE"
);
}
);
width = 688;
}
);
leftKerningGroup = U;
note = Uhookabove;
rightKerningGroup = U;
unicode = 1EE6;
},
{
glyphname = Uhorn;
lastChange = "2015-10-28 08:12:39 +0000";
layers = (
{
layerId = "EA8340D9-3B60-45BA-AE27-149F2EF80A01";
name = "Light Italic";
paths = (
{
closed = 1;
nodes = (
"498 -15 OFFCURVE",
"601 88 OFFCURVE",
"636 250 CURVE SMOOTH",
"702 561 LINE",
"808 561 OFFCURVE",
"882 628 OFFCURVE",
"899 707 CURVE SMOOTH",
"907 747 LINE",
"836 747 LINE",
"829 711 LINE SMOOTH",
"817 654 OFFCURVE",
"781 623 OFFCURVE",
"715 623 CURVE",
"731 699 LINE",
"653 699 LINE",
"556 244 LINE SMOOTH",
"529 113 OFFCURVE",
"433 55 OFFCURVE",
"315 55 CURVE SMOOTH",
"175 55 OFFCURVE",
"127 113 OFFCURVE",
"154 244 CURVE SMOOTH",
"251 699 LINE",
"173 699 LINE",
"78 250 LINE SMOOTH",
"43 88 OFFCURVE",
"125 -15 OFFCURVE",
"300 -15 CURVE SMOOTH"
);
}
);
width = 814;
}
);
leftKerningGroup = U;
note = Uhorn;
rightKerningGroup = U;
unicode = 01AF;
},
{
glyphname = Uhornacute;
lastChange = "2015-10-28 08:12:39 +0000";
layers = (
{
layerId = "EA8340D9-3B60-45BA-AE27-149F2EF80A01";
name = "Light Italic";
paths = (
{
closed = 1;
nodes = (
"498 -15 OFFCURVE",
"601 88 OFFCURVE",
"636 250 CURVE SMOOTH",
"702 561 LINE",
"808 561 OFFCURVE",
"882 628 OFFCURVE",
"899 707 CURVE SMOOTH",
"907 747 LINE",
"836 747 LINE",
"829 711 LINE SMOOTH",
"817 654 OFFCURVE",
"781 623 OFFCURVE",
"715 623 CURVE",
"731 699 LINE",
"653 699 LINE",
"556 244 LINE SMOOTH",
"529 113 OFFCURVE",
"433 55 OFFCURVE",
"315 55 CURVE SMOOTH",
"175 55 OFFCURVE",
"127 113 OFFCURVE",
"154 244 CURVE SMOOTH",
"251 699 LINE",
"173 699 LINE",
"78 250 LINE SMOOTH",
"43 88 OFFCURVE",
"125 -15 OFFCURVE",
"300 -15 CURVE SMOOTH"
);
},
{
closed = 1;
nodes = (
"496 742 LINE",
"612 912 LINE",
"531 912 LINE",
"427 742 LINE"
);
}
);
width = 814;
}
);
leftKerningGroup = U;
note = Uhornacute;
rightKerningGroup = U;
unicode = 1EE8;
},
{
glyphname = Uhorndotbelow;
lastChange = "2015-10-28 08:12:40 +0000";
layers = (
{
layerId = "EA8340D9-3B60-45BA-AE27-149F2EF80A01";
name = "Light Italic";
paths = (
{
closed = 1;
nodes = (
"498 -15 OFFCURVE",
"601 88 OFFCURVE",
"636 250 CURVE SMOOTH",
"702 561 LINE",
"808 561 OFFCURVE",
"882 628 OFFCURVE",
"899 707 CURVE SMOOTH",
"907 747 LINE",
"836 747 LINE",
"829 711 LINE SMOOTH",
"817 654 OFFCURVE",
"781 623 OFFCURVE",
"715 623 CURVE",
"731 699 LINE",
"653 699 LINE",
"556 244 LINE SMOOTH",
"529 113 OFFCURVE",
"433 55 OFFCURVE",
"315 55 CURVE SMOOTH",
"175 55 OFFCURVE",
"127 113 OFFCURVE",
"154 244 CURVE SMOOTH",
"251 699 LINE",
"173 699 LINE",
"78 250 LINE SMOOTH",
"43 88 OFFCURVE",
"125 -15 OFFCURVE",
"300 -15 CURVE SMOOTH"
);
},
{
closed = 1;
nodes = (
"296 -152 OFFCURVE",
"323 -130 OFFCURVE",
"329 -103 CURVE",
"334 -76 OFFCURVE",
"316 -54 OFFCURVE",
"291 -54 CURVE SMOOTH",
"264 -54 OFFCURVE",
"236 -76 OFFCURVE",
"231 -103 CURVE",
"225 -130 OFFCURVE",
"243 -152 OFFCURVE",
"270 -152 CURVE SMOOTH"
);
}
);
width = 814;
}
);
leftKerningGroup = U;
note = Uhorndotbelow;
rightKerningGroup = U;
unicode = 1EF0;
},
{
glyphname = Uhorngrave;
lastChange = "2015-10-28 08:12:39 +0000";
layers = (
{
layerId = "EA8340D9-3B60-45BA-AE27-149F2EF80A01";
name = "Light Italic";
paths = (
{
closed = 1;
nodes = (
"498 -15 OFFCURVE",
"601 88 OFFCURVE",
"636 250 CURVE SMOOTH",
"702 561 LINE",
"808 561 OFFCURVE",
"882 628 OFFCURVE",
"899 707 CURVE SMOOTH",
"907 747 LINE",
"836 747 LINE",
"829 711 LINE SMOOTH",
"817 654 OFFCURVE",
"781 623 OFFCURVE",
"715 623 CURVE",
"731 699 LINE",
"653 699 LINE",
"556 244 LINE SMOOTH",
"529 113 OFFCURVE",
"433 55 OFFCURVE",
"315 55 CURVE SMOOTH",
"175 55 OFFCURVE",
"127 113 OFFCURVE",
"154 244 CURVE SMOOTH",
"251 699 LINE",
"173 699 LINE",
"78 250 LINE SMOOTH",
"43 88 OFFCURVE",
"125 -15 OFFCURVE",
"300 -15 CURVE SMOOTH"
);
},
{
closed = 1;
nodes = (
"510 742 LINE",
"478 912 LINE",
"397 912 LINE",
"441 742 LINE"
);
}
);
width = 814;
}
);
leftKerningGroup = U;
note = Uhorngrave;
rightKerningGroup = U;
unicode = 1EEA;
},
{
glyphname = Uhornhookabove;
lastChange = "2015-10-28 08:12:40 +0000";
layers = (
{
layerId = "EA8340D9-3B60-45BA-AE27-149F2EF80A01";
name = "Light Italic";
paths = (
{
closed = 1;
nodes = (
"498 -15 OFFCURVE",
"601 88 OFFCURVE",
"636 250 CURVE SMOOTH",
"702 561 LINE",
"808 561 OFFCURVE",
"882 628 OFFCURVE",
"899 707 CURVE SMOOTH",
"907 747 LINE",
"836 747 LINE",
"829 711 LINE SMOOTH",
"817 654 OFFCURVE",
"781 623 OFFCURVE",
"715 623 CURVE",
"731 699 LINE",
"653 699 LINE",
"556 244 LINE SMOOTH",
"529 113 OFFCURVE",
"433 55 OFFCURVE",
"315 55 CURVE SMOOTH",
"175 55 OFFCURVE",
"127 113 OFFCURVE",
"154 244 CURVE SMOOTH",
"251 699 LINE",
"173 699 LINE",
"78 250 LINE SMOOTH",
"43 88 OFFCURVE",
"125 -15 OFFCURVE",
"300 -15 CURVE SMOOTH"
);
},
{
closed = 1;
nodes = (
"488 742 LINE",
"495 777 LINE",
"559 783 OFFCURVE",
"599 823 OFFCURVE",
"609 871 CURVE SMOOTH",
"621 926 OFFCURVE",
"581 964 OFFCURVE",
"507 964 CURVE SMOOTH",
"479 964 OFFCURVE",
"447 959 OFFCURVE",
"429 953 CURVE",
"419 908 LINE",
"432 914 OFFCURVE",
"464 918 OFFCURVE",
"481 918 CURVE SMOOTH",
"528 918 OFFCURVE",
"548 903 OFFCURVE",
"541 868 CURVE SMOOTH",
"532 827 OFFCURVE",
"499 810 OFFCURVE",
"435 810 CURVE",
"421 742 LINE"
);
}
);
width = 814;
}
);
leftKerningGroup = U;
note = Uhornhookabove;
rightKerningGroup = U;
unicode = 1EEC;
},
{
glyphname = Uhorntilde;
lastChange = "2015-10-28 08:12:41 +0000";
layers = (
{
layerId = "EA8340D9-3B60-45BA-AE27-149F2EF80A01";
name = "Light Italic";
paths = (
{
closed = 1;
nodes = (
"498 -15 OFFCURVE",
"601 88 OFFCURVE",
"636 250 CURVE SMOOTH",
"702 561 LINE",
"808 561 OFFCURVE",
"882 628 OFFCURVE",
"899 707 CURVE SMOOTH",
"907 747 LINE",
"836 747 LINE",
"829 711 LINE SMOOTH",
"817 654 OFFCURVE",
"781 623 OFFCURVE",
"715 623 CURVE",
"731 699 LINE",
"653 699 LINE",
"556 244 LINE SMOOTH",
"529 113 OFFCURVE",
"433 55 OFFCURVE",
"315 55 CURVE SMOOTH",
"175 55 OFFCURVE",
"127 113 OFFCURVE",
"154 244 CURVE SMOOTH",
"251 699 LINE",
"173 699 LINE",
"78 250 LINE SMOOTH",
"43 88 OFFCURVE",
"125 -15 OFFCURVE",
"300 -15 CURVE SMOOTH"
);
},
{
closed = 1;
nodes = (
"318 783 OFFCURVE",
"352 795 OFFCURVE",
"387 795 CURVE SMOOTH",
"451 795 OFFCURVE",
"484 745 OFFCURVE",
"557 745 CURVE SMOOTH",
"597 745 OFFCURVE",
"633 755 OFFCURVE",
"660 787 CURVE",
"675 856 LINE",
"640 816 OFFCURVE",
"605 804 OFFCURVE",
"569 804 CURVE SMOOTH",
"504 804 OFFCURVE",
"467 854 OFFCURVE",
"399 854 CURVE SMOOTH",
"360 854 OFFCURVE",
"323 843 OFFCURVE",
"295 811 CURVE",
"280 742 LINE"
);
}
);
width = 814;
}
);
leftKerningGroup = U;
note = Uhorntilde;
rightKerningGroup = U;
unicode = 1EEE;
},
{
glyphname = Uhungarumlaut;
lastChange = "2015-10-28 08:12:40 +0000";
layers = (
{
layerId = "EA8340D9-3B60-45BA-AE27-149F2EF80A01";
name = "Light Italic";
paths = (
{
closed = 1;
nodes = (
"512 -15 OFFCURVE",
"601 88 OFFCURVE",
"636 250 CURVE SMOOTH",
"731 699 LINE",
"653 699 LINE",
"556 244 LINE SMOOTH",
"529 113 OFFCURVE",
"441 55 OFFCURVE",
"315 55 CURVE SMOOTH",
"183 55 OFFCURVE",
"125 109 OFFCURVE",
"154 244 CURVE SMOOTH",
"251 699 LINE",
"173 699 LINE",
"78 250 LINE SMOOTH",
"45 94 OFFCURVE",
"123 -15 OFFCURVE",
"300 -15 CURVE SMOOTH"
);
},
{
closed = 1;
nodes = (
"387 742 LINE",
"503 912 LINE",
"422 912 LINE",
"319 742 LINE"
);
},
{
closed = 1;
nodes = (
"577 742 LINE",
"693 912 LINE",
"612 912 LINE",
"508 742 LINE"
);
}
);
width = 688;
}
);
leftKerningGroup = U;
note = Uhungarumlaut;
rightKerningGroup = U;
unicode = 0170;
},
{
glyphname = Umacron;
lastChange = "2015-10-28 08:12:39 +0000";
layers = (
{
layerId = "EA8340D9-3B60-45BA-AE27-149F2EF80A01";
name = "Light Italic";
paths = (
{
closed = 1;
nodes = (
"512 -15 OFFCURVE",
"601 88 OFFCURVE",
"636 250 CURVE SMOOTH",
"731 699 LINE",
"653 699 LINE",
"556 244 LINE SMOOTH",
"529 113 OFFCURVE",
"441 55 OFFCURVE",
"315 55 CURVE SMOOTH",
"183 55 OFFCURVE",
"125 109 OFFCURVE",
"154 244 CURVE SMOOTH",
"251 699 LINE",
"173 699 LINE",
"78 250 LINE SMOOTH",
"45 94 OFFCURVE",
"123 -15 OFFCURVE",
"300 -15 CURVE SMOOTH"
);
},
{
closed = 1;
nodes = (
"615 762 LINE",
"626 816 LINE",
"326 816 LINE",
"315 762 LINE"
);
}
);
width = 688;
}
);
leftKerningGroup = U;
note = Umacron;
rightKerningGroup = U;
unicode = 016A;
},
{
glyphname = Uogonek;
lastChange = "2015-10-28 08:12:40 +0000";
layers = (
{
layerId = "EA8340D9-3B60-45BA-AE27-149F2EF80A01";
name = "Light Italic";
paths = (
{
closed = 1;
nodes = (
"291 -210 OFFCURVE",
"316 -206 OFFCURVE",
"333 -199 CURVE",
"344 -149 LINE",
"330 -155 OFFCURVE",
"313 -159 OFFCURVE",
"295 -159 CURVE SMOOTH",
"263 -159 OFFCURVE",
"251 -145 OFFCURVE",
"258 -112 CURVE SMOOTH",
"266 -75 OFFCURVE",
"293 -43 OFFCURVE",
"337 -14 CURVE",
"522 -2 OFFCURVE",
"603 98 OFFCURVE",
"636 250 CURVE SMOOTH",
"731 699 LINE",
"653 699 LINE",
"556 244 LINE SMOOTH",
"529 113 OFFCURVE",
"441 55 OFFCURVE",
"315 55 CURVE SMOOTH",
"183 55 OFFCURVE",
"125 109 OFFCURVE",
"154 244 CURVE SMOOTH",
"251 699 LINE",
"173 699 LINE",
"78 250 LINE SMOOTH",
"47 104 OFFCURVE",
"113 0 OFFCURVE",
"267 -13 CURVE",
"229 -40 OFFCURVE",
"196 -79 OFFCURVE",
"187 -123 CURVE SMOOTH",
"175 -182 OFFCURVE",
"213 -210 OFFCURVE",
"266 -210 CURVE SMOOTH"
);
}
);
width = 688;
}
);
leftKerningGroup = U;
note = Uogonek;
rightKerningGroup = U;
unicode = 0172;
},
{
glyphname = Uring;
lastChange = "2015-10-28 08:12:40 +0000";
layers = (
{
layerId = "EA8340D9-3B60-45BA-AE27-149F2EF80A01";
name = "Light Italic";
paths = (
{
closed = 1;
nodes = (
"512 -15 OFFCURVE",
"601 88 OFFCURVE",
"636 250 CURVE SMOOTH",
"731 699 LINE",
"653 699 LINE",
"556 244 LINE SMOOTH",
"529 113 OFFCURVE",
"441 55 OFFCURVE",
"315 55 CURVE SMOOTH",
"183 55 OFFCURVE",
"125 109 OFFCURVE",
"154 244 CURVE SMOOTH",
"251 699 LINE",
"173 699 LINE",
"78 250 LINE SMOOTH",
"45 94 OFFCURVE",
"123 -15 OFFCURVE",
"300 -15 CURVE SMOOTH"
);
},
{
closed = 1;
nodes = (
"526 742 OFFCURVE",
"579 790 OFFCURVE",
"592 850 CURVE SMOOTH",
"604 909 OFFCURVE",
"566 958 OFFCURVE",
"507 958 CURVE SMOOTH",
"442 958 OFFCURVE",
"388 909 OFFCURVE",
"376 850 CURVE SMOOTH",
"363 790 OFFCURVE",
"403 742 OFFCURVE",
"461 742 CURVE SMOOTH"
);
},
{
closed = 1;
nodes = (
"432 792 OFFCURVE",
"420 819 OFFCURVE",
"427 850 CURVE SMOOTH",
"433 881 OFFCURVE",
"464 907 OFFCURVE",
"496 907 CURVE SMOOTH",
"537 907 OFFCURVE",
"547 881 OFFCURVE",
"541 850 CURVE SMOOTH",
"534 819 OFFCURVE",
"503 792 OFFCURVE",
"472 792 CURVE SMOOTH"
);
}
);
width = 688;
}
);
leftKerningGroup = U;
note = Uring;
rightKerningGroup = U;
unicode = 016E;
},
{
glyphname = Utilde;
lastChange = "2015-10-28 08:12:40 +0000";
layers = (
{
layerId = "EA8340D9-3B60-45BA-AE27-149F2EF80A01";
name = "Light Italic";
paths = (
{
closed = 1;
nodes = (
"512 -15 OFFCURVE",
"601 88 OFFCURVE",
"636 250 CURVE SMOOTH",
"731 699 LINE",
"653 699 LINE",
"556 244 LINE SMOOTH",
"529 113 OFFCURVE",
"441 55 OFFCURVE",
"315 55 CURVE SMOOTH",
"183 55 OFFCURVE",
"125 109 OFFCURVE",
"154 244 CURVE SMOOTH",
"251 699 LINE",
"173 699 LINE",
"78 250 LINE SMOOTH",
"45 94 OFFCURVE",
"123 -15 OFFCURVE",
"300 -15 CURVE SMOOTH"
);
},
{
closed = 1;
nodes = (
"314 783 OFFCURVE",
"348 795 OFFCURVE",
"383 795 CURVE SMOOTH",
"447 795 OFFCURVE",
"480 745 OFFCURVE",
"553 745 CURVE SMOOTH",
"593 745 OFFCURVE",
"629 755 OFFCURVE",
"656 787 CURVE",
"671 856 LINE",
"636 816 OFFCURVE",
"601 804 OFFCURVE",
"565 804 CURVE SMOOTH",
"500 804 OFFCURVE",
"463 854 OFFCURVE",
"395 854 CURVE SMOOTH",
"356 854 OFFCURVE",
"319 843 OFFCURVE",
"291 811 CURVE",
"276 742 LINE"
);
}
);
width = 688;
}
);
leftKerningGroup = U;
note = Utilde;
rightKerningGroup = U;
unicode = 0168;
},
{
glyphname = V;
lastChange = "2015-10-28 08:12:39 +0000";
layers = (
{
layerId = "EA8340D9-3B60-45BA-AE27-149F2EF80A01";
name = "Light Italic";
paths = (
{
closed = 1;
nodes = (
"362 0 LINE",
"789 699 LINE",
"704 699 LINE",
"344 108 LINE",
"237 699 LINE",
"158 699 LINE",
"289 0 LINE"
);
}
);
width = 731;
}
);
note = V;
unicode = 0056;
},
{
glyphname = W;
lastChange = "2015-10-28 08:12:40 +0000";
layers = (
{
layerId = "EA8340D9-3B60-45BA-AE27-149F2EF80A01";
name = "Light Italic";
paths = (
{
closed = 1;
nodes = (
"298 0 LINE",
"588 571 LINE",
"637 0 LINE",
"710 0 LINE",
"1067 699 LINE",
"986 699 LINE",
"693 131 LINE",
"645 699 LINE",
"583 699 LINE",
"291 132 LINE",
"239 699 LINE",
"158 699 LINE",
"219 0 LINE"
);
}
);
width = 1009;
}
);
leftKerningGroup = W;
note = W;
rightKerningGroup = W;
unicode = 0057;
},
{
glyphname = Wacute;
lastChange = "2015-10-28 08:12:41 +0000";
layers = (
{
layerId = "EA8340D9-3B60-45BA-AE27-149F2EF80A01";
name = "Light Italic";
paths = (
{
closed = 1;
nodes = (
"298 0 LINE",
"588 571 LINE",
"637 0 LINE",
"710 0 LINE",
"1067 699 LINE",
"986 699 LINE",
"693 131 LINE",
"645 699 LINE",
"583 699 LINE",
"291 132 LINE",
"239 699 LINE",
"158 699 LINE",
"219 0 LINE"
);
},
{
closed = 1;
nodes = (
"663 742 LINE",
"779 912 LINE",
"698 912 LINE",
"594 742 LINE"
);
}
);
width = 1009;
}
);
leftKerningGroup = W;
note = Wacute;
rightKerningGroup = W;
unicode = 1E82;
},
{
glyphname = Wcircumflex;
lastChange = "2015-10-28 08:12:40 +0000";
layers = (
{
layerId = "EA8340D9-3B60-45BA-AE27-149F2EF80A01";
name = "Light Italic";
paths = (
{
closed = 1;
nodes = (
"298 0 LINE",
"588 571 LINE",
"637 0 LINE",
"710 0 LINE",
"1067 699 LINE",
"986 699 LINE",
"693 131 LINE",
"645 699 LINE",
"583 699 LINE",
"291 132 LINE",
"239 699 LINE",
"158 699 LINE",
"219 0 LINE"
);
},
{
closed = 1;
nodes = (
"533 742 LINE",
"649 856 LINE",
"717 742 LINE",
"792 742 LINE",
"689 903 LINE",
"622 903 LINE",
"452 742 LINE"
);
}
);
width = 1009;
}
);
leftKerningGroup = W;
note = Wcircumflex;
rightKerningGroup = W;
unicode = 0174;
},
{
glyphname = Wdieresis;
lastChange = "2015-10-28 08:12:40 +0000";
layers = (
{
layerId = "EA8340D9-3B60-45BA-AE27-149F2EF80A01";
name = "Light Italic";
paths = (
{
closed = 1;
nodes = (
"298 0 LINE",
"588 571 LINE",
"637 0 LINE",
"710 0 LINE",
"1067 699 LINE",
"986 699 LINE",
"693 131 LINE",
"645 699 LINE",
"583 699 LINE",
"291 132 LINE",
"239 699 LINE",
"158 699 LINE",
"219 0 LINE"
);
},
{
closed = 1;
nodes = (
"539 742 OFFCURVE",
"566 764 OFFCURVE",
"572 791 CURVE SMOOTH",
"578 818 OFFCURVE",
"559 840 OFFCURVE",
"533 840 CURVE SMOOTH",
"506 840 OFFCURVE",
"480 818 OFFCURVE",
"474 791 CURVE SMOOTH",
"468 764 OFFCURVE",
"487 742 OFFCURVE",
"513 742 CURVE SMOOTH"
);
},
{
closed = 1;
nodes = (
"756 742 OFFCURVE",
"783 764 OFFCURVE",
"789 791 CURVE SMOOTH",
"795 818 OFFCURVE",
"776 840 OFFCURVE",
"750 840 CURVE SMOOTH",
"723 840 OFFCURVE",
"696 818 OFFCURVE",
"690 791 CURVE SMOOTH",
"684 764 OFFCURVE",
"703 742 OFFCURVE",
"730 742 CURVE SMOOTH"
);
}
);
width = 1009;
}
);
leftKerningGroup = W;
note = Wdieresis;
rightKerningGroup = W;
unicode = 1E84;
},
{
glyphname = Wgrave;
lastChange = "2015-10-28 08:12:39 +0000";
layers = (
{
layerId = "EA8340D9-3B60-45BA-AE27-149F2EF80A01";
name = "Light Italic";
paths = (
{
closed = 1;
nodes = (
"298 0 LINE",
"588 571 LINE",
"637 0 LINE",
"710 0 LINE",
"1067 699 LINE",
"986 699 LINE",
"693 131 LINE",
"645 699 LINE",
"583 699 LINE",
"291 132 LINE",
"239 699 LINE",
"158 699 LINE",
"219 0 LINE"
);
},
{
closed = 1;
nodes = (
"651 742 LINE",
"619 912 LINE",
"538 912 LINE",
"582 742 LINE"
);
}
);
width = 1009;
}
);
leftKerningGroup = W;
note = Wgrave;
rightKerningGroup = W;
unicode = 1E80;
},
{
glyphname = X;
lastChange = "2015-10-28 08:12:39 +0000";
layers = (
{
layerId = "EA8340D9-3B60-45BA-AE27-149F2EF80A01";
name = "Light Italic";
paths = (
{
closed = 1;
nodes = (
"101 0 LINE",
"384 298 LINE",
"542 0 LINE",
"629 0 LINE",
"440 357 LINE",
"766 699 LINE",
"677 699 LINE",
"409 417 LINE",
"260 699 LINE",
"173 699 LINE",
"353 358 LINE",
"12 0 LINE"
);
}
);
width = 723;
}
);
note = X;
unicode = 0058;
},
{
glyphname = Y;
lastChange = "2015-10-28 08:12:41 +0000";
layers = (
{
layerId = "EA8340D9-3B60-45BA-AE27-149F2EF80A01";
name = "Light Italic";
paths = (
{
closed = 1;
nodes = (
"342 0 LINE",
"398 265 LINE",
"744 699 LINE",
"659 699 LINE",
"371 336 LINE",
"238 699 LINE",
"158 699 LINE",
"320 265 LINE",
"264 0 LINE"
);
}
);
width = 686;
}
);
leftKerningGroup = Y;
note = Y;
rightKerningGroup = Y;
unicode = 0059;
},
{
glyphname = Yacute;
lastChange = "2015-10-28 08:12:41 +0000";
layers = (
{
layerId = "EA8340D9-3B60-45BA-AE27-149F2EF80A01";
name = "Light Italic";
paths = (
{
closed = 1;
nodes = (
"342 0 LINE",
"398 265 LINE",
"744 699 LINE",
"659 699 LINE",
"371 336 LINE",
"238 699 LINE",
"158 699 LINE",
"320 265 LINE",
"264 0 LINE"
);
},
{
closed = 1;
nodes = (
"489 742 LINE",
"605 912 LINE",
"524 912 LINE",
"420 742 LINE"
);
}
);
width = 686;
}
);
leftKerningGroup = Y;
note = Yacute;
rightKerningGroup = Y;
unicode = 00DD;
},
{
glyphname = Ycircumflex;
lastChange = "2015-10-28 08:12:41 +0000";
layers = (
{
layerId = "EA8340D9-3B60-45BA-AE27-149F2EF80A01";
name = "Light Italic";
paths = (
{
closed = 1;
nodes = (
"342 0 LINE",
"398 265 LINE",
"744 699 LINE",
"659 699 LINE",
"371 336 LINE",
"238 699 LINE",
"158 699 LINE",
"320 265 LINE",
"264 0 LINE"
);
},
{
closed = 1;
nodes = (
"372 742 LINE",
"488 856 LINE",
"556 742 LINE",
"631 742 LINE",
"528 903 LINE",
"461 903 LINE",
"291 742 LINE"
);
}
);
width = 686;
}
);
leftKerningGroup = Y;
note = Ycircumflex;
rightKerningGroup = Y;
unicode = 0176;
},
{
glyphname = Ydieresis;
lastChange = "2015-10-28 08:12:39 +0000";
layers = (
{
layerId = "EA8340D9-3B60-45BA-AE27-149F2EF80A01";
name = "Light Italic";
paths = (
{
closed = 1;
nodes = (
"342 0 LINE",
"398 265 LINE",
"744 699 LINE",
"659 699 LINE",
"371 336 LINE",
"238 699 LINE",
"158 699 LINE",
"320 265 LINE",
"264 0 LINE"
);
},
{
closed = 1;
nodes = (
"378 742 OFFCURVE",
"405 764 OFFCURVE",
"411 791 CURVE SMOOTH",
"417 818 OFFCURVE",
"398 840 OFFCURVE",
"372 840 CURVE SMOOTH",
"345 840 OFFCURVE",
"319 818 OFFCURVE",
"313 791 CURVE SMOOTH",
"307 764 OFFCURVE",
"326 742 OFFCURVE",
"352 742 CURVE SMOOTH"
);
},
{
closed = 1;
nodes = (
"595 742 OFFCURVE",
"622 764 OFFCURVE",
"628 791 CURVE SMOOTH",
"634 818 OFFCURVE",
"615 840 OFFCURVE",
"589 840 CURVE SMOOTH",
"562 840 OFFCURVE",
"535 818 OFFCURVE",
"529 791 CURVE SMOOTH",
"523 764 OFFCURVE",
"542 742 OFFCURVE",
"569 742 CURVE SMOOTH"
);
}
);
width = 686;
}
);
leftKerningGroup = Y;
note = Ydieresis;
rightKerningGroup = Y;
unicode = 0178;
},
{
glyphname = Ydotaccent;
lastChange = "2015-10-28 08:12:39 +0000";
layers = (
{
layerId = "EA8340D9-3B60-45BA-AE27-149F2EF80A01";
name = "Light Italic";
paths = (
{
closed = 1;
nodes = (
"342 0 LINE",
"398 265 LINE",
"744 699 LINE",
"659 699 LINE",
"371 336 LINE",
"238 699 LINE",
"158 699 LINE",
"320 265 LINE",
"264 0 LINE"
);
},
{
closed = 1;
nodes = (
"487 742 OFFCURVE",
"514 764 OFFCURVE",
"520 791 CURVE SMOOTH",
"526 818 OFFCURVE",
"507 840 OFFCURVE",
"481 840 CURVE SMOOTH",
"454 840 OFFCURVE",
"427 818 OFFCURVE",
"421 791 CURVE SMOOTH",
"415 764 OFFCURVE",
"434 742 OFFCURVE",
"461 742 CURVE SMOOTH"
);
}
);
width = 686;
}
);
leftKerningGroup = Y;
note = Ydotaccent;
rightKerningGroup = Y;
unicode = 1E8E;
},
{
glyphname = Ydotbelow;
lastChange = "2015-10-28 08:12:40 +0000";
layers = (
{
layerId = "EA8340D9-3B60-45BA-AE27-149F2EF80A01";
name = "Light Italic";
paths = (
{
closed = 1;
nodes = (
"342 0 LINE",
"398 265 LINE",
"744 699 LINE",
"659 699 LINE",
"371 336 LINE",
"238 699 LINE",
"158 699 LINE",
"320 265 LINE",
"264 0 LINE"
);
},
{
closed = 1;
nodes = (
"298 -152 OFFCURVE",
"325 -130 OFFCURVE",
"331 -103 CURVE",
"336 -76 OFFCURVE",
"318 -54 OFFCURVE",
"293 -54 CURVE SMOOTH",
"266 -54 OFFCURVE",
"238 -76 OFFCURVE",
"233 -103 CURVE",
"227 -130 OFFCURVE",
"245 -152 OFFCURVE",
"272 -152 CURVE SMOOTH"
);
}
);
width = 686;
}
);
leftKerningGroup = Y;
note = Ydotbelow;
rightKerningGroup = Y;
unicode = 1EF4;
},
{
glyphname = Ygrave;
lastChange = "2015-10-28 08:12:41 +0000";
layers = (
{
layerId = "EA8340D9-3B60-45BA-AE27-149F2EF80A01";
name = "Light Italic";
paths = (
{
closed = 1;
nodes = (
"342 0 LINE",
"398 265 LINE",
"744 699 LINE",
"659 699 LINE",
"371 336 LINE",
"238 699 LINE",
"158 699 LINE",
"320 265 LINE",
"264 0 LINE"
);
},
{
closed = 1;
nodes = (
"493 742 LINE",
"461 912 LINE",
"380 912 LINE",
"424 742 LINE"
);
}
);
width = 686;
}
);
leftKerningGroup = Y;
note = Ygrave;
rightKerningGroup = Y;
unicode = 1EF2;
},
{
glyphname = Yhookabove;
lastChange = "2015-10-28 08:12:40 +0000";
layers = (
{
layerId = "EA8340D9-3B60-45BA-AE27-149F2EF80A01";
name = "Light Italic";
paths = (
{
closed = 1;
nodes = (
"342 0 LINE",
"398 265 LINE",
"744 699 LINE",
"659 699 LINE",
"371 336 LINE",
"238 699 LINE",
"158 699 LINE",
"320 265 LINE",
"264 0 LINE"
);
},
{
closed = 1;
nodes = (
"487 742 LINE",
"494 777 LINE",
"558 783 OFFCURVE",
"598 823 OFFCURVE",
"608 871 CURVE SMOOTH",
"620 926 OFFCURVE",
"580 964 OFFCURVE",
"506 964 CURVE SMOOTH",
"478 964 OFFCURVE",
"446 959 OFFCURVE",
"428 953 CURVE",
"418 908 LINE",
"431 914 OFFCURVE",
"463 918 OFFCURVE",
"480 918 CURVE SMOOTH",
"527 918 OFFCURVE",
"547 903 OFFCURVE",
"540 868 CURVE SMOOTH",
"531 827 OFFCURVE",
"498 810 OFFCURVE",
"434 810 CURVE",
"420 742 LINE"
);
}
);
width = 686;
}
);
leftKerningGroup = Y;
note = Yhookabove;
rightKerningGroup = Y;
unicode = 1EF6;
},
{
glyphname = Ytilde;
lastChange = "2015-10-28 08:12:41 +0000";
layers = (
{
layerId = "EA8340D9-3B60-45BA-AE27-149F2EF80A01";
name = "Light Italic";
paths = (
{
closed = 1;
nodes = (
"342 0 LINE",
"398 265 LINE",
"744 699 LINE",
"659 699 LINE",
"371 336 LINE",
"238 699 LINE",
"158 699 LINE",
"320 265 LINE",
"264 0 LINE"
);
},
{
closed = 1;
nodes = (
"313 783 OFFCURVE",
"347 795 OFFCURVE",
"382 795 CURVE SMOOTH",
"446 795 OFFCURVE",
"479 745 OFFCURVE",
"552 745 CURVE SMOOTH",
"592 745 OFFCURVE",
"628 755 OFFCURVE",
"655 787 CURVE",
"670 856 LINE",
"635 816 OFFCURVE",
"600 804 OFFCURVE",
"564 804 CURVE SMOOTH",
"499 804 OFFCURVE",
"462 854 OFFCURVE",
"394 854 CURVE SMOOTH",
"355 854 OFFCURVE",
"318 843 OFFCURVE",
"290 811 CURVE",
"275 742 LINE"
);
}
);
width = 686;
}
);
leftKerningGroup = Y;
note = Ytilde;
rightKerningGroup = Y;
unicode = 1EF8;
},
{
glyphname = Z;
lastChange = "2015-10-28 08:12:39 +0000";
layers = (
{
layerId = "EA8340D9-3B60-45BA-AE27-149F2EF80A01";
name = "Light Italic";
paths = (
{
closed = 1;
nodes = (
"527 0 LINE",
"540 65 LINE",
"118 65 LINE",
"648 643 LINE",
"660 699 LINE",
"168 699 LINE",
"154 633 LINE",
"552 633 LINE",
"21 55 LINE",
"10 0 LINE"
);
}
);
width = 617;
}
);
leftKerningGroup = Z;
note = Z;
rightKerningGroup = Z;
unicode = 005A;
},
{
glyphname = Zacute;
lastChange = "2015-10-28 08:12:41 +0000";
layers = (
{
layerId = "EA8340D9-3B60-45BA-AE27-149F2EF80A01";
name = "Light Italic";
paths = (
{
closed = 1;
nodes = (
"527 0 LINE",
"540 65 LINE",
"118 65 LINE",
"648 643 LINE",
"660 699 LINE",
"168 699 LINE",
"154 633 LINE",
"552 633 LINE",
"21 55 LINE",
"10 0 LINE"
);
},
{
closed = 1;
nodes = (
"437 742 LINE",
"553 912 LINE",
"472 912 LINE",
"368 742 LINE"
);
}
);
width = 617;
}
);
leftKerningGroup = Z;
note = Zacute;
rightKerningGroup = Z;
unicode = 0179;
},
{
glyphname = Zcaron;
lastChange = "2015-10-28 08:12:39 +0000";
layers = (
{
layerId = "EA8340D9-3B60-45BA-AE27-149F2EF80A01";
name = "Light Italic";
paths = (
{
closed = 1;
nodes = (
"527 0 LINE",
"540 65 LINE",
"118 65 LINE",
"648 643 LINE",
"660 699 LINE",
"168 699 LINE",
"154 633 LINE",
"552 633 LINE",
"21 55 LINE",
"10 0 LINE"
);
},
{
closed = 1;
nodes = (
"459 742 LINE",
"631 903 LINE",
"550 903 LINE",
"433 789 LINE",
"366 903 LINE",
"291 903 LINE",
"392 742 LINE"
);
}
);
width = 617;
}
);
leftKerningGroup = Z;
note = Zcaron;
rightKerningGroup = Z;
unicode = 017D;
},
{
glyphname = Zdotaccent;
lastChange = "2015-10-28 08:12:40 +0000";
layers = (
{
layerId = "EA8340D9-3B60-45BA-AE27-149F2EF80A01";
name = "Light Italic";
paths = (
{
closed = 1;
nodes = (
"527 0 LINE",
"540 65 LINE",
"118 65 LINE",
"648 643 LINE",
"660 699 LINE",
"168 699 LINE",
"154 633 LINE",
"552 633 LINE",
"21 55 LINE",
"10 0 LINE"
);
},
{
closed = 1;
nodes = (
"442 742 OFFCURVE",
"469 764 OFFCURVE",
"475 791 CURVE SMOOTH",
"481 818 OFFCURVE",
"462 840 OFFCURVE",
"436 840 CURVE SMOOTH",
"409 840 OFFCURVE",
"382 818 OFFCURVE",
"376 791 CURVE SMOOTH",
"370 764 OFFCURVE",
"389 742 OFFCURVE",
"416 742 CURVE SMOOTH"
);
}
);
width = 617;
}
);
leftKerningGroup = Z;
note = Zdotaccent;
rightKerningGroup = Z;
unicode = 017B;
},
{
glyphname = Zdotbelow;
lastChange = "2015-10-28 08:12:40 +0000";
layers = (
{
layerId = "EA8340D9-3B60-45BA-AE27-149F2EF80A01";
name = "Light Italic";
paths = (
{
closed = 1;
nodes = (
"527 0 LINE",
"540 65 LINE",
"118 65 LINE",
"648 643 LINE",
"660 699 LINE",
"168 699 LINE",
"154 633 LINE",
"552 633 LINE",
"21 55 LINE",
"10 0 LINE"
);
},
{
closed = 1;
nodes = (
"272 -152 OFFCURVE",
"299 -130 OFFCURVE",
"305 -103 CURVE",
"310 -76 OFFCURVE",
"292 -54 OFFCURVE",
"267 -54 CURVE SMOOTH",
"240 -54 OFFCURVE",
"212 -76 OFFCURVE",
"207 -103 CURVE",
"201 -130 OFFCURVE",
"219 -152 OFFCURVE",
"246 -152 CURVE SMOOTH"
);
}
);
width = 617;
}
);
leftKerningGroup = Z;
note = Zdotbelow;
rightKerningGroup = Z;
unicode = 1E92;
},
{
glyphname = a;
lastChange = "2015-10-28 08:12:41 +0000";
layers = (
{
layerId = "EA8340D9-3B60-45BA-AE27-149F2EF80A01";
name = "Light Italic";
paths = (
{
closed = 1;
nodes = (
"357 -15 OFFCURVE",
"423 9 OFFCURVE",
"487 75 CURVE",
"471 0 LINE",
"546 0 LINE",
"648 480 LINE",
"571 480 LINE",
"553 399 LINE",
"523 459 OFFCURVE",
"459 495 OFFCURVE",
"366 495 CURVE SMOOTH",
"223 495 OFFCURVE",
"93 392 OFFCURVE",
"60 239 CURVE SMOOTH",
"27 83 OFFCURVE",
"115 -15 OFFCURVE",
"257 -15 CURVE SMOOTH"
);
},
{
closed = 1;
nodes = (
"180 46 OFFCURVE",
"112 122 OFFCURVE",
"137 239 CURVE SMOOTH",
"162 356 OFFCURVE",
"263 433 OFFCURVE",
"369 433 CURVE SMOOTH",
"469 433 OFFCURVE",
"525 382 OFFCURVE",
"532 299 CURVE",
"507 179 LINE",
"462 96 OFFCURVE",
"377 46 OFFCURVE",
"286 46 CURVE SMOOTH"
);
}
);
width = 651;
}
);
leftKerningGroup = a;
note = a;
rightKerningGroup = a;
unicode = 0061;
},
{
glyphname = aacute;
lastChange = "2015-10-28 08:12:41 +0000";
layers = (
{
layerId = "EA8340D9-3B60-45BA-AE27-149F2EF80A01";
name = "Light Italic";
paths = (
{
closed = 1;
nodes = (
"357 -15 OFFCURVE",
"423 9 OFFCURVE",
"487 75 CURVE",
"471 0 LINE",
"546 0 LINE",
"648 480 LINE",
"571 480 LINE",
"553 399 LINE",
"523 459 OFFCURVE",
"459 495 OFFCURVE",
"366 495 CURVE SMOOTH",
"223 495 OFFCURVE",
"93 392 OFFCURVE",
"60 239 CURVE SMOOTH",
"27 83 OFFCURVE",
"115 -15 OFFCURVE",
"257 -15 CURVE SMOOTH"
);
},
{
closed = 1;
nodes = (
"180 46 OFFCURVE",
"112 122 OFFCURVE",
"137 239 CURVE SMOOTH",
"162 356 OFFCURVE",
"263 433 OFFCURVE",
"369 433 CURVE SMOOTH",
"469 433 OFFCURVE",
"525 382 OFFCURVE",
"532 299 CURVE",
"507 179 LINE",
"462 96 OFFCURVE",
"377 46 OFFCURVE",
"286 46 CURVE SMOOTH"
);
},
{
closed = 1;
nodes = (
"485 535 LINE",
"601 705 LINE",
"520 705 LINE",
"416 535 LINE"
);
}
);
width = 651;
}
);
leftKerningGroup = a;
note = aacute;
rightKerningGroup = a;
unicode = 00E1;
},
{
glyphname = abreve;
lastChange = "2015-10-28 08:12:40 +0000";
layers = (
{
layerId = "EA8340D9-3B60-45BA-AE27-149F2EF80A01";
name = "Light Italic";
paths = (
{
closed = 1;
nodes = (
"357 -15 OFFCURVE",
"423 9 OFFCURVE",
"487 75 CURVE",
"471 0 LINE",
"546 0 LINE",
"648 480 LINE",
"571 480 LINE",
"553 399 LINE",
"523 459 OFFCURVE",
"459 495 OFFCURVE",
"366 495 CURVE SMOOTH",
"223 495 OFFCURVE",
"93 392 OFFCURVE",
"60 239 CURVE SMOOTH",
"27 83 OFFCURVE",
"115 -15 OFFCURVE",
"257 -15 CURVE SMOOTH"
);
},
{
closed = 1;
nodes = (
"180 46 OFFCURVE",
"112 122 OFFCURVE",
"137 239 CURVE SMOOTH",
"162 356 OFFCURVE",
"263 433 OFFCURVE",
"369 433 CURVE SMOOTH",
"469 433 OFFCURVE",
"525 382 OFFCURVE",
"532 299 CURVE",
"507 179 LINE",
"462 96 OFFCURVE",
"377 46 OFFCURVE",
"286 46 CURVE SMOOTH"
);
},
{
closed = 1;
nodes = (
"550 535 OFFCURVE",
"615 590 OFFCURVE",
"631 665 CURVE",
"569 665 LINE",
"560 619 OFFCURVE",
"523 589 OFFCURVE",
"473 589 CURVE SMOOTH",
"423 589 OFFCURVE",
"400 619 OFFCURVE",
"409 665 CURVE",
"352 665 LINE",
"337 590 OFFCURVE",
"379 535 OFFCURVE",
"465 535 CURVE SMOOTH"
);
}
);
width = 651;
}
);
leftKerningGroup = a;
note = abreve;
rightKerningGroup = a;
unicode = 0103;
},
{
glyphname = abreveacute;
lastChange = "2015-10-28 08:12:39 +0000";
layers = (
{
layerId = "EA8340D9-3B60-45BA-AE27-149F2EF80A01";
name = "Light Italic";
paths = (
{
closed = 1;
nodes = (
"357 -15 OFFCURVE",
"423 9 OFFCURVE",
"487 75 CURVE",
"471 0 LINE",
"546 0 LINE",
"648 480 LINE",
"571 480 LINE",
"553 399 LINE",
"523 459 OFFCURVE",
"459 495 OFFCURVE",
"366 495 CURVE SMOOTH",
"223 495 OFFCURVE",
"93 392 OFFCURVE",
"60 239 CURVE SMOOTH",
"27 83 OFFCURVE",
"115 -15 OFFCURVE",
"257 -15 CURVE SMOOTH"
);
},
{
closed = 1;
nodes = (
"180 46 OFFCURVE",
"112 122 OFFCURVE",
"137 239 CURVE SMOOTH",
"162 356 OFFCURVE",
"263 433 OFFCURVE",
"369 433 CURVE SMOOTH",
"469 433 OFFCURVE",
"525 382 OFFCURVE",
"532 299 CURVE",
"507 179 LINE",
"462 96 OFFCURVE",
"377 46 OFFCURVE",
"286 46 CURVE SMOOTH"
);
},
{
closed = 1;
nodes = (
"536 535 OFFCURVE",
"601 589 OFFCURVE",
"616 663 CURVE",
"559 663 LINE",
"549 617 OFFCURVE",
"514 588 OFFCURVE",
"464 588 CURVE SMOOTH",
"415 588 OFFCURVE",
"391 617 OFFCURVE",
"401 663 CURVE",
"343 663 LINE",
"327 589 OFFCURVE",
"368 535 OFFCURVE",
"452 535 CURVE SMOOTH"
);
},
{
closed = 1;
nodes = (
"496 648 LINE",
"585 771 LINE",
"521 771 LINE",
"442 648 LINE"
);
}
);
width = 651;
}
);
leftKerningGroup = a;
note = abreveacute;
rightKerningGroup = a;
unicode = 1EAF;
},
{
glyphname = abrevedotbelow;
lastChange = "2015-10-28 08:12:40 +0000";
layers = (
{
layerId = "EA8340D9-3B60-45BA-AE27-149F2EF80A01";
name = "Light Italic";
paths = (
{
closed = 1;
nodes = (
"357 -15 OFFCURVE",
"423 9 OFFCURVE",
"487 75 CURVE",
"471 0 LINE",
"546 0 LINE",
"648 480 LINE",
"571 480 LINE",
"553 399 LINE",
"523 459 OFFCURVE",
"459 495 OFFCURVE",
"366 495 CURVE SMOOTH",
"223 495 OFFCURVE",
"93 392 OFFCURVE",
"60 239 CURVE SMOOTH",
"27 83 OFFCURVE",
"115 -15 OFFCURVE",
"257 -15 CURVE SMOOTH"
);
},
{
closed = 1;
nodes = (
"327 -152 OFFCURVE",
"354 -130 OFFCURVE",
"360 -103 CURVE",
"365 -76 OFFCURVE",
"347 -54 OFFCURVE",
"322 -54 CURVE SMOOTH",
"295 -54 OFFCURVE",
"267 -76 OFFCURVE",
"262 -103 CURVE",
"256 -130 OFFCURVE",
"274 -152 OFFCURVE",
"301 -152 CURVE SMOOTH"
);
},
{
closed = 1;
nodes = (
"180 46 OFFCURVE",
"112 122 OFFCURVE",
"137 239 CURVE SMOOTH",
"162 356 OFFCURVE",
"263 433 OFFCURVE",
"369 433 CURVE SMOOTH",
"469 433 OFFCURVE",
"525 382 OFFCURVE",
"532 299 CURVE",
"507 179 LINE",
"462 96 OFFCURVE",
"377 46 OFFCURVE",
"286 46 CURVE SMOOTH"
);
},
{
closed = 1;
nodes = (
"530 535 OFFCURVE",
"595 590 OFFCURVE",
"611 665 CURVE",
"549 665 LINE",
"540 619 OFFCURVE",
"503 589 OFFCURVE",
"453 589 CURVE SMOOTH",
"403 589 OFFCURVE",
"380 619 OFFCURVE",
"389 665 CURVE",
"332 665 LINE",
"317 590 OFFCURVE",
"359 535 OFFCURVE",
"445 535 CURVE SMOOTH"
);
}
);
width = 651;
}
);
leftKerningGroup = a;
note = abrevedotbelow;
rightKerningGroup = a;
unicode = 1EB7;
},
{
glyphname = abrevegrave;
lastChange = "2015-10-28 08:12:40 +0000";
layers = (
{
layerId = "EA8340D9-3B60-45BA-AE27-149F2EF80A01";
name = "Light Italic";
paths = (
{
closed = 1;
nodes = (
"357 -15 OFFCURVE",
"423 9 OFFCURVE",
"487 75 CURVE",
"471 0 LINE",
"546 0 LINE",
"648 480 LINE",
"571 480 LINE",
"553 399 LINE",
"523 459 OFFCURVE",
"459 495 OFFCURVE",
"366 495 CURVE SMOOTH",
"223 495 OFFCURVE",
"93 392 OFFCURVE",
"60 239 CURVE SMOOTH",
"27 83 OFFCURVE",
"115 -15 OFFCURVE",
"257 -15 CURVE SMOOTH"
);
},
{
closed = 1;
nodes = (
"180 46 OFFCURVE",
"112 122 OFFCURVE",
"137 239 CURVE SMOOTH",
"162 356 OFFCURVE",
"263 433 OFFCURVE",
"369 433 CURVE SMOOTH",
"469 433 OFFCURVE",
"525 382 OFFCURVE",
"532 299 CURVE",
"507 179 LINE",
"462 96 OFFCURVE",
"377 46 OFFCURVE",
"286 46 CURVE SMOOTH"
);
},
{
closed = 1;
nodes = (
"540 535 OFFCURVE",
"605 589 OFFCURVE",
"620 663 CURVE",
"563 663 LINE",
"553 617 OFFCURVE",
"518 588 OFFCURVE",
"468 588 CURVE SMOOTH",
"419 588 OFFCURVE",
"395 617 OFFCURVE",
"405 663 CURVE",
"347 663 LINE",
"331 589 OFFCURVE",
"372 535 OFFCURVE",
"456 535 CURVE SMOOTH"
);
},
{
closed = 1;
nodes = (
"517 648 LINE",
"490 771 LINE",
"425 771 LINE",
"463 648 LINE"
);
}
);
width = 651;
}
);
leftKerningGroup = a;
note = abrevegrave;
rightKerningGroup = a;
unicode = 1EB1;
},
{
glyphname = abrevehookabove;
lastChange = "2015-10-28 08:12:39 +0000";
layers = (
{
layerId = "EA8340D9-3B60-45BA-AE27-149F2EF80A01";
name = "Light Italic";
paths = (
{
closed = 1;
nodes = (
"357 -15 OFFCURVE",
"423 9 OFFCURVE",
"487 75 CURVE",
"471 0 LINE",
"546 0 LINE",
"648 480 LINE",
"571 480 LINE",
"553 399 LINE",
"523 459 OFFCURVE",
"459 495 OFFCURVE",
"366 495 CURVE SMOOTH",
"223 495 OFFCURVE",
"93 392 OFFCURVE",
"60 239 CURVE SMOOTH",
"27 83 OFFCURVE",
"115 -15 OFFCURVE",
"257 -15 CURVE SMOOTH"
);
},
{
closed = 1;
nodes = (
"180 46 OFFCURVE",
"112 122 OFFCURVE",
"137 239 CURVE SMOOTH",
"162 356 OFFCURVE",
"263 433 OFFCURVE",
"369 433 CURVE SMOOTH",
"469 433 OFFCURVE",
"525 382 OFFCURVE",
"532 299 CURVE",
"507 179 LINE",
"462 96 OFFCURVE",
"377 46 OFFCURVE",
"286 46 CURVE SMOOTH"
);
},
{
closed = 1;
nodes = (
"536 535 OFFCURVE",
"601 589 OFFCURVE",
"616 663 CURVE",
"560 663 LINE",
"550 617 OFFCURVE",
"514 587 OFFCURVE",
"464 587 CURVE SMOOTH",
"414 587 OFFCURVE",
"390 617 OFFCURVE",
"400 663 CURVE",
"343 663 LINE",
"327 589 OFFCURVE",
"368 535 OFFCURVE",
"452 535 CURVE SMOOTH"
);
},
{
closed = 1;
nodes = (
"496 635 LINE",
"501 660 LINE",
"545 666 OFFCURVE",
"575 693 OFFCURVE",
"582 725 CURVE SMOOTH",
"590 765 OFFCURVE",
"567 791 OFFCURVE",
"512 791 CURVE SMOOTH",
"491 791 OFFCURVE",
"465 787 OFFCURVE",
"450 782 CURVE",
"442 746 LINE",
"453 751 OFFCURVE",
"473 754 OFFCURVE",
"489 754 CURVE SMOOTH",
"518 754 OFFCURVE",
"531 743 OFFCURVE",
"526 721 CURVE SMOOTH",
"521 697 OFFCURVE",
"499 685 OFFCURVE",
"456 685 CURVE",
"446 635 LINE"
);
}
);
width = 651;
}
);
leftKerningGroup = a;
note = abrevehookabove;
rightKerningGroup = a;
unicode = 1EB3;
},
{
glyphname = abrevetilde;
lastChange = "2015-10-28 08:12:40 +0000";
layers = (
{
layerId = "EA8340D9-3B60-45BA-AE27-149F2EF80A01";
name = "Light Italic";
paths = (
{
closed = 1;
nodes = (
"357 -15 OFFCURVE",
"423 9 OFFCURVE",
"487 75 CURVE",
"471 0 LINE",
"546 0 LINE",
"648 480 LINE",
"571 480 LINE",
"553 399 LINE",
"523 459 OFFCURVE",
"459 495 OFFCURVE",
"366 495 CURVE SMOOTH",
"223 495 OFFCURVE",
"93 392 OFFCURVE",
"60 239 CURVE SMOOTH",
"27 83 OFFCURVE",
"115 -15 OFFCURVE",
"257 -15 CURVE SMOOTH"
);
},
{
closed = 1;
nodes = (
"180 46 OFFCURVE",
"112 122 OFFCURVE",
"137 239 CURVE SMOOTH",
"162 356 OFFCURVE",
"263 433 OFFCURVE",
"369 433 CURVE SMOOTH",
"469 433 OFFCURVE",
"525 382 OFFCURVE",
"532 299 CURVE",
"507 179 LINE",
"462 96 OFFCURVE",
"377 46 OFFCURVE",
"286 46 CURVE SMOOTH"
);
},
{
closed = 1;
nodes = (
"549 535 OFFCURVE",
"614 589 OFFCURVE",
"629 663 CURVE",
"573 663 LINE",
"563 617 OFFCURVE",
"527 587 OFFCURVE",
"477 587 CURVE SMOOTH",
"427 587 OFFCURVE",
"403 617 OFFCURVE",
"413 663 CURVE",
"356 663 LINE",
"340 589 OFFCURVE",
"381 535 OFFCURVE",
"465 535 CURVE SMOOTH"
);
},
{
closed = 1;
nodes = (
"362 715 OFFCURVE",
"391 725 OFFCURVE",
"421 725 CURVE SMOOTH",
"477 725 OFFCURVE",
"507 682 OFFCURVE",
"571 682 CURVE SMOOTH",
"606 682 OFFCURVE",
"636 690 OFFCURVE",
"660 718 CURVE",
"673 779 LINE",
"642 744 OFFCURVE",
"613 733 OFFCURVE",
"582 733 CURVE SMOOTH",
"525 733 OFFCURVE",
"492 777 OFFCURVE",
"432 777 CURVE SMOOTH",
"398 777 OFFCURVE",
"366 768 OFFCURVE",
"341 740 CURVE",
"328 679 LINE"
);
}
);
width = 651;
}
);
leftKerningGroup = a;
note = abrevetilde;
rightKerningGroup = a;
unicode = 1EB5;
},
{
glyphname = acaron;
lastChange = "2015-10-28 08:12:40 +0000";
layers = (
{
layerId = "EA8340D9-3B60-45BA-AE27-149F2EF80A01";
name = "Light Italic";
paths = (
{
closed = 1;
nodes = (
"357 -15 OFFCURVE",
"423 9 OFFCURVE",
"487 75 CURVE",
"471 0 LINE",
"546 0 LINE",
"648 480 LINE",
"571 480 LINE",
"553 399 LINE",
"523 459 OFFCURVE",
"459 495 OFFCURVE",
"366 495 CURVE SMOOTH",
"223 495 OFFCURVE",
"93 392 OFFCURVE",
"60 239 CURVE SMOOTH",
"27 83 OFFCURVE",
"115 -15 OFFCURVE",
"257 -15 CURVE SMOOTH"
);
},
{
closed = 1;
nodes = (
"180 46 OFFCURVE",
"112 122 OFFCURVE",
"137 239 CURVE SMOOTH",
"162 356 OFFCURVE",
"263 433 OFFCURVE",
"369 433 CURVE SMOOTH",
"469 433 OFFCURVE",
"525 382 OFFCURVE",
"532 299 CURVE",
"507 179 LINE",
"462 96 OFFCURVE",
"377 46 OFFCURVE",
"286 46 CURVE SMOOTH"
);
},
{
closed = 1;
nodes = (
"486 535 LINE",
"658 696 LINE",
"577 696 LINE",
"460 582 LINE",
"393 696 LINE",
"318 696 LINE",
"419 535 LINE"
);
}
);
width = 651;
}
);
leftKerningGroup = a;
note = acaron;
rightKerningGroup = a;
unicode = 01CE;
},
{
glyphname = acircumflex;
lastChange = "2015-10-28 08:12:41 +0000";
layers = (
{
layerId = "EA8340D9-3B60-45BA-AE27-149F2EF80A01";
name = "Light Italic";
paths = (
{
closed = 1;
nodes = (
"357 -15 OFFCURVE",
"423 9 OFFCURVE",
"487 75 CURVE",
"471 0 LINE",
"546 0 LINE",
"648 480 LINE",
"571 480 LINE",
"553 399 LINE",
"523 459 OFFCURVE",
"459 495 OFFCURVE",
"366 495 CURVE SMOOTH",
"223 495 OFFCURVE",
"93 392 OFFCURVE",
"60 239 CURVE SMOOTH",
"27 83 OFFCURVE",
"115 -15 OFFCURVE",
"257 -15 CURVE SMOOTH"
);
},
{
closed = 1;
nodes = (
"180 46 OFFCURVE",
"112 122 OFFCURVE",
"137 239 CURVE SMOOTH",
"162 356 OFFCURVE",
"263 433 OFFCURVE",
"369 433 CURVE SMOOTH",
"469 433 OFFCURVE",
"525 382 OFFCURVE",
"532 299 CURVE",
"507 179 LINE",
"462 96 OFFCURVE",
"377 46 OFFCURVE",
"286 46 CURVE SMOOTH"
);
},
{
closed = 1;
nodes = (
"365 535 LINE",
"481 649 LINE",
"549 535 LINE",
"624 535 LINE",
"521 696 LINE",
"454 696 LINE",
"284 535 LINE"
);
}
);
width = 651;
}
);
leftKerningGroup = a;
note = acircumflex;
rightKerningGroup = a;
unicode = 00E2;
},
{
glyphname = acircumflexacute;
lastChange = "2015-10-28 08:12:41 +0000";
layers = (
{
layerId = "EA8340D9-3B60-45BA-AE27-149F2EF80A01";
name = "Light Italic";
paths = (
{
closed = 1;
nodes = (
"357 -15 OFFCURVE",
"423 9 OFFCURVE",
"487 75 CURVE",
"471 0 LINE",
"546 0 LINE",
"648 480 LINE",
"571 480 LINE",
"553 399 LINE",
"523 459 OFFCURVE",
"459 495 OFFCURVE",
"366 495 CURVE SMOOTH",
"223 495 OFFCURVE",
"93 392 OFFCURVE",
"60 239 CURVE SMOOTH",
"27 83 OFFCURVE",
"115 -15 OFFCURVE",
"257 -15 CURVE SMOOTH"
);
},
{
closed = 1;
nodes = (
"180 46 OFFCURVE",
"112 122 OFFCURVE",
"137 239 CURVE SMOOTH",
"162 356 OFFCURVE",
"263 433 OFFCURVE",
"369 433 CURVE SMOOTH",
"469 433 OFFCURVE",
"525 382 OFFCURVE",
"532 299 CURVE",
"507 179 LINE",
"462 96 OFFCURVE",
"377 46 OFFCURVE",
"286 46 CURVE SMOOTH"
);
},
{
closed = 1;
nodes = (
"365 535 LINE",
"478 630 LINE",
"549 535 LINE",
"626 535 LINE",
"520 673 LINE",
"453 673 LINE",
"286 535 LINE"
);
},
{
closed = 1;
nodes = (
"619 638 LINE",
"725 758 LINE",
"661 758 LINE",
"565 638 LINE"
);
}
);
width = 651;
}
);
leftKerningGroup = a;
note = acircumflexacute;
rightKerningGroup = a;
unicode = 1EA5;
},
{
glyphname = acircumflexdotbelow;
lastChange = "2015-10-28 08:12:41 +0000";
layers = (
{
layerId = "EA8340D9-3B60-45BA-AE27-149F2EF80A01";
name = "Light Italic";
paths = (
{
closed = 1;
nodes = (
"357 -15 OFFCURVE",
"423 9 OFFCURVE",
"487 75 CURVE",
"471 0 LINE",
"546 0 LINE",
"648 480 LINE",
"571 480 LINE",
"553 399 LINE",
"523 459 OFFCURVE",
"459 495 OFFCURVE",
"366 495 CURVE SMOOTH",
"223 495 OFFCURVE",
"93 392 OFFCURVE",
"60 239 CURVE SMOOTH",
"27 83 OFFCURVE",
"115 -15 OFFCURVE",
"257 -15 CURVE SMOOTH"
);
},
{
closed = 1;
nodes = (
"327 -152 OFFCURVE",
"354 -130 OFFCURVE",
"360 -103 CURVE",
"365 -76 OFFCURVE",
"347 -54 OFFCURVE",
"322 -54 CURVE SMOOTH",
"295 -54 OFFCURVE",
"267 -76 OFFCURVE",
"262 -103 CURVE",
"256 -130 OFFCURVE",
"274 -152 OFFCURVE",
"301 -152 CURVE SMOOTH"
);
},
{
closed = 1;
nodes = (
"180 46 OFFCURVE",
"112 122 OFFCURVE",
"137 239 CURVE SMOOTH",
"162 356 OFFCURVE",
"263 433 OFFCURVE",
"369 433 CURVE SMOOTH",
"469 433 OFFCURVE",
"525 382 OFFCURVE",
"532 299 CURVE",
"507 179 LINE",
"462 96 OFFCURVE",
"377 46 OFFCURVE",
"286 46 CURVE SMOOTH"
);
},
{
closed = 1;
nodes = (
"363 535 LINE",
"479 649 LINE",
"547 535 LINE",
"622 535 LINE",
"519 696 LINE",
"452 696 LINE",
"282 535 LINE"
);
}
);
width = 651;
}
);
leftKerningGroup = a;
note = acircumflexdotbelow;
rightKerningGroup = a;
unicode = 1EAD;
},
{
glyphname = acircumflexgrave;
lastChange = "2015-10-28 08:12:41 +0000";
layers = (
{
layerId = "EA8340D9-3B60-45BA-AE27-149F2EF80A01";
name = "Light Italic";
paths = (
{
closed = 1;
nodes = (
"357 -15 OFFCURVE",
"423 9 OFFCURVE",
"487 75 CURVE",
"471 0 LINE",
"546 0 LINE",
"648 480 LINE",
"571 480 LINE",
"553 399 LINE",
"523 459 OFFCURVE",
"459 495 OFFCURVE",
"366 495 CURVE SMOOTH",
"223 495 OFFCURVE",
"93 392 OFFCURVE",
"60 239 CURVE SMOOTH",
"27 83 OFFCURVE",
"115 -15 OFFCURVE",
"257 -15 CURVE SMOOTH"
);
},
{
closed = 1;
nodes = (
"180 46 OFFCURVE",
"112 122 OFFCURVE",
"137 239 CURVE SMOOTH",
"162 356 OFFCURVE",
"263 433 OFFCURVE",
"369 433 CURVE SMOOTH",
"469 433 OFFCURVE",
"525 382 OFFCURVE",
"532 299 CURVE",
"507 179 LINE",
"462 96 OFFCURVE",
"377 46 OFFCURVE",
"286 46 CURVE SMOOTH"
);
},
{
closed = 1;
nodes = (
"382 638 LINE",
"337 758 LINE",
"273 758 LINE",
"328 638 LINE"
);
},
{
closed = 1;
nodes = (
"354 535 LINE",
"467 630 LINE",
"538 535 LINE",
"616 535 LINE",
"510 673 LINE",
"443 673 LINE",
"276 535 LINE"
);
}
);
width = 651;
}
);
leftKerningGroup = a;
note = acircumflexgrave;
rightKerningGroup = a;
unicode = 1EA7;
},
{
glyphname = acircumflexhookabove;
lastChange = "2015-10-28 08:12:41 +0000";
layers = (
{
layerId = "EA8340D9-3B60-45BA-AE27-149F2EF80A01";
name = "Light Italic";
paths = (
{
closed = 1;
nodes = (
"357 -15 OFFCURVE",
"423 9 OFFCURVE",
"487 75 CURVE",
"471 0 LINE",
"546 0 LINE",
"648 480 LINE",
"571 480 LINE",
"553 399 LINE",
"523 459 OFFCURVE",
"459 495 OFFCURVE",
"366 495 CURVE SMOOTH",
"223 495 OFFCURVE",
"93 392 OFFCURVE",
"60 239 CURVE SMOOTH",
"27 83 OFFCURVE",
"115 -15 OFFCURVE",
"257 -15 CURVE SMOOTH"
);
},
{
closed = 1;
nodes = (
"180 46 OFFCURVE",
"112 122 OFFCURVE",
"137 239 CURVE SMOOTH",
"162 356 OFFCURVE",
"263 433 OFFCURVE",
"369 433 CURVE SMOOTH",
"469 433 OFFCURVE",
"525 382 OFFCURVE",
"532 299 CURVE",
"507 179 LINE",
"462 96 OFFCURVE",
"377 46 OFFCURVE",
"286 46 CURVE SMOOTH"
);
},
{
closed = 1;
nodes = (
"358 535 LINE",
"471 630 LINE",
"542 535 LINE",
"620 535 LINE",
"514 673 LINE",
"447 673 LINE",
"280 535 LINE"
);
},
{
closed = 1;
nodes = (
"612 631 LINE",
"617 656 LINE",
"661 662 OFFCURVE",
"691 689 OFFCURVE",
"698 721 CURVE SMOOTH",
"706 761 OFFCURVE",
"683 787 OFFCURVE",
"628 787 CURVE SMOOTH",
"607 787 OFFCURVE",
"581 783 OFFCURVE",
"567 778 CURVE",
"559 742 LINE",
"570 747 OFFCURVE",
"589 750 OFFCURVE",
"605 750 CURVE SMOOTH",
"634 750 OFFCURVE",
"647 739 OFFCURVE",
"642 717 CURVE SMOOTH",
"637 693 OFFCURVE",
"615 681 OFFCURVE",
"573 681 CURVE",
"563 631 LINE"
);
}
);
width = 651;
}
);
leftKerningGroup = a;
note = acircumflexhookabove;
rightKerningGroup = a;
unicode = 1EA9;
},
{
glyphname = acircumflextilde;
lastChange = "2015-10-28 08:12:41 +0000";
layers = (
{
layerId = "EA8340D9-3B60-45BA-AE27-149F2EF80A01";
name = "Light Italic";
paths = (
{
closed = 1;
nodes = (
"357 -15 OFFCURVE",
"423 9 OFFCURVE",
"487 75 CURVE",
"471 0 LINE",
"546 0 LINE",
"648 480 LINE",
"571 480 LINE",
"553 399 LINE",
"523 459 OFFCURVE",
"459 495 OFFCURVE",
"366 495 CURVE SMOOTH",
"223 495 OFFCURVE",
"93 392 OFFCURVE",
"60 239 CURVE SMOOTH",
"27 83 OFFCURVE",
"115 -15 OFFCURVE",
"257 -15 CURVE SMOOTH"
);
},
{
closed = 1;
nodes = (
"180 46 OFFCURVE",
"112 122 OFFCURVE",
"137 239 CURVE SMOOTH",
"162 356 OFFCURVE",
"263 433 OFFCURVE",
"369 433 CURVE SMOOTH",
"469 433 OFFCURVE",
"525 382 OFFCURVE",
"532 299 CURVE",
"507 179 LINE",
"462 96 OFFCURVE",
"377 46 OFFCURVE",
"286 46 CURVE SMOOTH"
);
},
{
closed = 1;
nodes = (
"362 535 LINE",
"475 630 LINE",
"546 535 LINE",
"624 535 LINE",
"518 673 LINE",
"451 673 LINE",
"284 535 LINE"
);
},
{
closed = 1;
nodes = (
"361 711 OFFCURVE",
"390 721 OFFCURVE",
"420 721 CURVE SMOOTH",
"476 721 OFFCURVE",
"506 678 OFFCURVE",
"570 678 CURVE SMOOTH",
"604 678 OFFCURVE",
"635 686 OFFCURVE",
"659 714 CURVE",
"672 775 LINE",
"641 740 OFFCURVE",
"611 729 OFFCURVE",
"581 729 CURVE SMOOTH",
"524 729 OFFCURVE",
"491 773 OFFCURVE",
"431 773 CURVE SMOOTH",
"397 773 OFFCURVE",
"365 764 OFFCURVE",
"340 736 CURVE",
"327 675 LINE"
);
}
);
width = 651;
}
);
leftKerningGroup = a;
note = acircumflextilde;
rightKerningGroup = a;
unicode = 1EAB;
},
{
glyphname = adieresis;
lastChange = "2015-10-28 08:12:40 +0000";
layers = (
{
layerId = "EA8340D9-3B60-45BA-AE27-149F2EF80A01";
name = "Light Italic";
paths = (
{
closed = 1;
nodes = (
"357 -15 OFFCURVE",
"423 9 OFFCURVE",
"487 75 CURVE",
"471 0 LINE",
"546 0 LINE",
"648 480 LINE",
"571 480 LINE",
"553 399 LINE",
"523 459 OFFCURVE",
"459 495 OFFCURVE",
"366 495 CURVE SMOOTH",
"223 495 OFFCURVE",
"93 392 OFFCURVE",
"60 239 CURVE SMOOTH",
"27 83 OFFCURVE",
"115 -15 OFFCURVE",
"257 -15 CURVE SMOOTH"
);
},
{
closed = 1;
nodes = (
"180 46 OFFCURVE",
"112 122 OFFCURVE",
"137 239 CURVE SMOOTH",
"162 356 OFFCURVE",
"263 433 OFFCURVE",
"369 433 CURVE SMOOTH",
"469 433 OFFCURVE",
"525 382 OFFCURVE",
"532 299 CURVE",
"507 179 LINE",
"462 96 OFFCURVE",
"377 46 OFFCURVE",
"286 46 CURVE SMOOTH"
);
},
{
closed = 1;
nodes = (
"375 535 OFFCURVE",
"402 557 OFFCURVE",
"408 584 CURVE SMOOTH",
"414 611 OFFCURVE",
"395 633 OFFCURVE",
"369 633 CURVE SMOOTH",
"342 633 OFFCURVE",
"316 611 OFFCURVE",
"310 584 CURVE SMOOTH",
"304 557 OFFCURVE",
"323 535 OFFCURVE",
"349 535 CURVE SMOOTH"
);
},
{
closed = 1;
nodes = (
"592 535 OFFCURVE",
"619 557 OFFCURVE",
"625 584 CURVE SMOOTH",
"631 611 OFFCURVE",
"612 633 OFFCURVE",
"586 633 CURVE SMOOTH",
"559 633 OFFCURVE",
"532 611 OFFCURVE",
"526 584 CURVE SMOOTH",
"520 557 OFFCURVE",
"539 535 OFFCURVE",
"566 535 CURVE SMOOTH"
);
}
);
width = 651;
}
);
leftKerningGroup = a;
note = adieresis;
rightKerningGroup = a;
unicode = 00E4;
},
{
glyphname = adotbelow;
lastChange = "2015-10-28 08:12:40 +0000";
layers = (
{
layerId = "EA8340D9-3B60-45BA-AE27-149F2EF80A01";
name = "Light Italic";
paths = (
{
closed = 1;
nodes = (
"357 -15 OFFCURVE",
"423 9 OFFCURVE",
"487 75 CURVE",
"471 0 LINE",
"546 0 LINE",
"648 480 LINE",
"571 480 LINE",
"553 399 LINE",
"523 459 OFFCURVE",
"459 495 OFFCURVE",
"366 495 CURVE SMOOTH",
"223 495 OFFCURVE",
"93 392 OFFCURVE",
"60 239 CURVE SMOOTH",
"27 83 OFFCURVE",
"115 -15 OFFCURVE",
"257 -15 CURVE SMOOTH"
);
},
{
closed = 1;
nodes = (
"319 -152 OFFCURVE",
"346 -130 OFFCURVE",
"352 -103 CURVE",
"357 -76 OFFCURVE",
"339 -54 OFFCURVE",
"314 -54 CURVE SMOOTH",
"287 -54 OFFCURVE",
"259 -76 OFFCURVE",
"254 -103 CURVE",
"248 -130 OFFCURVE",
"266 -152 OFFCURVE",
"293 -152 CURVE SMOOTH"
);
},
{
closed = 1;
nodes = (
"180 46 OFFCURVE",
"112 122 OFFCURVE",
"137 239 CURVE SMOOTH",
"162 356 OFFCURVE",
"263 433 OFFCURVE",
"369 433 CURVE SMOOTH",
"469 433 OFFCURVE",
"525 382 OFFCURVE",
"532 299 CURVE",
"507 179 LINE",
"462 96 OFFCURVE",
"377 46 OFFCURVE",
"286 46 CURVE SMOOTH"
);
}
);
width = 651;
}
);
leftKerningGroup = a;
note = adotbelow;
rightKerningGroup = a;
unicode = 1EA1;
},
{
glyphname = agrave;
lastChange = "2015-10-28 08:12:41 +0000";
layers = (
{
layerId = "EA8340D9-3B60-45BA-AE27-149F2EF80A01";
name = "Light Italic";
paths = (
{
closed = 1;
nodes = (
"357 -15 OFFCURVE",
"423 9 OFFCURVE",
"487 75 CURVE",
"471 0 LINE",
"546 0 LINE",
"648 480 LINE",
"571 480 LINE",
"553 399 LINE",
"523 459 OFFCURVE",
"459 495 OFFCURVE",
"366 495 CURVE SMOOTH",
"223 495 OFFCURVE",
"93 392 OFFCURVE",
"60 239 CURVE SMOOTH",
"27 83 OFFCURVE",
"115 -15 OFFCURVE",
"257 -15 CURVE SMOOTH"
);
},
{
closed = 1;
nodes = (
"180 46 OFFCURVE",
"112 122 OFFCURVE",
"137 239 CURVE SMOOTH",
"162 356 OFFCURVE",
"263 433 OFFCURVE",
"369 433 CURVE SMOOTH",
"469 433 OFFCURVE",
"525 382 OFFCURVE",
"532 299 CURVE",
"507 179 LINE",
"462 96 OFFCURVE",
"377 46 OFFCURVE",
"286 46 CURVE SMOOTH"
);
},
{
closed = 1;
nodes = (
"500 535 LINE",
"468 705 LINE",
"387 705 LINE",
"431 535 LINE"
);
}
);
width = 651;
}
);
leftKerningGroup = a;
note = agrave;
rightKerningGroup = a;
unicode = 00E0;
},
{
glyphname = ahookabove;
lastChange = "2015-10-28 08:12:41 +0000";
layers = (
{
layerId = "EA8340D9-3B60-45BA-AE27-149F2EF80A01";
name = "Light Italic";
paths = (
{
closed = 1;
nodes = (
"357 -15 OFFCURVE",
"423 9 OFFCURVE",
"487 75 CURVE",
"471 0 LINE",
"546 0 LINE",
"648 480 LINE",
"571 480 LINE",
"553 399 LINE",
"523 459 OFFCURVE",
"459 495 OFFCURVE",
"366 495 CURVE SMOOTH",
"223 495 OFFCURVE",
"93 392 OFFCURVE",
"60 239 CURVE SMOOTH",
"27 83 OFFCURVE",
"115 -15 OFFCURVE",
"257 -15 CURVE SMOOTH"
);
},
{
closed = 1;
nodes = (
"180 46 OFFCURVE",
"112 122 OFFCURVE",
"137 239 CURVE SMOOTH",
"162 356 OFFCURVE",
"263 433 OFFCURVE",
"369 433 CURVE SMOOTH",
"469 433 OFFCURVE",
"525 382 OFFCURVE",
"532 299 CURVE",
"507 179 LINE",
"462 96 OFFCURVE",
"377 46 OFFCURVE",
"286 46 CURVE SMOOTH"
);
},
{
closed = 1;
nodes = (
"484 535 LINE",
"491 570 LINE",
"555 576 OFFCURVE",
"595 616 OFFCURVE",
"605 664 CURVE SMOOTH",
"617 719 OFFCURVE",
"577 757 OFFCURVE",
"503 757 CURVE SMOOTH",
"475 757 OFFCURVE",
"443 752 OFFCURVE",
"425 746 CURVE",
"415 701 LINE",
"428 707 OFFCURVE",
"460 711 OFFCURVE",
"477 711 CURVE SMOOTH",
"524 711 OFFCURVE",
"544 696 OFFCURVE",
"537 661 CURVE SMOOTH",
"528 620 OFFCURVE",
"495 603 OFFCURVE",
"431 603 CURVE",
"417 535 LINE"
);
}
);
width = 651;
}
);
leftKerningGroup = a;
note = ahookabove;
rightKerningGroup = a;
unicode = 1EA3;
},
{
glyphname = "alpha-latin";
lastChange = "2015-10-28 08:12:41 +0000";
layers = (
{
layerId = "EA8340D9-3B60-45BA-AE27-149F2EF80A01";
name = "Light Italic";
paths = (
{
closed = 1;
nodes = (
"350 -15 OFFCURVE",
"424 18 OFFCURVE",
"488 84 CURVE",
"471 0 LINE",
"546 0 LINE",
"648 480 LINE",
"571 480 LINE",
"553 399 LINE",
"524 463 OFFCURVE",
"457 495 OFFCURVE",
"366 495 CURVE SMOOTH",
"223 495 OFFCURVE",
"93 392 OFFCURVE",
"60 239 CURVE SMOOTH",
"27 83 OFFCURVE",
"115 -15 OFFCURVE",
"257 -15 CURVE SMOOTH"
);
},
{
closed = 1;
nodes = (
"180 46 OFFCURVE",
"112 122 OFFCURVE",
"137 239 CURVE SMOOTH",
"162 356 OFFCURVE",
"263 433 OFFCURVE",
"369 433 CURVE SMOOTH",
"463 433 OFFCURVE",
"525 382 OFFCURVE",
"532 299 CURVE",
"507 179 LINE",
"462 96 OFFCURVE",
"377 46 OFFCURVE",
"286 46 CURVE SMOOTH"
);
}
);
width = 656;
}
);
leftKerningGroup = a;
note = ascript;
rightKerningGroup = a;
unicode = 0251;
},
{
glyphname = amacron;
lastChange = "2015-10-28 08:12:39 +0000";
layers = (
{
layerId = "EA8340D9-3B60-45BA-AE27-149F2EF80A01";
name = "Light Italic";
paths = (
{
closed = 1;
nodes = (
"357 -15 OFFCURVE",
"423 9 OFFCURVE",
"487 75 CURVE",
"471 0 LINE",
"546 0 LINE",
"648 480 LINE",
"571 480 LINE",
"553 399 LINE",
"523 459 OFFCURVE",
"459 495 OFFCURVE",
"366 495 CURVE SMOOTH",
"223 495 OFFCURVE",
"93 392 OFFCURVE",
"60 239 CURVE SMOOTH",
"27 83 OFFCURVE",
"115 -15 OFFCURVE",
"257 -15 CURVE SMOOTH"
);
},
{
closed = 1;
nodes = (
"180 46 OFFCURVE",
"112 122 OFFCURVE",
"137 239 CURVE SMOOTH",
"162 356 OFFCURVE",
"263 433 OFFCURVE",
"369 433 CURVE SMOOTH",
"469 433 OFFCURVE",
"525 382 OFFCURVE",
"532 299 CURVE",
"507 179 LINE",
"462 96 OFFCURVE",
"377 46 OFFCURVE",
"286 46 CURVE SMOOTH"
);
},
{
closed = 1;
nodes = (
"618 555 LINE",
"629 609 LINE",
"329 609 LINE",
"318 555 LINE"
);
}
);
width = 651;
}
);
leftKerningGroup = a;
note = amacron;
rightKerningGroup = a;
unicode = 0101;
},
{
glyphname = aogonek;
lastChange = "2015-10-28 08:12:39 +0000";
layers = (
{
layerId = "EA8340D9-3B60-45BA-AE27-149F2EF80A01";
name = "Light Italic";
paths = (
{
closed = 1;
nodes = (
"477 -210 OFFCURVE",
"502 -206 OFFCURVE",
"519 -199 CURVE",
"530 -149 LINE",
"516 -155 OFFCURVE",
"499 -159 OFFCURVE",
"481 -159 CURVE SMOOTH",
"449 -159 OFFCURVE",
"437 -145 OFFCURVE",
"444 -112 CURVE SMOOTH",
"453 -69 OFFCURVE",
"488 -34 OFFCURVE",
"546 0 CURVE",
"648 480 LINE",
"571 480 LINE",
"553 399 LINE",
"523 459 OFFCURVE",
"459 495 OFFCURVE",
"366 495 CURVE SMOOTH",
"223 495 OFFCURVE",
"93 392 OFFCURVE",
"60 239 CURVE SMOOTH",
"27 83 OFFCURVE",
"115 -15 OFFCURVE",
"257 -15 CURVE SMOOTH",
"357 -15 OFFCURVE",
"423 9 OFFCURVE",
"487 75 CURVE",
"471 0 LINE",
"427 -27 OFFCURVE",
"384 -71 OFFCURVE",
"373 -123 CURVE SMOOTH",
"361 -182 OFFCURVE",
"399 -210 OFFCURVE",
"452 -210 CURVE SMOOTH"
);
},
{
closed = 1;
nodes = (
"180 46 OFFCURVE",
"112 122 OFFCURVE",
"137 239 CURVE SMOOTH",
"162 356 OFFCURVE",
"263 433 OFFCURVE",
"369 433 CURVE SMOOTH",
"469 433 OFFCURVE",
"525 382 OFFCURVE",
"532 299 CURVE",
"507 179 LINE",
"462 96 OFFCURVE",
"377 46 OFFCURVE",
"286 46 CURVE SMOOTH"
);
}
);
width = 651;
}
);
leftKerningGroup = a;
note = aogonek;
rightKerningGroup = a;
unicode = 0105;
},
